G75*
%MOIN*%
%OFA0B0*%
%FSLAX25Y25*%
%IPPOS*%
%LPD*%
%AMOC8*
5,1,8,0,0,1.08239X$1,22.5*
%
%ADD10C,0.01000*%
%ADD11R,0.05906X0.05118*%
%ADD12R,0.10039X0.09843*%
%ADD13R,0.05118X0.05906*%
%ADD14R,0.03150X0.03150*%
%ADD15R,0.01181X0.04724*%
%ADD16R,0.04724X0.01181*%
%ADD17R,0.02362X0.04724*%
%ADD18C,0.01181*%
%ADD19R,0.07600X0.02600*%
%ADD20R,0.02600X0.07600*%
%ADD21R,0.04724X0.02165*%
%ADD22R,0.10300X0.10300*%
%ADD23C,0.01500*%
%ADD24C,0.02000*%
%ADD25R,0.09843X0.07874*%
%ADD26R,0.12992X0.07874*%
%ADD27R,0.12205X0.01969*%
%ADD28C,0.00000*%
%ADD29C,0.07400*%
%ADD30R,0.03937X0.04331*%
%ADD31R,0.05512X0.05512*%
%ADD32R,0.04331X0.07480*%
%ADD33OC8,0.06000*%
%ADD34R,0.10000X0.05000*%
%ADD35R,0.02362X0.03150*%
%ADD36R,0.03150X0.02362*%
%ADD37C,0.01200*%
%ADD38C,0.03169*%
%ADD39R,0.03562X0.03562*%
%ADD40C,0.01600*%
%ADD41C,0.02400*%
%ADD42C,0.03200*%
%ADD43C,0.04000*%
%ADD44C,0.03562*%
D10*
X0001500Y0012458D02*
X0199335Y0012458D01*
X0199335Y0209309D01*
X0001500Y0209309D01*
X0001500Y0012458D01*
X0052652Y0017478D02*
X0052652Y0018334D01*
X0057602Y0023285D01*
X0057602Y0023777D01*
X0058094Y0024269D01*
X0070398Y0024269D01*
X0072366Y0026238D01*
X0072366Y0034073D01*
X0072307Y0034132D01*
X0117002Y0078551D02*
X0114197Y0081356D01*
X0121923Y0096760D02*
X0121579Y0097104D01*
X0121923Y0096760D02*
X0123793Y0096760D01*
X0127730Y0092823D01*
X0127730Y0072252D01*
X0133488Y0076069D02*
X0133488Y0076069D01*
X0137350Y0076069D01*
X0137350Y0076337D01*
X0138649Y0076337D01*
X0139999Y0077688D01*
X0140813Y0077688D01*
X0141800Y0078096D01*
X0142555Y0078851D01*
X0142964Y0079838D01*
X0142964Y0080906D01*
X0142555Y0081892D01*
X0141800Y0082647D01*
X0140813Y0083056D01*
X0139746Y0083056D01*
X0138759Y0082647D01*
X0138004Y0081892D01*
X0137595Y0080906D01*
X0137595Y0080092D01*
X0137241Y0079737D01*
X0136950Y0079737D01*
X0136950Y0081052D01*
X0136306Y0081696D01*
X0134202Y0081696D01*
X0134192Y0081706D01*
X0132924Y0081706D01*
X0132924Y0090214D01*
X0132954Y0090214D01*
X0135627Y0087542D01*
X0136623Y0086546D01*
X0139672Y0086546D01*
X0139672Y0085062D01*
X0140316Y0084417D01*
X0145656Y0084417D01*
X0145756Y0084317D01*
X0146098Y0084120D01*
X0146480Y0084017D01*
X0147268Y0084017D01*
X0147536Y0084017D01*
X0147536Y0083506D01*
X0147539Y0083504D01*
X0147543Y0082234D01*
X0146975Y0081666D01*
X0146567Y0080679D01*
X0146567Y0079611D01*
X0146975Y0078625D01*
X0147730Y0077870D01*
X0148717Y0077461D01*
X0149785Y0077461D01*
X0150771Y0077870D01*
X0151527Y0078625D01*
X0151729Y0079114D01*
X0151734Y0079102D01*
X0152489Y0078347D01*
X0153476Y0077938D01*
X0154544Y0077938D01*
X0155530Y0078347D01*
X0156285Y0079102D01*
X0156647Y0079975D01*
X0156705Y0079835D01*
X0157460Y0079080D01*
X0158446Y0078672D01*
X0159514Y0078672D01*
X0160501Y0079080D01*
X0161256Y0079835D01*
X0161665Y0080822D01*
X0161665Y0081890D01*
X0161256Y0082877D01*
X0160779Y0083354D01*
X0160779Y0084417D01*
X0169278Y0084417D01*
X0169378Y0084317D01*
X0169720Y0084120D01*
X0170102Y0084017D01*
X0170890Y0084017D01*
X0171678Y0084017D01*
X0172059Y0084120D01*
X0172401Y0084317D01*
X0172681Y0084596D01*
X0172878Y0084938D01*
X0172980Y0085320D01*
X0172980Y0087880D01*
X0172980Y0090214D01*
X0180634Y0090214D01*
X0180634Y0082096D01*
X0178764Y0082096D01*
X0178764Y0080006D01*
X0178764Y0080006D01*
X0178764Y0082096D01*
X0176204Y0082096D01*
X0175823Y0081994D01*
X0175481Y0081796D01*
X0175201Y0081517D01*
X0175004Y0081175D01*
X0174902Y0080794D01*
X0174902Y0080006D01*
X0178764Y0080006D01*
X0178764Y0080006D01*
X0174902Y0080006D01*
X0174902Y0079737D01*
X0172674Y0079737D01*
X0172056Y0079119D01*
X0171242Y0079119D01*
X0170255Y0078710D01*
X0169500Y0077955D01*
X0169091Y0076969D01*
X0169091Y0075901D01*
X0169500Y0074914D01*
X0170255Y0074159D01*
X0171242Y0073750D01*
X0172101Y0073750D01*
X0171071Y0072721D01*
X0169955Y0072721D01*
X0169622Y0073526D01*
X0168867Y0074281D01*
X0167880Y0074690D01*
X0166813Y0074690D01*
X0165826Y0074281D01*
X0165071Y0073526D01*
X0164662Y0072540D01*
X0164662Y0071472D01*
X0165071Y0070485D01*
X0165826Y0069730D01*
X0166813Y0069321D01*
X0172480Y0069321D01*
X0173476Y0070317D01*
X0175302Y0072143D01*
X0175302Y0049432D01*
X0175946Y0048787D01*
X0177064Y0048787D01*
X0177064Y0041986D01*
X0172980Y0041986D01*
X0172980Y0042604D01*
X0172980Y0045164D01*
X0172878Y0045545D01*
X0172681Y0045887D01*
X0172401Y0046167D01*
X0172059Y0046364D01*
X0171678Y0046466D01*
X0170890Y0046466D01*
X0170890Y0042604D01*
X0170890Y0042604D01*
X0172980Y0042604D01*
X0170890Y0042604D01*
X0170890Y0042604D01*
X0170890Y0046466D01*
X0170621Y0046466D01*
X0170621Y0049481D01*
X0170523Y0049580D01*
X0170523Y0050394D01*
X0170114Y0051380D01*
X0169359Y0052136D01*
X0168373Y0052544D01*
X0167305Y0052544D01*
X0166318Y0052136D01*
X0165563Y0051380D01*
X0165154Y0050394D01*
X0165154Y0049326D01*
X0165563Y0048339D01*
X0166318Y0047584D01*
X0167221Y0047210D01*
X0167221Y0046066D01*
X0140316Y0046066D01*
X0139672Y0045422D01*
X0139672Y0043318D01*
X0139662Y0043308D01*
X0139662Y0041986D01*
X0132657Y0041986D01*
X0132818Y0042148D01*
X0133016Y0042490D01*
X0133118Y0042871D01*
X0133118Y0045521D01*
X0131421Y0045521D01*
X0131421Y0046521D01*
X0133118Y0046521D01*
X0133118Y0048387D01*
X0133488Y0048387D01*
X0133488Y0050478D01*
X0133488Y0050478D01*
X0133488Y0048387D01*
X0136048Y0048387D01*
X0136429Y0048490D01*
X0136771Y0048687D01*
X0137051Y0048966D01*
X0137248Y0049309D01*
X0137350Y0049690D01*
X0137350Y0050478D01*
X0133488Y0050478D01*
X0133488Y0050478D01*
X0137350Y0050478D01*
X0137350Y0050747D01*
X0137665Y0050747D01*
X0139999Y0053081D01*
X0140813Y0053081D01*
X0141800Y0053490D01*
X0142555Y0054245D01*
X0142964Y0055232D01*
X0142964Y0056299D01*
X0142555Y0057286D01*
X0141800Y0058041D01*
X0140813Y0058450D01*
X0139746Y0058450D01*
X0138759Y0058041D01*
X0138004Y0057286D01*
X0137595Y0056299D01*
X0137595Y0055485D01*
X0136950Y0054840D01*
X0136950Y0066495D01*
X0139905Y0066495D01*
X0140673Y0066487D01*
X0141269Y0065891D01*
X0142255Y0065483D01*
X0143323Y0065483D01*
X0144310Y0065891D01*
X0145065Y0066647D01*
X0145474Y0067633D01*
X0145474Y0068701D01*
X0145065Y0069688D01*
X0144310Y0070443D01*
X0143323Y0070851D01*
X0142255Y0070851D01*
X0141269Y0070443D01*
X0140713Y0069887D01*
X0140624Y0069888D01*
X0140618Y0069895D01*
X0139921Y0069895D01*
X0139226Y0069901D01*
X0139219Y0069895D01*
X0136950Y0069895D01*
X0136950Y0072400D01*
X0140715Y0072400D01*
X0141367Y0071748D01*
X0142354Y0071339D01*
X0143422Y0071339D01*
X0144408Y0071748D01*
X0145163Y0072503D01*
X0145572Y0073489D01*
X0145572Y0074557D01*
X0145163Y0075544D01*
X0144408Y0076299D01*
X0143422Y0076708D01*
X0142354Y0076708D01*
X0141367Y0076299D01*
X0140868Y0075800D01*
X0137350Y0075800D01*
X0137350Y0076069D01*
X0133488Y0076069D01*
X0136950Y0072369D02*
X0140746Y0072369D01*
X0142278Y0071371D02*
X0136950Y0071371D01*
X0136950Y0070372D02*
X0141198Y0070372D01*
X0143498Y0071371D02*
X0164704Y0071371D01*
X0164662Y0072369D02*
X0145030Y0072369D01*
X0145522Y0073368D02*
X0165005Y0073368D01*
X0166031Y0074366D02*
X0145572Y0074366D01*
X0145238Y0075365D02*
X0169313Y0075365D01*
X0169091Y0076363D02*
X0144253Y0076363D01*
X0141522Y0076363D02*
X0138675Y0076363D01*
X0139674Y0077362D02*
X0169254Y0077362D01*
X0169905Y0078360D02*
X0155543Y0078360D01*
X0156392Y0079359D02*
X0157182Y0079359D01*
X0160779Y0079359D02*
X0172295Y0079359D01*
X0174902Y0080357D02*
X0161472Y0080357D01*
X0161665Y0081356D02*
X0175108Y0081356D01*
X0172435Y0084351D02*
X0180634Y0084351D01*
X0180634Y0083353D02*
X0160780Y0083353D01*
X0160779Y0084351D02*
X0169344Y0084351D01*
X0170890Y0084351D02*
X0170890Y0084351D01*
X0170890Y0084017D02*
X0170890Y0087879D01*
X0170890Y0087879D01*
X0170890Y0087880D02*
X0170890Y0087880D01*
X0172980Y0087880D01*
X0170890Y0087880D01*
X0170890Y0087879D02*
X0170890Y0084017D01*
X0170890Y0085350D02*
X0170890Y0085350D01*
X0170890Y0086348D02*
X0170890Y0086348D01*
X0170890Y0087347D02*
X0170890Y0087347D01*
X0172980Y0087347D02*
X0180634Y0087347D01*
X0180634Y0088345D02*
X0172980Y0088345D01*
X0172980Y0089344D02*
X0180634Y0089344D01*
X0180634Y0086348D02*
X0172980Y0086348D01*
X0172980Y0085350D02*
X0180634Y0085350D01*
X0180634Y0082354D02*
X0161472Y0082354D01*
X0168662Y0074366D02*
X0170048Y0074366D01*
X0169688Y0073368D02*
X0171718Y0073368D01*
X0174529Y0071371D02*
X0175302Y0071371D01*
X0175302Y0070372D02*
X0173530Y0070372D01*
X0172532Y0069374D02*
X0175302Y0069374D01*
X0175302Y0068375D02*
X0145474Y0068375D01*
X0145367Y0067376D02*
X0175302Y0067376D01*
X0175302Y0066378D02*
X0144796Y0066378D01*
X0145195Y0069374D02*
X0166687Y0069374D01*
X0165184Y0070372D02*
X0144380Y0070372D01*
X0140782Y0066378D02*
X0136950Y0066378D01*
X0136950Y0065379D02*
X0175302Y0065379D01*
X0175302Y0064381D02*
X0136950Y0064381D01*
X0136950Y0063382D02*
X0175302Y0063382D01*
X0175302Y0062384D02*
X0136950Y0062384D01*
X0136950Y0061385D02*
X0175302Y0061385D01*
X0175302Y0060387D02*
X0136950Y0060387D01*
X0136950Y0059388D02*
X0175302Y0059388D01*
X0175302Y0058390D02*
X0140958Y0058390D01*
X0139601Y0058390D02*
X0136950Y0058390D01*
X0136950Y0057391D02*
X0138109Y0057391D01*
X0137634Y0056393D02*
X0136950Y0056393D01*
X0136950Y0055394D02*
X0137504Y0055394D01*
X0139317Y0052399D02*
X0166954Y0052399D01*
X0165583Y0051400D02*
X0138319Y0051400D01*
X0137350Y0050402D02*
X0165158Y0050402D01*
X0165154Y0049403D02*
X0137274Y0049403D01*
X0136112Y0048405D02*
X0165536Y0048405D01*
X0166748Y0047406D02*
X0133118Y0047406D01*
X0133488Y0048405D02*
X0133488Y0048405D01*
X0133488Y0049403D02*
X0133488Y0049403D01*
X0133488Y0050402D02*
X0133488Y0050402D01*
X0131421Y0046408D02*
X0167221Y0046408D01*
X0166953Y0042604D02*
X0166953Y0039575D01*
X0166461Y0039082D01*
X0166461Y0029338D01*
X0158409Y0021287D01*
X0157342Y0021287D01*
X0170890Y0043412D02*
X0170890Y0043412D01*
X0170890Y0044411D02*
X0170890Y0044411D01*
X0170890Y0045409D02*
X0170890Y0045409D01*
X0170890Y0046408D02*
X0170890Y0046408D01*
X0171896Y0046408D02*
X0177064Y0046408D01*
X0177064Y0047406D02*
X0170621Y0047406D01*
X0170621Y0048405D02*
X0177064Y0048405D01*
X0175330Y0049403D02*
X0170621Y0049403D01*
X0170520Y0050402D02*
X0175302Y0050402D01*
X0175302Y0051400D02*
X0170094Y0051400D01*
X0168723Y0052399D02*
X0175302Y0052399D01*
X0175302Y0053397D02*
X0141577Y0053397D01*
X0142618Y0054396D02*
X0175302Y0054396D01*
X0175302Y0055394D02*
X0142964Y0055394D01*
X0142925Y0056393D02*
X0175302Y0056393D01*
X0175302Y0057391D02*
X0142450Y0057391D01*
X0139672Y0045409D02*
X0133118Y0045409D01*
X0133118Y0044411D02*
X0139672Y0044411D01*
X0139672Y0043412D02*
X0133118Y0043412D01*
X0132972Y0042414D02*
X0139662Y0042414D01*
X0142064Y0078360D02*
X0147240Y0078360D01*
X0146671Y0079359D02*
X0142765Y0079359D01*
X0142964Y0080357D02*
X0146567Y0080357D01*
X0146847Y0081356D02*
X0142777Y0081356D01*
X0142093Y0082354D02*
X0147543Y0082354D01*
X0147539Y0083353D02*
X0132924Y0083353D01*
X0132924Y0084351D02*
X0145722Y0084351D01*
X0147268Y0084351D02*
X0147268Y0084351D01*
X0147268Y0084017D02*
X0147268Y0087879D01*
X0147268Y0087879D01*
X0147268Y0084017D01*
X0147268Y0085350D02*
X0147268Y0085350D01*
X0147268Y0086348D02*
X0147268Y0086348D01*
X0147268Y0087347D02*
X0147268Y0087347D01*
X0143331Y0087880D02*
X0143331Y0090608D01*
X0142543Y0091395D01*
X0141313Y0091395D01*
X0140083Y0092626D01*
X0140083Y0100647D01*
X0140132Y0100697D01*
X0133390Y0107439D01*
X0126992Y0096169D02*
X0126992Y0145825D01*
X0125270Y0147547D01*
X0149917Y0163451D02*
X0152917Y0163451D01*
X0152917Y0165447D02*
X0149917Y0165447D01*
X0149917Y0167424D02*
X0152917Y0167424D01*
X0152917Y0169530D02*
X0149917Y0169530D01*
X0149917Y0171517D02*
X0152917Y0171517D01*
X0152917Y0173503D02*
X0149917Y0173503D01*
X0154564Y0175251D02*
X0154564Y0178251D01*
X0156561Y0178251D02*
X0156561Y0175251D01*
X0156561Y0176751D02*
X0156561Y0180380D01*
X0155388Y0181553D01*
X0155388Y0181602D01*
X0155437Y0181651D01*
X0155437Y0181799D01*
X0155535Y0181799D01*
X0155585Y0181848D01*
X0155634Y0181848D01*
X0155585Y0181799D01*
X0155535Y0181799D01*
X0158537Y0178251D02*
X0158537Y0175251D01*
X0160644Y0175251D02*
X0160644Y0178251D01*
X0162630Y0178251D02*
X0162630Y0175251D01*
X0164617Y0175251D02*
X0164617Y0178251D01*
X0166265Y0173503D02*
X0169265Y0173503D01*
X0169265Y0171517D02*
X0166265Y0171517D01*
X0166265Y0169530D02*
X0169265Y0169530D01*
X0169265Y0167424D02*
X0166265Y0167424D01*
X0166265Y0165447D02*
X0169265Y0165447D01*
X0169265Y0163451D02*
X0166265Y0163451D01*
X0164617Y0161703D02*
X0164617Y0158703D01*
X0162630Y0158703D02*
X0162630Y0161703D01*
X0160644Y0161703D02*
X0160644Y0158703D01*
X0158537Y0158703D02*
X0158537Y0161703D01*
X0156561Y0161703D02*
X0156561Y0158703D01*
X0154564Y0158703D02*
X0154564Y0161703D01*
X0151436Y0186824D02*
X0149251Y0188182D01*
X0123154Y0108718D02*
X0123154Y0103600D01*
X0122563Y0103010D01*
X0126992Y0096169D02*
X0131224Y0091937D01*
X0131224Y0091592D01*
X0132924Y0089344D02*
X0133825Y0089344D01*
X0132924Y0088345D02*
X0134823Y0088345D01*
X0135822Y0087347D02*
X0132924Y0087347D01*
X0132924Y0086348D02*
X0139672Y0086348D01*
X0139672Y0085350D02*
X0132924Y0085350D01*
X0132924Y0082354D02*
X0138466Y0082354D01*
X0137782Y0081356D02*
X0136647Y0081356D01*
X0136950Y0080357D02*
X0137595Y0080357D01*
X0151262Y0078360D02*
X0152476Y0078360D01*
X0178764Y0080357D02*
X0178764Y0080357D01*
X0178764Y0081356D02*
X0178764Y0081356D01*
X0178764Y0072132D02*
X0178890Y0072006D01*
X0182602Y0072006D01*
X0188700Y0065908D01*
X0188700Y0063920D01*
X0177064Y0045409D02*
X0172915Y0045409D01*
X0172980Y0044411D02*
X0177064Y0044411D01*
X0177064Y0043412D02*
X0172980Y0043412D01*
X0172980Y0042414D02*
X0177064Y0042414D01*
D11*
X0188700Y0056440D03*
X0188700Y0063920D03*
X0188690Y0079875D03*
X0188690Y0087355D03*
X0161110Y0097311D03*
X0161110Y0104791D03*
X0151466Y0104707D03*
X0151466Y0097227D03*
X0122465Y0091002D03*
X0122465Y0083521D03*
X0102209Y0069250D03*
X0102209Y0061769D03*
X0091776Y0061809D03*
X0091776Y0069289D03*
X0064669Y0068206D03*
X0064669Y0060726D03*
X0058705Y0054880D03*
X0058705Y0047399D03*
X0052223Y0036942D03*
X0052223Y0029461D03*
X0061835Y0028069D03*
X0061835Y0020588D03*
X0049354Y0047557D03*
X0049354Y0055037D03*
X0121579Y0035195D03*
X0121579Y0027714D03*
X0129256Y0027616D03*
X0129256Y0035096D03*
X0144005Y0155888D03*
X0144005Y0163369D03*
X0143774Y0168428D03*
X0143774Y0175908D03*
X0178208Y0173777D03*
X0178518Y0167449D03*
X0178518Y0159968D03*
X0178208Y0181258D03*
D12*
X0048331Y0082380D03*
X0028449Y0082380D03*
D13*
X0033685Y0092926D03*
X0041165Y0092926D03*
X0091795Y0056474D03*
X0099276Y0056474D03*
X0121579Y0046021D03*
X0129059Y0046021D03*
X0137415Y0029378D03*
X0144896Y0029378D03*
X0162720Y0033226D03*
X0170201Y0033226D03*
X0143744Y0096897D03*
X0136264Y0096897D03*
X0155083Y0150952D03*
X0162563Y0150952D03*
X0156731Y0188182D03*
X0149251Y0188182D03*
D14*
X0052652Y0023384D03*
X0052652Y0017478D03*
D15*
X0141362Y0042604D03*
X0143331Y0042604D03*
X0145299Y0042604D03*
X0147268Y0042604D03*
X0149236Y0042604D03*
X0151205Y0042604D03*
X0153173Y0042604D03*
X0155142Y0042604D03*
X0157110Y0042604D03*
X0159079Y0042604D03*
X0161047Y0042604D03*
X0163016Y0042604D03*
X0164984Y0042604D03*
X0166953Y0042604D03*
X0168921Y0042604D03*
X0170890Y0042604D03*
X0170890Y0087880D03*
X0168921Y0087880D03*
X0166953Y0087880D03*
X0164984Y0087880D03*
X0163016Y0087880D03*
X0161047Y0087880D03*
X0159079Y0087880D03*
X0157110Y0087880D03*
X0155142Y0087880D03*
X0153173Y0087880D03*
X0151205Y0087880D03*
X0149236Y0087880D03*
X0147268Y0087880D03*
X0145299Y0087880D03*
X0143331Y0087880D03*
X0141362Y0087880D03*
D16*
X0133488Y0080006D03*
X0133488Y0078037D03*
X0133488Y0076069D03*
X0133488Y0074100D03*
X0133488Y0072132D03*
X0133488Y0070163D03*
X0133488Y0068195D03*
X0133488Y0066226D03*
X0133488Y0064258D03*
X0133488Y0062289D03*
X0133488Y0060321D03*
X0133488Y0058352D03*
X0133488Y0056384D03*
X0133488Y0054415D03*
X0133488Y0052447D03*
X0133488Y0050478D03*
X0178764Y0050478D03*
X0178764Y0052447D03*
X0178764Y0054415D03*
X0178764Y0056384D03*
X0178764Y0058352D03*
X0178764Y0060321D03*
X0178764Y0062289D03*
X0178764Y0064258D03*
X0178764Y0066226D03*
X0178764Y0068195D03*
X0178764Y0070163D03*
X0178764Y0072132D03*
X0178764Y0074100D03*
X0178764Y0076069D03*
X0178764Y0078037D03*
X0178764Y0080006D03*
D17*
X0083961Y0064569D03*
X0076480Y0064569D03*
X0076480Y0054285D03*
X0080220Y0054285D03*
X0083961Y0054285D03*
D18*
X0131472Y0022301D02*
X0131472Y0019545D01*
X0128716Y0019545D01*
X0128716Y0022301D01*
X0131472Y0022301D01*
X0131472Y0020725D02*
X0128716Y0020725D01*
X0128716Y0021905D02*
X0131472Y0021905D01*
X0138378Y0022301D02*
X0138378Y0019545D01*
X0135622Y0019545D01*
X0135622Y0022301D01*
X0138378Y0022301D01*
X0138378Y0020725D02*
X0135622Y0020725D01*
X0135622Y0021905D02*
X0138378Y0021905D01*
D19*
X0107484Y0121336D03*
X0107484Y0125273D03*
X0107484Y0129210D03*
X0107484Y0133147D03*
X0107484Y0137084D03*
X0107484Y0141021D03*
X0107484Y0144958D03*
X0107484Y0148895D03*
X0107484Y0152832D03*
X0107484Y0156769D03*
X0107484Y0160706D03*
X0107484Y0164643D03*
X0107484Y0168580D03*
X0107484Y0172517D03*
X0107484Y0176454D03*
X0107484Y0180391D03*
X0107484Y0184328D03*
X0012996Y0184328D03*
X0012996Y0180391D03*
X0012996Y0176454D03*
X0012996Y0172517D03*
X0012996Y0168580D03*
X0012996Y0164643D03*
X0012996Y0160706D03*
X0012996Y0156769D03*
X0012996Y0152832D03*
X0012996Y0148895D03*
X0012996Y0144958D03*
X0012996Y0141021D03*
X0012996Y0137084D03*
X0012996Y0133147D03*
X0012996Y0129210D03*
X0012996Y0125273D03*
X0012996Y0121336D03*
D20*
X0028744Y0105588D03*
X0032681Y0105588D03*
X0036618Y0105588D03*
X0040555Y0105588D03*
X0044492Y0105588D03*
X0048429Y0105588D03*
X0052366Y0105588D03*
X0056303Y0105588D03*
X0060240Y0105588D03*
X0064177Y0105588D03*
X0068114Y0105588D03*
X0072051Y0105588D03*
X0075988Y0105588D03*
X0079925Y0105588D03*
X0083862Y0105588D03*
X0087799Y0105588D03*
X0091736Y0105588D03*
X0091736Y0200076D03*
X0087799Y0200076D03*
X0083862Y0200076D03*
X0079925Y0200076D03*
X0075988Y0200076D03*
X0072051Y0200076D03*
X0068114Y0200076D03*
X0064177Y0200076D03*
X0060240Y0200076D03*
X0056303Y0200076D03*
X0052366Y0200076D03*
X0048429Y0200076D03*
X0044492Y0200076D03*
X0040555Y0200076D03*
X0036618Y0200076D03*
X0032681Y0200076D03*
X0028744Y0200076D03*
D21*
X0062070Y0041612D03*
X0062070Y0034132D03*
X0072307Y0034132D03*
X0072307Y0037872D03*
X0072307Y0041612D03*
D22*
X0159551Y0168438D03*
D23*
X0074984Y0088399D02*
X0067484Y0088399D01*
X0067484Y0089899D01*
X0074984Y0089899D01*
X0074984Y0088399D01*
X0074984Y0089898D02*
X0067484Y0089898D01*
X0067484Y0077399D02*
X0074984Y0077399D01*
X0067484Y0077399D02*
X0067484Y0078899D01*
X0074984Y0078899D01*
X0074984Y0077399D01*
X0074984Y0078898D02*
X0067484Y0078898D01*
D24*
X0066234Y0084649D02*
X0064234Y0084649D01*
X0066234Y0084649D02*
X0066234Y0082649D01*
X0064234Y0082649D01*
X0064234Y0084649D01*
X0064234Y0084648D02*
X0066234Y0084648D01*
X0076234Y0084649D02*
X0078234Y0084649D01*
X0078234Y0082649D01*
X0076234Y0082649D01*
X0076234Y0084649D01*
X0076234Y0084648D02*
X0078234Y0084648D01*
D25*
X0012720Y0054624D03*
X0012720Y0019584D03*
D26*
X0035949Y0019584D03*
X0035949Y0054624D03*
D27*
X0036343Y0043403D03*
X0036343Y0040254D03*
X0036343Y0037104D03*
X0036343Y0033954D03*
X0036343Y0030805D03*
D28*
X0022759Y0028443D02*
X0022761Y0028527D01*
X0022767Y0028610D01*
X0022777Y0028693D01*
X0022791Y0028776D01*
X0022808Y0028858D01*
X0022830Y0028939D01*
X0022855Y0029018D01*
X0022884Y0029097D01*
X0022917Y0029174D01*
X0022953Y0029249D01*
X0022993Y0029323D01*
X0023036Y0029395D01*
X0023083Y0029464D01*
X0023133Y0029531D01*
X0023186Y0029596D01*
X0023242Y0029658D01*
X0023300Y0029718D01*
X0023362Y0029775D01*
X0023426Y0029828D01*
X0023493Y0029879D01*
X0023562Y0029926D01*
X0023633Y0029971D01*
X0023706Y0030011D01*
X0023781Y0030048D01*
X0023858Y0030082D01*
X0023936Y0030112D01*
X0024015Y0030138D01*
X0024096Y0030161D01*
X0024178Y0030179D01*
X0024260Y0030194D01*
X0024343Y0030205D01*
X0024426Y0030212D01*
X0024510Y0030215D01*
X0024594Y0030214D01*
X0024677Y0030209D01*
X0024761Y0030200D01*
X0024843Y0030187D01*
X0024925Y0030171D01*
X0025006Y0030150D01*
X0025087Y0030126D01*
X0025165Y0030098D01*
X0025243Y0030066D01*
X0025319Y0030030D01*
X0025393Y0029991D01*
X0025465Y0029949D01*
X0025535Y0029903D01*
X0025603Y0029854D01*
X0025668Y0029802D01*
X0025731Y0029747D01*
X0025791Y0029689D01*
X0025849Y0029628D01*
X0025903Y0029564D01*
X0025955Y0029498D01*
X0026003Y0029430D01*
X0026048Y0029359D01*
X0026089Y0029286D01*
X0026128Y0029212D01*
X0026162Y0029136D01*
X0026193Y0029058D01*
X0026220Y0028979D01*
X0026244Y0028898D01*
X0026263Y0028817D01*
X0026279Y0028735D01*
X0026291Y0028652D01*
X0026299Y0028568D01*
X0026303Y0028485D01*
X0026303Y0028401D01*
X0026299Y0028318D01*
X0026291Y0028234D01*
X0026279Y0028151D01*
X0026263Y0028069D01*
X0026244Y0027988D01*
X0026220Y0027907D01*
X0026193Y0027828D01*
X0026162Y0027750D01*
X0026128Y0027674D01*
X0026089Y0027600D01*
X0026048Y0027527D01*
X0026003Y0027456D01*
X0025955Y0027388D01*
X0025903Y0027322D01*
X0025849Y0027258D01*
X0025791Y0027197D01*
X0025731Y0027139D01*
X0025668Y0027084D01*
X0025603Y0027032D01*
X0025535Y0026983D01*
X0025465Y0026937D01*
X0025393Y0026895D01*
X0025319Y0026856D01*
X0025243Y0026820D01*
X0025165Y0026788D01*
X0025087Y0026760D01*
X0025006Y0026736D01*
X0024925Y0026715D01*
X0024843Y0026699D01*
X0024761Y0026686D01*
X0024677Y0026677D01*
X0024594Y0026672D01*
X0024510Y0026671D01*
X0024426Y0026674D01*
X0024343Y0026681D01*
X0024260Y0026692D01*
X0024178Y0026707D01*
X0024096Y0026725D01*
X0024015Y0026748D01*
X0023936Y0026774D01*
X0023858Y0026804D01*
X0023781Y0026838D01*
X0023706Y0026875D01*
X0023633Y0026915D01*
X0023562Y0026960D01*
X0023493Y0027007D01*
X0023426Y0027058D01*
X0023362Y0027111D01*
X0023300Y0027168D01*
X0023242Y0027228D01*
X0023186Y0027290D01*
X0023133Y0027355D01*
X0023083Y0027422D01*
X0023036Y0027491D01*
X0022993Y0027563D01*
X0022953Y0027637D01*
X0022917Y0027712D01*
X0022884Y0027789D01*
X0022855Y0027868D01*
X0022830Y0027947D01*
X0022808Y0028028D01*
X0022791Y0028110D01*
X0022777Y0028193D01*
X0022767Y0028276D01*
X0022761Y0028359D01*
X0022759Y0028443D01*
X0022759Y0045765D02*
X0022761Y0045849D01*
X0022767Y0045932D01*
X0022777Y0046015D01*
X0022791Y0046098D01*
X0022808Y0046180D01*
X0022830Y0046261D01*
X0022855Y0046340D01*
X0022884Y0046419D01*
X0022917Y0046496D01*
X0022953Y0046571D01*
X0022993Y0046645D01*
X0023036Y0046717D01*
X0023083Y0046786D01*
X0023133Y0046853D01*
X0023186Y0046918D01*
X0023242Y0046980D01*
X0023300Y0047040D01*
X0023362Y0047097D01*
X0023426Y0047150D01*
X0023493Y0047201D01*
X0023562Y0047248D01*
X0023633Y0047293D01*
X0023706Y0047333D01*
X0023781Y0047370D01*
X0023858Y0047404D01*
X0023936Y0047434D01*
X0024015Y0047460D01*
X0024096Y0047483D01*
X0024178Y0047501D01*
X0024260Y0047516D01*
X0024343Y0047527D01*
X0024426Y0047534D01*
X0024510Y0047537D01*
X0024594Y0047536D01*
X0024677Y0047531D01*
X0024761Y0047522D01*
X0024843Y0047509D01*
X0024925Y0047493D01*
X0025006Y0047472D01*
X0025087Y0047448D01*
X0025165Y0047420D01*
X0025243Y0047388D01*
X0025319Y0047352D01*
X0025393Y0047313D01*
X0025465Y0047271D01*
X0025535Y0047225D01*
X0025603Y0047176D01*
X0025668Y0047124D01*
X0025731Y0047069D01*
X0025791Y0047011D01*
X0025849Y0046950D01*
X0025903Y0046886D01*
X0025955Y0046820D01*
X0026003Y0046752D01*
X0026048Y0046681D01*
X0026089Y0046608D01*
X0026128Y0046534D01*
X0026162Y0046458D01*
X0026193Y0046380D01*
X0026220Y0046301D01*
X0026244Y0046220D01*
X0026263Y0046139D01*
X0026279Y0046057D01*
X0026291Y0045974D01*
X0026299Y0045890D01*
X0026303Y0045807D01*
X0026303Y0045723D01*
X0026299Y0045640D01*
X0026291Y0045556D01*
X0026279Y0045473D01*
X0026263Y0045391D01*
X0026244Y0045310D01*
X0026220Y0045229D01*
X0026193Y0045150D01*
X0026162Y0045072D01*
X0026128Y0044996D01*
X0026089Y0044922D01*
X0026048Y0044849D01*
X0026003Y0044778D01*
X0025955Y0044710D01*
X0025903Y0044644D01*
X0025849Y0044580D01*
X0025791Y0044519D01*
X0025731Y0044461D01*
X0025668Y0044406D01*
X0025603Y0044354D01*
X0025535Y0044305D01*
X0025465Y0044259D01*
X0025393Y0044217D01*
X0025319Y0044178D01*
X0025243Y0044142D01*
X0025165Y0044110D01*
X0025087Y0044082D01*
X0025006Y0044058D01*
X0024925Y0044037D01*
X0024843Y0044021D01*
X0024761Y0044008D01*
X0024677Y0043999D01*
X0024594Y0043994D01*
X0024510Y0043993D01*
X0024426Y0043996D01*
X0024343Y0044003D01*
X0024260Y0044014D01*
X0024178Y0044029D01*
X0024096Y0044047D01*
X0024015Y0044070D01*
X0023936Y0044096D01*
X0023858Y0044126D01*
X0023781Y0044160D01*
X0023706Y0044197D01*
X0023633Y0044237D01*
X0023562Y0044282D01*
X0023493Y0044329D01*
X0023426Y0044380D01*
X0023362Y0044433D01*
X0023300Y0044490D01*
X0023242Y0044550D01*
X0023186Y0044612D01*
X0023133Y0044677D01*
X0023083Y0044744D01*
X0023036Y0044813D01*
X0022993Y0044885D01*
X0022953Y0044959D01*
X0022917Y0045034D01*
X0022884Y0045111D01*
X0022855Y0045190D01*
X0022830Y0045269D01*
X0022808Y0045350D01*
X0022791Y0045432D01*
X0022777Y0045515D01*
X0022767Y0045598D01*
X0022761Y0045681D01*
X0022759Y0045765D01*
D29*
X0086633Y0038091D03*
X0086633Y0020291D03*
X0112233Y0020291D03*
X0112233Y0038091D03*
D30*
X0160896Y0110836D03*
X0160896Y0117529D03*
X0189287Y0107897D03*
X0189287Y0101204D03*
D31*
X0112519Y0075883D03*
X0112519Y0060922D03*
X0095545Y0047252D03*
X0095545Y0032291D03*
D32*
X0170201Y0101139D03*
X0179256Y0101139D03*
X0179256Y0115706D03*
X0170201Y0115706D03*
D33*
X0110752Y0092183D03*
X0100909Y0092183D03*
X0147401Y0020775D03*
X0157342Y0021287D03*
X0167593Y0021267D03*
X0177903Y0021553D03*
X0188405Y0021376D03*
D34*
X0013803Y0067084D03*
X0013311Y0089230D03*
D35*
X0118035Y0108718D03*
X0120594Y0115017D03*
X0123154Y0108718D03*
D36*
X0126697Y0178206D03*
X0126697Y0183325D03*
X0120398Y0180765D03*
D37*
X0120398Y0180391D01*
X0107484Y0180391D01*
X0107434Y0184278D02*
X0102084Y0184278D01*
X0102084Y0182818D01*
X0102122Y0182675D01*
X0101884Y0182437D01*
X0101884Y0131000D01*
X0100432Y0131000D01*
X0099550Y0130635D01*
X0098875Y0129960D01*
X0097891Y0128975D01*
X0097525Y0128093D01*
X0097525Y0118280D01*
X0097891Y0117398D01*
X0098566Y0116723D01*
X0120128Y0095161D01*
X0119301Y0095161D01*
X0118894Y0095052D01*
X0118529Y0094841D01*
X0118231Y0094543D01*
X0118021Y0094178D01*
X0117912Y0093771D01*
X0117912Y0091602D01*
X0121865Y0091602D01*
X0121865Y0090402D01*
X0117912Y0090402D01*
X0117912Y0088232D01*
X0118021Y0087825D01*
X0118231Y0087460D01*
X0118289Y0087403D01*
X0117712Y0086826D01*
X0117712Y0084188D01*
X0116639Y0085261D01*
X0115757Y0085626D01*
X0114797Y0085626D01*
X0113152Y0087271D01*
X0113152Y0087795D01*
X0115552Y0090195D01*
X0115552Y0094171D01*
X0112740Y0096983D01*
X0108764Y0096983D01*
X0105952Y0094171D01*
X0105952Y0090534D01*
X0105709Y0090777D01*
X0105709Y0094171D01*
X0102898Y0096983D01*
X0098921Y0096983D01*
X0096109Y0094171D01*
X0096109Y0090534D01*
X0086655Y0099988D01*
X0093782Y0099988D01*
X0094836Y0101043D01*
X0094836Y0110134D01*
X0093782Y0111188D01*
X0081817Y0111188D01*
X0081578Y0110950D01*
X0081436Y0110988D01*
X0079975Y0110988D01*
X0079975Y0105638D01*
X0079875Y0105638D01*
X0079875Y0105538D01*
X0079975Y0105538D01*
X0079975Y0100188D01*
X0081436Y0100188D01*
X0081462Y0100195D01*
X0081462Y0098910D01*
X0081828Y0098028D01*
X0098509Y0081346D01*
X0098509Y0080683D01*
X0099025Y0079439D01*
X0099568Y0078895D01*
X0099025Y0078352D01*
X0098509Y0077108D01*
X0098509Y0075762D01*
X0099025Y0074518D01*
X0099934Y0073609D01*
X0098510Y0073609D01*
X0097456Y0072554D01*
X0097456Y0071782D01*
X0096528Y0071800D01*
X0096528Y0072594D01*
X0095474Y0073648D01*
X0088077Y0073648D01*
X0087023Y0072594D01*
X0087023Y0071803D01*
X0080980Y0071692D01*
X0080487Y0071692D01*
X0080464Y0071683D01*
X0080439Y0071682D01*
X0079987Y0071485D01*
X0079531Y0071296D01*
X0079514Y0071279D01*
X0079491Y0071269D01*
X0079148Y0070914D01*
X0076966Y0068731D01*
X0074554Y0068731D01*
X0073499Y0067676D01*
X0073499Y0061461D01*
X0074554Y0060406D01*
X0078407Y0060406D01*
X0079461Y0061461D01*
X0079461Y0063873D01*
X0080980Y0065391D01*
X0080980Y0061461D01*
X0082034Y0060406D01*
X0084446Y0060406D01*
X0084651Y0060202D01*
X0084969Y0059858D01*
X0085015Y0059837D01*
X0085051Y0059801D01*
X0085484Y0059622D01*
X0085909Y0059427D01*
X0085960Y0059425D01*
X0086006Y0059406D01*
X0086475Y0059406D01*
X0087023Y0059385D01*
X0087023Y0058504D01*
X0087436Y0058091D01*
X0087436Y0054204D01*
X0086942Y0054698D01*
X0086942Y0057393D01*
X0085887Y0058447D01*
X0082034Y0058447D01*
X0081787Y0058200D01*
X0081612Y0058247D01*
X0080221Y0058247D01*
X0080221Y0054285D01*
X0080221Y0050323D01*
X0081612Y0050323D01*
X0081787Y0050370D01*
X0082034Y0050123D01*
X0084729Y0050123D01*
X0089635Y0045217D01*
X0090517Y0044852D01*
X0090989Y0044852D01*
X0090989Y0043750D01*
X0092044Y0042696D01*
X0099047Y0042696D01*
X0100101Y0043750D01*
X0100101Y0044652D01*
X0112161Y0044652D01*
X0112644Y0044852D01*
X0113449Y0044852D01*
X0114750Y0043551D01*
X0114750Y0043001D01*
X0113327Y0043591D01*
X0111139Y0043591D01*
X0109118Y0042753D01*
X0107570Y0041206D01*
X0107357Y0040691D01*
X0091509Y0040691D01*
X0091296Y0041206D01*
X0089749Y0042753D01*
X0087727Y0043591D01*
X0085539Y0043591D01*
X0083518Y0042753D01*
X0082349Y0041585D01*
X0080476Y0043459D01*
X0079744Y0044190D01*
X0078789Y0044586D01*
X0075707Y0044586D01*
X0075707Y0047642D01*
X0075190Y0048892D01*
X0073196Y0050885D01*
X0073791Y0050885D01*
X0074554Y0050123D01*
X0078407Y0050123D01*
X0078654Y0050370D01*
X0078829Y0050323D01*
X0080220Y0050323D01*
X0080220Y0054285D01*
X0080221Y0054285D01*
X0080220Y0054285D01*
X0080220Y0058247D01*
X0078829Y0058247D01*
X0078654Y0058200D01*
X0078407Y0058447D01*
X0074554Y0058447D01*
X0073791Y0057685D01*
X0069422Y0057685D01*
X0069422Y0064031D01*
X0068845Y0064608D01*
X0068902Y0064665D01*
X0069113Y0065030D01*
X0069222Y0065437D01*
X0069222Y0067606D01*
X0065269Y0067606D01*
X0065269Y0068806D01*
X0069222Y0068806D01*
X0069222Y0070976D01*
X0069113Y0071383D01*
X0068902Y0071748D01*
X0068604Y0072046D01*
X0068240Y0072256D01*
X0067833Y0072365D01*
X0065269Y0072365D01*
X0065269Y0068806D01*
X0064069Y0068806D01*
X0064069Y0067606D01*
X0060117Y0067606D01*
X0060117Y0065437D01*
X0060226Y0065030D01*
X0060436Y0064665D01*
X0060493Y0064608D01*
X0059917Y0064031D01*
X0059917Y0059239D01*
X0059123Y0059239D01*
X0048697Y0069498D01*
X0048229Y0069967D01*
X0048216Y0069972D01*
X0048206Y0069982D01*
X0047592Y0070231D01*
X0046979Y0070484D01*
X0046965Y0070484D01*
X0046952Y0070490D01*
X0046290Y0070484D01*
X0041081Y0070484D01*
X0041359Y0070600D01*
X0042315Y0071556D01*
X0046418Y0075658D01*
X0054096Y0075658D01*
X0055150Y0076713D01*
X0055150Y0088046D01*
X0054096Y0089101D01*
X0052174Y0089101D01*
X0052204Y0093913D01*
X0052234Y0098525D01*
X0051829Y0099520D01*
X0051829Y0100188D01*
X0052316Y0100188D01*
X0052316Y0105538D01*
X0052416Y0105538D01*
X0052416Y0100188D01*
X0053877Y0100188D01*
X0054284Y0100297D01*
X0054335Y0100327D01*
X0054386Y0100297D01*
X0054792Y0100188D01*
X0056253Y0100188D01*
X0056253Y0105538D01*
X0056353Y0105538D01*
X0056353Y0100188D01*
X0057640Y0100188D01*
X0057640Y0088126D01*
X0058036Y0087171D01*
X0058767Y0086439D01*
X0061434Y0083772D01*
X0061434Y0082092D01*
X0061861Y0081063D01*
X0062648Y0080276D01*
X0063677Y0079849D01*
X0065334Y0079849D01*
X0065225Y0079585D01*
X0065134Y0079131D01*
X0065134Y0078299D01*
X0071084Y0078299D01*
X0071084Y0077999D01*
X0071384Y0077999D01*
X0071384Y0075049D01*
X0075216Y0075049D01*
X0075670Y0075140D01*
X0076097Y0075317D01*
X0076482Y0075574D01*
X0076810Y0075901D01*
X0077067Y0076286D01*
X0077244Y0076714D01*
X0077334Y0077168D01*
X0077334Y0077999D01*
X0071384Y0077999D01*
X0071384Y0078299D01*
X0071084Y0078299D01*
X0071084Y0081249D01*
X0068685Y0081249D01*
X0069034Y0082092D01*
X0069034Y0085206D01*
X0068685Y0086049D01*
X0071084Y0086049D01*
X0071084Y0088999D01*
X0071384Y0088999D01*
X0071384Y0086049D01*
X0074043Y0086049D01*
X0073930Y0085881D01*
X0073734Y0085408D01*
X0073634Y0084905D01*
X0073634Y0084049D01*
X0076834Y0084049D01*
X0076834Y0083249D01*
X0077634Y0083249D01*
X0077634Y0080049D01*
X0078490Y0080049D01*
X0078993Y0080149D01*
X0079466Y0080345D01*
X0079892Y0080630D01*
X0080254Y0080992D01*
X0080538Y0081418D01*
X0080734Y0081891D01*
X0080834Y0082393D01*
X0080834Y0083249D01*
X0077634Y0083249D01*
X0077634Y0084049D01*
X0076834Y0084049D01*
X0076834Y0086938D01*
X0077067Y0087286D01*
X0077244Y0087714D01*
X0077334Y0088168D01*
X0077334Y0088999D01*
X0071384Y0088999D01*
X0071384Y0089299D01*
X0071084Y0089299D01*
X0071084Y0088999D01*
X0065134Y0088999D01*
X0065134Y0088168D01*
X0065225Y0087714D01*
X0065334Y0087449D01*
X0065111Y0087449D01*
X0062840Y0089720D01*
X0062840Y0100188D01*
X0064127Y0100188D01*
X0064127Y0105538D01*
X0064227Y0105538D01*
X0064227Y0100188D01*
X0065688Y0100188D01*
X0066095Y0100297D01*
X0066146Y0100327D01*
X0066197Y0100297D01*
X0066604Y0100188D01*
X0068064Y0100188D01*
X0068064Y0105538D01*
X0068164Y0105538D01*
X0068164Y0100188D01*
X0069625Y0100188D01*
X0070032Y0100297D01*
X0070083Y0100327D01*
X0070134Y0100297D01*
X0070541Y0100188D01*
X0072001Y0100188D01*
X0072001Y0105538D01*
X0072101Y0105538D01*
X0072101Y0100188D01*
X0073562Y0100188D01*
X0073969Y0100297D01*
X0074020Y0100327D01*
X0074071Y0100297D01*
X0074478Y0100188D01*
X0075938Y0100188D01*
X0075938Y0105538D01*
X0076038Y0105538D01*
X0076038Y0100188D01*
X0077499Y0100188D01*
X0077906Y0100297D01*
X0077957Y0100327D01*
X0078008Y0100297D01*
X0078415Y0100188D01*
X0079875Y0100188D01*
X0079875Y0105538D01*
X0077025Y0105538D01*
X0076038Y0105538D01*
X0076038Y0105638D01*
X0079875Y0105638D01*
X0079875Y0110988D01*
X0078415Y0110988D01*
X0078008Y0110879D01*
X0077957Y0110850D01*
X0077906Y0110879D01*
X0077499Y0110988D01*
X0076038Y0110988D01*
X0076038Y0105638D01*
X0075938Y0105638D01*
X0075938Y0105538D01*
X0073088Y0105538D01*
X0072101Y0105538D01*
X0072101Y0105638D01*
X0075938Y0105638D01*
X0075938Y0110988D01*
X0074478Y0110988D01*
X0074071Y0110879D01*
X0074020Y0110850D01*
X0073969Y0110879D01*
X0073562Y0110988D01*
X0072101Y0110988D01*
X0072101Y0105638D01*
X0072001Y0105638D01*
X0072001Y0105538D01*
X0069151Y0105538D01*
X0068164Y0105538D01*
X0068164Y0105638D01*
X0072001Y0105638D01*
X0072001Y0110988D01*
X0070541Y0110988D01*
X0070134Y0110879D01*
X0070083Y0110850D01*
X0070032Y0110879D01*
X0069625Y0110988D01*
X0068164Y0110988D01*
X0068164Y0105638D01*
X0068064Y0105638D01*
X0068064Y0105538D01*
X0065214Y0105538D01*
X0064227Y0105538D01*
X0064227Y0105638D01*
X0068064Y0105638D01*
X0068064Y0110988D01*
X0066604Y0110988D01*
X0066197Y0110879D01*
X0066146Y0110850D01*
X0066095Y0110879D01*
X0065688Y0110988D01*
X0064227Y0110988D01*
X0064227Y0105638D01*
X0064127Y0105638D01*
X0064127Y0110988D01*
X0062667Y0110988D01*
X0062524Y0110950D01*
X0062286Y0111188D01*
X0058195Y0111188D01*
X0057956Y0110950D01*
X0057814Y0110988D01*
X0056353Y0110988D01*
X0056353Y0105638D01*
X0056253Y0105638D01*
X0056253Y0105538D01*
X0053403Y0105538D01*
X0052416Y0105538D01*
X0052416Y0105638D01*
X0056253Y0105638D01*
X0056253Y0110988D01*
X0054792Y0110988D01*
X0054386Y0110879D01*
X0054335Y0110850D01*
X0054284Y0110879D01*
X0053877Y0110988D01*
X0052416Y0110988D01*
X0052416Y0105638D01*
X0052316Y0105638D01*
X0052316Y0110988D01*
X0050855Y0110988D01*
X0050713Y0110950D01*
X0050475Y0111188D01*
X0038510Y0111188D01*
X0038271Y0110950D01*
X0038129Y0110988D01*
X0036668Y0110988D01*
X0036668Y0105638D01*
X0036568Y0105638D01*
X0036568Y0105538D01*
X0036668Y0105538D01*
X0036668Y0100188D01*
X0038129Y0100188D01*
X0038271Y0100226D01*
X0038510Y0099988D01*
X0045029Y0099988D01*
X0045029Y0099510D01*
X0044634Y0098573D01*
X0044627Y0097521D01*
X0044470Y0097679D01*
X0037861Y0097679D01*
X0037284Y0097102D01*
X0037227Y0097159D01*
X0036862Y0097370D01*
X0036455Y0097479D01*
X0034285Y0097479D01*
X0034285Y0093526D01*
X0033085Y0093526D01*
X0033085Y0097479D01*
X0030915Y0097479D01*
X0030508Y0097370D01*
X0030144Y0097159D01*
X0029846Y0096861D01*
X0029635Y0096496D01*
X0029526Y0096089D01*
X0029526Y0093526D01*
X0033085Y0093526D01*
X0033085Y0092326D01*
X0029526Y0092326D01*
X0029526Y0089762D01*
X0029635Y0089356D01*
X0029846Y0088991D01*
X0029936Y0088901D01*
X0029049Y0088901D01*
X0029049Y0082980D01*
X0027849Y0082980D01*
X0027849Y0088901D01*
X0023218Y0088901D01*
X0022812Y0088792D01*
X0022447Y0088581D01*
X0022149Y0088283D01*
X0021938Y0087918D01*
X0021829Y0087512D01*
X0021829Y0082980D01*
X0027849Y0082980D01*
X0027849Y0081780D01*
X0021829Y0081780D01*
X0021829Y0077248D01*
X0021927Y0076882D01*
X0019524Y0076882D01*
X0018275Y0076364D01*
X0013295Y0071384D01*
X0008058Y0071384D01*
X0007003Y0070330D01*
X0007003Y0063839D01*
X0008058Y0062784D01*
X0019549Y0062784D01*
X0020449Y0063684D01*
X0044911Y0063684D01*
X0049954Y0058721D01*
X0049954Y0055637D01*
X0048754Y0055637D01*
X0048754Y0054437D01*
X0044802Y0054437D01*
X0044802Y0052267D01*
X0044911Y0051860D01*
X0045121Y0051496D01*
X0045179Y0051438D01*
X0044602Y0050861D01*
X0044602Y0046003D01*
X0043375Y0046003D01*
X0043190Y0046187D01*
X0029495Y0046187D01*
X0028440Y0045133D01*
X0028440Y0032225D01*
X0028645Y0032019D01*
X0028640Y0032000D01*
X0028640Y0030805D01*
X0036342Y0030805D01*
X0036342Y0030805D01*
X0028640Y0030805D01*
X0028640Y0029610D01*
X0028749Y0029203D01*
X0028960Y0028838D01*
X0029258Y0028540D01*
X0029623Y0028330D01*
X0030030Y0028221D01*
X0036342Y0028221D01*
X0036342Y0030805D01*
X0036343Y0030805D01*
X0044045Y0030805D01*
X0044045Y0032000D01*
X0044040Y0032019D01*
X0044245Y0032225D01*
X0044245Y0040803D01*
X0044281Y0040803D01*
X0045556Y0039529D01*
X0046287Y0038798D01*
X0047243Y0038402D01*
X0047471Y0038402D01*
X0047471Y0033637D01*
X0047906Y0033201D01*
X0047471Y0032766D01*
X0047471Y0026157D01*
X0048525Y0025102D01*
X0049277Y0025102D01*
X0049277Y0021063D01*
X0049909Y0020431D01*
X0049277Y0019798D01*
X0049277Y0015158D01*
X0049676Y0014758D01*
X0044101Y0014758D01*
X0044245Y0014902D01*
X0044245Y0024267D01*
X0043190Y0025321D01*
X0028707Y0025321D01*
X0027653Y0024267D01*
X0027653Y0014902D01*
X0027796Y0014758D01*
X0019298Y0014758D01*
X0019442Y0014902D01*
X0019442Y0024267D01*
X0018387Y0025321D01*
X0007054Y0025321D01*
X0005999Y0024267D01*
X0005999Y0014902D01*
X0006143Y0014758D01*
X0003800Y0014758D01*
X0003800Y0207009D01*
X0024146Y0207009D01*
X0022983Y0205966D01*
X0022921Y0205940D01*
X0022629Y0205648D01*
X0022322Y0205373D01*
X0022293Y0205312D01*
X0022246Y0205265D01*
X0022088Y0204884D01*
X0021910Y0204512D01*
X0021906Y0204445D01*
X0021881Y0204383D01*
X0021881Y0203970D01*
X0021858Y0203558D01*
X0021881Y0203495D01*
X0021881Y0187157D01*
X0021857Y0187157D01*
X0020803Y0186102D01*
X0020803Y0181049D01*
X0021857Y0179994D01*
X0026911Y0179994D01*
X0027965Y0181049D01*
X0027965Y0186102D01*
X0026911Y0187157D01*
X0026680Y0187157D01*
X0026680Y0194494D01*
X0026698Y0194476D01*
X0030355Y0194476D01*
X0030355Y0191709D01*
X0030228Y0191709D01*
X0029174Y0190654D01*
X0029174Y0185601D01*
X0030228Y0184547D01*
X0034381Y0184547D01*
X0034381Y0183836D01*
X0034746Y0182954D01*
X0035421Y0182279D01*
X0038915Y0178785D01*
X0039797Y0178420D01*
X0040936Y0178420D01*
X0040936Y0178293D01*
X0041990Y0177238D01*
X0047043Y0177238D01*
X0048098Y0178293D01*
X0048098Y0183346D01*
X0047043Y0184401D01*
X0041990Y0184401D01*
X0041039Y0183449D01*
X0039180Y0185308D01*
X0039180Y0185541D01*
X0043092Y0185541D01*
X0044146Y0186595D01*
X0044146Y0191648D01*
X0043092Y0192703D01*
X0042955Y0192703D01*
X0042955Y0194476D01*
X0046538Y0194476D01*
X0046776Y0194715D01*
X0046918Y0194676D01*
X0048379Y0194676D01*
X0048379Y0200026D01*
X0048479Y0200026D01*
X0048479Y0194676D01*
X0049940Y0194676D01*
X0050082Y0194715D01*
X0050321Y0194476D01*
X0089845Y0194476D01*
X0090083Y0194715D01*
X0090226Y0194676D01*
X0091686Y0194676D01*
X0091686Y0200026D01*
X0091786Y0200026D01*
X0091786Y0194676D01*
X0093247Y0194676D01*
X0093654Y0194786D01*
X0094019Y0194996D01*
X0094317Y0195294D01*
X0094527Y0195659D01*
X0094636Y0196066D01*
X0094636Y0200026D01*
X0091786Y0200026D01*
X0091786Y0200126D01*
X0094636Y0200126D01*
X0094636Y0204087D01*
X0094527Y0204494D01*
X0094317Y0204859D01*
X0094019Y0205157D01*
X0093654Y0205367D01*
X0093247Y0205476D01*
X0091786Y0205476D01*
X0091786Y0200127D01*
X0091686Y0200127D01*
X0091686Y0205476D01*
X0090226Y0205476D01*
X0090083Y0205438D01*
X0089845Y0205676D01*
X0050321Y0205676D01*
X0050082Y0205438D01*
X0049940Y0205476D01*
X0048479Y0205476D01*
X0048479Y0200127D01*
X0048379Y0200127D01*
X0048379Y0205476D01*
X0046918Y0205476D01*
X0046776Y0205438D01*
X0046710Y0205504D01*
X0046710Y0206400D01*
X0046458Y0207009D01*
X0197035Y0207009D01*
X0197035Y0014758D01*
X0055627Y0014758D01*
X0056026Y0015158D01*
X0056026Y0018456D01*
X0057282Y0019712D01*
X0057282Y0017819D01*
X0057391Y0017412D01*
X0057602Y0017047D01*
X0057899Y0016749D01*
X0058264Y0016538D01*
X0058671Y0016429D01*
X0061235Y0016429D01*
X0061235Y0019988D01*
X0062435Y0019988D01*
X0062435Y0021188D01*
X0066387Y0021188D01*
X0066387Y0021969D01*
X0071350Y0021969D01*
X0073319Y0023938D01*
X0074666Y0025285D01*
X0074666Y0031249D01*
X0075415Y0031249D01*
X0076470Y0032303D01*
X0076470Y0035960D01*
X0076181Y0036248D01*
X0076270Y0036578D01*
X0076270Y0037872D01*
X0076270Y0039165D01*
X0076210Y0039386D01*
X0077195Y0039386D01*
X0077640Y0038940D01*
X0077640Y0035563D01*
X0078036Y0034608D01*
X0078767Y0033876D01*
X0084033Y0028611D01*
X0084033Y0025167D01*
X0083518Y0024953D01*
X0081970Y0023406D01*
X0081133Y0021385D01*
X0081133Y0019197D01*
X0081970Y0017175D01*
X0083518Y0015628D01*
X0085539Y0014791D01*
X0087727Y0014791D01*
X0089749Y0015628D01*
X0091296Y0017175D01*
X0091344Y0017291D01*
X0107523Y0017291D01*
X0107570Y0017175D01*
X0109118Y0015628D01*
X0111139Y0014791D01*
X0113327Y0014791D01*
X0115349Y0015628D01*
X0116896Y0017175D01*
X0117733Y0019197D01*
X0117733Y0021385D01*
X0116896Y0023406D01*
X0115349Y0024953D01*
X0113327Y0025791D01*
X0111139Y0025791D01*
X0109118Y0024953D01*
X0107570Y0023406D01*
X0107523Y0023291D01*
X0091344Y0023291D01*
X0091296Y0023406D01*
X0089749Y0024953D01*
X0089233Y0025167D01*
X0089233Y0030205D01*
X0088837Y0031160D01*
X0087407Y0032591D01*
X0087727Y0032591D01*
X0088243Y0032804D01*
X0090960Y0030087D01*
X0090989Y0030075D01*
X0090989Y0028790D01*
X0092044Y0027735D01*
X0099047Y0027735D01*
X0100101Y0028790D01*
X0100101Y0035491D01*
X0107357Y0035491D01*
X0107570Y0034975D01*
X0109118Y0033428D01*
X0111139Y0032591D01*
X0113327Y0032591D01*
X0115349Y0033428D01*
X0116826Y0034905D01*
X0116826Y0031890D01*
X0117403Y0031313D01*
X0117346Y0031256D01*
X0117135Y0030891D01*
X0117026Y0030484D01*
X0117026Y0028314D01*
X0120979Y0028314D01*
X0120979Y0027114D01*
X0122179Y0027114D01*
X0122179Y0028314D01*
X0124703Y0028314D01*
X0124703Y0028216D01*
X0128656Y0028216D01*
X0128656Y0027016D01*
X0126131Y0027016D01*
X0126131Y0027114D01*
X0122179Y0027114D01*
X0122179Y0023555D01*
X0124742Y0023555D01*
X0125149Y0023664D01*
X0125332Y0023770D01*
X0125686Y0023566D01*
X0126092Y0023457D01*
X0126854Y0023457D01*
X0126675Y0023146D01*
X0126526Y0022589D01*
X0126526Y0021307D01*
X0129710Y0021307D01*
X0129710Y0020539D01*
X0126526Y0020539D01*
X0126526Y0019257D01*
X0126675Y0018699D01*
X0126964Y0018200D01*
X0127372Y0017792D01*
X0127871Y0017504D01*
X0128428Y0017354D01*
X0129710Y0017354D01*
X0129710Y0020539D01*
X0130479Y0020539D01*
X0130479Y0017354D01*
X0131761Y0017354D01*
X0132318Y0017504D01*
X0132817Y0017792D01*
X0133225Y0018200D01*
X0133439Y0018569D01*
X0133595Y0018191D01*
X0134268Y0017518D01*
X0135147Y0017154D01*
X0138853Y0017154D01*
X0139732Y0017518D01*
X0140405Y0018191D01*
X0140768Y0019069D01*
X0140768Y0022776D01*
X0140405Y0023655D01*
X0139936Y0024123D01*
X0139925Y0024625D01*
X0140720Y0024625D01*
X0141155Y0025060D01*
X0141591Y0024625D01*
X0144462Y0024625D01*
X0142601Y0022764D01*
X0142601Y0018787D01*
X0145412Y0015975D01*
X0149389Y0015975D01*
X0152201Y0018787D01*
X0152201Y0022764D01*
X0149389Y0025575D01*
X0149151Y0025575D01*
X0149255Y0025679D01*
X0149255Y0030462D01*
X0150952Y0032237D01*
X0151271Y0032556D01*
X0151281Y0032581D01*
X0151300Y0032601D01*
X0151464Y0033021D01*
X0151636Y0033438D01*
X0151636Y0033465D01*
X0151646Y0033491D01*
X0151636Y0033942D01*
X0151636Y0038442D01*
X0164161Y0038442D01*
X0164161Y0037779D01*
X0163320Y0037779D01*
X0163320Y0033826D01*
X0162120Y0033826D01*
X0162120Y0032626D01*
X0158561Y0032626D01*
X0158561Y0030063D01*
X0158670Y0029656D01*
X0158881Y0029291D01*
X0159179Y0028993D01*
X0159544Y0028782D01*
X0159951Y0028673D01*
X0162120Y0028673D01*
X0162120Y0032626D01*
X0163320Y0032626D01*
X0163320Y0029451D01*
X0159643Y0025774D01*
X0159330Y0026087D01*
X0155353Y0026087D01*
X0152542Y0023275D01*
X0152542Y0019299D01*
X0155353Y0016487D01*
X0159330Y0016487D01*
X0162142Y0019299D01*
X0162142Y0021766D01*
X0162793Y0022418D01*
X0162793Y0019279D01*
X0165604Y0016467D01*
X0169581Y0016467D01*
X0172393Y0019279D01*
X0172393Y0023150D01*
X0172394Y0023152D01*
X0172394Y0023178D01*
X0172404Y0023201D01*
X0172404Y0023654D01*
X0172503Y0028473D01*
X0173505Y0028473D01*
X0174560Y0029528D01*
X0174560Y0036924D01*
X0173505Y0037979D01*
X0173290Y0037979D01*
X0173290Y0038964D01*
X0173349Y0039107D01*
X0173349Y0039686D01*
X0176364Y0039686D01*
X0176364Y0026353D01*
X0175914Y0026353D01*
X0173103Y0023541D01*
X0173103Y0019565D01*
X0175914Y0016753D01*
X0179891Y0016753D01*
X0182703Y0019565D01*
X0182703Y0023541D01*
X0181164Y0025080D01*
X0181164Y0039686D01*
X0181587Y0039686D01*
X0182934Y0041033D01*
X0182934Y0068421D01*
X0184039Y0067316D01*
X0183947Y0067225D01*
X0183947Y0060615D01*
X0184524Y0060038D01*
X0184467Y0059981D01*
X0184256Y0059616D01*
X0184147Y0059209D01*
X0184147Y0057040D01*
X0188100Y0057040D01*
X0188100Y0055840D01*
X0184147Y0055840D01*
X0184147Y0053670D01*
X0184256Y0053263D01*
X0184467Y0052898D01*
X0184765Y0052600D01*
X0185129Y0052390D01*
X0185536Y0052281D01*
X0188100Y0052281D01*
X0188100Y0055840D01*
X0189300Y0055840D01*
X0189300Y0057040D01*
X0193253Y0057040D01*
X0193253Y0059209D01*
X0193144Y0059616D01*
X0192933Y0059981D01*
X0192876Y0060038D01*
X0193453Y0060615D01*
X0193453Y0067225D01*
X0192398Y0068279D01*
X0189582Y0068279D01*
X0188204Y0069656D01*
X0188327Y0069606D01*
X0189673Y0069606D01*
X0190917Y0070121D01*
X0191869Y0071073D01*
X0192384Y0072317D01*
X0192384Y0073663D01*
X0191869Y0074907D01*
X0191260Y0075516D01*
X0192388Y0075516D01*
X0193443Y0076570D01*
X0193443Y0083179D01*
X0192866Y0083756D01*
X0192923Y0083814D01*
X0193134Y0084178D01*
X0193243Y0084585D01*
X0193243Y0086755D01*
X0189290Y0086755D01*
X0189290Y0087955D01*
X0193243Y0087955D01*
X0193243Y0090125D01*
X0193134Y0090532D01*
X0192923Y0090896D01*
X0192625Y0091194D01*
X0192260Y0091405D01*
X0191853Y0091514D01*
X0189290Y0091514D01*
X0189290Y0087955D01*
X0188090Y0087955D01*
X0188090Y0091514D01*
X0185527Y0091514D01*
X0185120Y0091405D01*
X0184755Y0091194D01*
X0184457Y0090896D01*
X0184246Y0090532D01*
X0184137Y0090125D01*
X0184137Y0087955D01*
X0188090Y0087955D01*
X0188090Y0086755D01*
X0184137Y0086755D01*
X0184137Y0084585D01*
X0184246Y0084178D01*
X0184457Y0083814D01*
X0184514Y0083756D01*
X0183937Y0083179D01*
X0183937Y0082369D01*
X0182934Y0082389D01*
X0182934Y0091167D01*
X0181587Y0092514D01*
X0176978Y0092514D01*
X0180063Y0095599D01*
X0182167Y0095599D01*
X0183221Y0096654D01*
X0183221Y0098739D01*
X0185519Y0098739D01*
X0185519Y0098293D01*
X0186573Y0097239D01*
X0192001Y0097239D01*
X0193056Y0098293D01*
X0193056Y0104115D01*
X0192479Y0104692D01*
X0192536Y0104750D01*
X0192747Y0105114D01*
X0192856Y0105521D01*
X0192856Y0107513D01*
X0189672Y0107513D01*
X0189672Y0108282D01*
X0188903Y0108282D01*
X0188903Y0111663D01*
X0187108Y0111663D01*
X0186701Y0111554D01*
X0186336Y0111343D01*
X0186039Y0111045D01*
X0185828Y0110680D01*
X0185719Y0110273D01*
X0185719Y0108282D01*
X0188903Y0108282D01*
X0188903Y0107513D01*
X0185719Y0107513D01*
X0185719Y0105521D01*
X0185828Y0105114D01*
X0186039Y0104750D01*
X0186096Y0104692D01*
X0185519Y0104115D01*
X0185519Y0103539D01*
X0183221Y0103539D01*
X0183221Y0105625D01*
X0182167Y0106680D01*
X0176345Y0106680D01*
X0175291Y0105625D01*
X0175291Y0097615D01*
X0173242Y0095567D01*
X0165863Y0095567D01*
X0165863Y0100615D01*
X0165427Y0101051D01*
X0165863Y0101486D01*
X0165863Y0106150D01*
X0169720Y0110007D01*
X0169723Y0110005D01*
X0170678Y0110005D01*
X0171067Y0110166D01*
X0173112Y0110166D01*
X0174166Y0111221D01*
X0174166Y0120192D01*
X0173112Y0121247D01*
X0167290Y0121247D01*
X0166235Y0120192D01*
X0166235Y0113310D01*
X0164664Y0111739D01*
X0164664Y0113747D01*
X0164087Y0114324D01*
X0164144Y0114381D01*
X0164355Y0114746D01*
X0164464Y0115153D01*
X0164464Y0117145D01*
X0161280Y0117145D01*
X0161280Y0117913D01*
X0164464Y0117913D01*
X0164464Y0119905D01*
X0164355Y0120312D01*
X0164144Y0120677D01*
X0163847Y0120975D01*
X0163482Y0121186D01*
X0163075Y0121295D01*
X0161280Y0121295D01*
X0161280Y0117914D01*
X0160511Y0117914D01*
X0160511Y0121295D01*
X0158717Y0121295D01*
X0158310Y0121186D01*
X0157945Y0120975D01*
X0157647Y0120677D01*
X0157436Y0120312D01*
X0157327Y0119905D01*
X0157327Y0117913D01*
X0160511Y0117913D01*
X0160511Y0117145D01*
X0157327Y0117145D01*
X0157327Y0115153D01*
X0157436Y0114746D01*
X0157647Y0114381D01*
X0157704Y0114324D01*
X0157127Y0113747D01*
X0157127Y0108865D01*
X0156357Y0108096D01*
X0156357Y0101486D01*
X0156793Y0101051D01*
X0156357Y0100615D01*
X0156357Y0095878D01*
X0156218Y0096011D01*
X0156218Y0100532D01*
X0155641Y0101109D01*
X0155699Y0101166D01*
X0155909Y0101531D01*
X0156018Y0101938D01*
X0156018Y0104107D01*
X0152066Y0104107D01*
X0152066Y0105307D01*
X0156018Y0105307D01*
X0156018Y0107477D01*
X0155909Y0107884D01*
X0155699Y0108249D01*
X0155401Y0108547D01*
X0155036Y0108757D01*
X0154629Y0108866D01*
X0152066Y0108866D01*
X0152066Y0105307D01*
X0150866Y0105307D01*
X0150866Y0104107D01*
X0146913Y0104107D01*
X0146913Y0101938D01*
X0146990Y0101650D01*
X0146144Y0101650D01*
X0146144Y0138620D01*
X0153724Y0146200D01*
X0158387Y0146200D01*
X0158823Y0146635D01*
X0159258Y0146200D01*
X0163811Y0146200D01*
X0165419Y0144532D01*
X0164803Y0143916D01*
X0164257Y0142600D01*
X0164257Y0141175D01*
X0164803Y0139859D01*
X0165810Y0138852D01*
X0167126Y0138306D01*
X0168551Y0138306D01*
X0169867Y0138852D01*
X0170874Y0139859D01*
X0171420Y0141175D01*
X0171420Y0142600D01*
X0170874Y0143916D01*
X0170239Y0144552D01*
X0170239Y0145458D01*
X0170247Y0145913D01*
X0170239Y0145935D01*
X0170239Y0145957D01*
X0170064Y0146378D01*
X0169898Y0146802D01*
X0169882Y0146818D01*
X0169873Y0146840D01*
X0169551Y0147161D01*
X0166922Y0149889D01*
X0166922Y0154651D01*
X0165868Y0155705D01*
X0165030Y0155705D01*
X0165030Y0156403D01*
X0165570Y0156403D01*
X0166899Y0157733D01*
X0173765Y0157635D01*
X0173765Y0156664D01*
X0174819Y0155609D01*
X0175918Y0155609D01*
X0175918Y0143926D01*
X0175796Y0143805D01*
X0175281Y0142561D01*
X0175281Y0141214D01*
X0175796Y0139970D01*
X0176748Y0139018D01*
X0177992Y0138503D01*
X0179339Y0138503D01*
X0180582Y0139018D01*
X0181534Y0139970D01*
X0182050Y0141214D01*
X0182050Y0142561D01*
X0181534Y0143805D01*
X0181118Y0144221D01*
X0181118Y0155609D01*
X0182216Y0155609D01*
X0183270Y0156664D01*
X0183270Y0163273D01*
X0182835Y0163708D01*
X0183270Y0164144D01*
X0183270Y0166228D01*
X0185368Y0168326D01*
X0186267Y0168326D01*
X0187584Y0168871D01*
X0188591Y0169879D01*
X0189136Y0171195D01*
X0189136Y0172620D01*
X0188591Y0173936D01*
X0187584Y0174943D01*
X0186267Y0175488D01*
X0184843Y0175488D01*
X0183527Y0174943D01*
X0182519Y0173936D01*
X0182205Y0173177D01*
X0178808Y0173177D01*
X0178808Y0174377D01*
X0182760Y0174377D01*
X0182760Y0176547D01*
X0182651Y0176954D01*
X0182441Y0177319D01*
X0182383Y0177376D01*
X0182960Y0177953D01*
X0182960Y0184562D01*
X0181906Y0185617D01*
X0174509Y0185617D01*
X0173455Y0184562D01*
X0173455Y0183658D01*
X0165267Y0183658D01*
X0165683Y0184074D01*
X0166582Y0184074D01*
X0167899Y0184619D01*
X0168906Y0185627D01*
X0169451Y0186943D01*
X0169451Y0188368D01*
X0168906Y0189684D01*
X0167899Y0190691D01*
X0166582Y0191236D01*
X0165158Y0191236D01*
X0163842Y0190691D01*
X0162834Y0189684D01*
X0162289Y0188368D01*
X0162289Y0187468D01*
X0161090Y0186270D01*
X0161090Y0191880D01*
X0160036Y0192935D01*
X0153427Y0192935D01*
X0152850Y0192358D01*
X0152792Y0192415D01*
X0152428Y0192626D01*
X0152021Y0192735D01*
X0149851Y0192735D01*
X0149851Y0188782D01*
X0148651Y0188782D01*
X0148651Y0192735D01*
X0146481Y0192735D01*
X0146074Y0192626D01*
X0145709Y0192415D01*
X0145412Y0192117D01*
X0145201Y0191752D01*
X0145092Y0191345D01*
X0145092Y0188782D01*
X0148651Y0188782D01*
X0148651Y0187582D01*
X0145092Y0187582D01*
X0145092Y0185173D01*
X0144157Y0184786D01*
X0143149Y0183778D01*
X0142604Y0182462D01*
X0142604Y0181037D01*
X0142923Y0180267D01*
X0140075Y0180267D01*
X0139021Y0179213D01*
X0139021Y0172604D01*
X0139598Y0172027D01*
X0139541Y0171969D01*
X0139330Y0171604D01*
X0139221Y0171198D01*
X0139221Y0169028D01*
X0143174Y0169028D01*
X0143174Y0167828D01*
X0144374Y0167828D01*
X0144374Y0164269D01*
X0144605Y0164269D01*
X0144605Y0163969D01*
X0143405Y0163969D01*
X0143405Y0167528D01*
X0143174Y0167528D01*
X0143174Y0167828D01*
X0139221Y0167828D01*
X0139221Y0165658D01*
X0139330Y0165251D01*
X0139452Y0165039D01*
X0139452Y0163969D01*
X0143405Y0163969D01*
X0143405Y0162769D01*
X0139452Y0162769D01*
X0139452Y0160599D01*
X0139561Y0160192D01*
X0139772Y0159827D01*
X0139829Y0159770D01*
X0139252Y0159193D01*
X0139252Y0152584D01*
X0140307Y0151529D01*
X0143041Y0151529D01*
X0142604Y0150474D01*
X0142604Y0149049D01*
X0143149Y0147733D01*
X0144157Y0146726D01*
X0145473Y0146180D01*
X0146897Y0146180D01*
X0146930Y0146194D01*
X0141709Y0140973D01*
X0141344Y0140091D01*
X0141344Y0102737D01*
X0141085Y0102997D01*
X0135790Y0108291D01*
X0135790Y0150239D01*
X0135424Y0151121D01*
X0134749Y0151796D01*
X0128900Y0157645D01*
X0128900Y0175225D01*
X0129017Y0175225D01*
X0130072Y0176280D01*
X0130072Y0180133D01*
X0129298Y0180907D01*
X0129552Y0181161D01*
X0129763Y0181526D01*
X0129872Y0181933D01*
X0129872Y0183324D01*
X0126697Y0183324D01*
X0126697Y0183325D01*
X0126697Y0183325D01*
X0126697Y0186106D01*
X0128482Y0186106D01*
X0128889Y0185997D01*
X0129254Y0185786D01*
X0129552Y0185488D01*
X0129763Y0185123D01*
X0129872Y0184716D01*
X0129872Y0183325D01*
X0126697Y0183325D01*
X0126697Y0186106D01*
X0124911Y0186106D01*
X0124504Y0185997D01*
X0124140Y0185786D01*
X0123842Y0185488D01*
X0123631Y0185123D01*
X0123522Y0184716D01*
X0123522Y0183325D01*
X0126697Y0183325D01*
X0126697Y0183324D01*
X0123522Y0183324D01*
X0123522Y0182943D01*
X0122718Y0183747D01*
X0118077Y0183747D01*
X0117122Y0182791D01*
X0112877Y0182791D01*
X0112884Y0182818D01*
X0112884Y0184278D01*
X0107534Y0184278D01*
X0107534Y0184378D01*
X0112884Y0184378D01*
X0112884Y0185839D01*
X0112775Y0186246D01*
X0112565Y0186611D01*
X0112267Y0186909D01*
X0111902Y0187119D01*
X0111495Y0187228D01*
X0107534Y0187228D01*
X0107534Y0184379D01*
X0107434Y0184379D01*
X0107434Y0187228D01*
X0103474Y0187228D01*
X0103067Y0187119D01*
X0102702Y0186909D01*
X0102404Y0186611D01*
X0102193Y0186246D01*
X0102084Y0185839D01*
X0102084Y0184378D01*
X0107434Y0184378D01*
X0107434Y0184278D01*
X0107434Y0185044D02*
X0107534Y0185044D01*
X0107534Y0186243D02*
X0107434Y0186243D01*
X0112776Y0186243D02*
X0145092Y0186243D01*
X0145092Y0187441D02*
X0044146Y0187441D01*
X0044146Y0188640D02*
X0148651Y0188640D01*
X0148651Y0187582D02*
X0148651Y0184348D01*
X0149221Y0183778D01*
X0149766Y0182462D01*
X0149766Y0181037D01*
X0149221Y0179721D01*
X0148585Y0179085D01*
X0148585Y0178547D01*
X0148603Y0178498D01*
X0148593Y0178268D01*
X0151426Y0178244D01*
X0151894Y0178244D01*
X0151904Y0178240D01*
X0151914Y0178240D01*
X0152264Y0178091D01*
X0152264Y0179204D01*
X0153611Y0180551D01*
X0155517Y0180551D01*
X0155837Y0180231D01*
X0156137Y0180312D01*
X0156137Y0183429D01*
X0153427Y0183429D01*
X0152850Y0184006D01*
X0152792Y0183949D01*
X0152428Y0183738D01*
X0152021Y0183629D01*
X0149851Y0183629D01*
X0149851Y0187582D01*
X0148651Y0187582D01*
X0148651Y0187441D02*
X0149851Y0187441D01*
X0149851Y0186243D02*
X0148651Y0186243D01*
X0148651Y0185044D02*
X0149851Y0185044D01*
X0149851Y0183845D02*
X0149154Y0183845D01*
X0149690Y0182647D02*
X0156137Y0182647D01*
X0156137Y0181448D02*
X0149766Y0181448D01*
X0149440Y0180250D02*
X0153310Y0180250D01*
X0152264Y0179051D02*
X0148585Y0179051D01*
X0146185Y0178123D02*
X0146185Y0181750D01*
X0146185Y0178123D02*
X0143774Y0175908D01*
X0151417Y0175844D01*
X0151417Y0173503D01*
X0158537Y0176751D02*
X0158537Y0186838D01*
X0156731Y0188182D01*
X0161090Y0188640D02*
X0162402Y0188640D01*
X0162262Y0187441D02*
X0161090Y0187441D01*
X0161090Y0189838D02*
X0162988Y0189838D01*
X0164676Y0191037D02*
X0161090Y0191037D01*
X0160735Y0192235D02*
X0197035Y0192235D01*
X0197035Y0191037D02*
X0167065Y0191037D01*
X0168752Y0189838D02*
X0197035Y0189838D01*
X0197035Y0188640D02*
X0169339Y0188640D01*
X0169451Y0187441D02*
X0197035Y0187441D01*
X0197035Y0186243D02*
X0169161Y0186243D01*
X0168323Y0185044D02*
X0173937Y0185044D01*
X0173455Y0183845D02*
X0165454Y0183845D01*
X0163409Y0181258D02*
X0178011Y0181258D01*
X0178208Y0181258D01*
X0182960Y0181448D02*
X0197035Y0181448D01*
X0197035Y0180250D02*
X0182960Y0180250D01*
X0182960Y0179051D02*
X0197035Y0179051D01*
X0197035Y0177853D02*
X0182860Y0177853D01*
X0182732Y0176654D02*
X0197035Y0176654D01*
X0197035Y0175456D02*
X0186346Y0175456D01*
X0184765Y0175456D02*
X0182760Y0175456D01*
X0182841Y0174257D02*
X0178808Y0174257D01*
X0177608Y0174257D02*
X0171565Y0174257D01*
X0171565Y0174456D02*
X0170217Y0175803D01*
X0166917Y0175803D01*
X0166917Y0178858D01*
X0173455Y0178858D01*
X0173455Y0177953D01*
X0174032Y0177376D01*
X0173975Y0177319D01*
X0173764Y0176954D01*
X0173655Y0176547D01*
X0173655Y0174377D01*
X0177608Y0174377D01*
X0177608Y0173177D01*
X0173655Y0173177D01*
X0173655Y0171008D01*
X0173764Y0170601D01*
X0173765Y0170599D01*
X0173765Y0164144D01*
X0174200Y0163708D01*
X0173765Y0163273D01*
X0173765Y0162436D01*
X0171125Y0162473D01*
X0171221Y0162640D01*
X0171365Y0163174D01*
X0171365Y0163451D01*
X0171365Y0163727D01*
X0171245Y0164175D01*
X0171565Y0164494D01*
X0171565Y0166400D01*
X0171529Y0166436D01*
X0171565Y0166471D01*
X0171565Y0168377D01*
X0171464Y0168477D01*
X0171565Y0168578D01*
X0171565Y0170483D01*
X0171524Y0170524D01*
X0171565Y0170564D01*
X0171565Y0172470D01*
X0171524Y0172510D01*
X0171565Y0172551D01*
X0171565Y0174456D01*
X0171565Y0173059D02*
X0173655Y0173059D01*
X0173655Y0171860D02*
X0171565Y0171860D01*
X0171565Y0170662D02*
X0173748Y0170662D01*
X0173765Y0169463D02*
X0171565Y0169463D01*
X0171565Y0168265D02*
X0173765Y0168265D01*
X0173765Y0167066D02*
X0171565Y0167066D01*
X0171565Y0165868D02*
X0173765Y0165868D01*
X0173765Y0164669D02*
X0171565Y0164669D01*
X0171365Y0163471D02*
X0173963Y0163471D01*
X0172268Y0163541D02*
X0172177Y0163451D01*
X0167765Y0163451D01*
X0170521Y0163451D02*
X0170521Y0163451D01*
X0171365Y0163451D01*
X0170521Y0163451D01*
X0173765Y0157478D02*
X0166645Y0157478D01*
X0165030Y0156280D02*
X0174149Y0156280D01*
X0175918Y0155081D02*
X0166492Y0155081D01*
X0166922Y0153883D02*
X0175918Y0153883D01*
X0175918Y0152684D02*
X0166922Y0152684D01*
X0166922Y0151486D02*
X0175918Y0151486D01*
X0175918Y0150287D02*
X0166922Y0150287D01*
X0167693Y0149089D02*
X0175918Y0149089D01*
X0175918Y0147890D02*
X0168849Y0147890D01*
X0169941Y0146692D02*
X0175918Y0146692D01*
X0175918Y0145493D02*
X0170239Y0145493D01*
X0170496Y0144295D02*
X0175918Y0144295D01*
X0175503Y0143096D02*
X0171214Y0143096D01*
X0171420Y0141898D02*
X0175281Y0141898D01*
X0175495Y0140699D02*
X0171222Y0140699D01*
X0170516Y0139501D02*
X0176266Y0139501D01*
X0181064Y0139501D02*
X0197035Y0139501D01*
X0197035Y0140699D02*
X0181836Y0140699D01*
X0182050Y0141898D02*
X0197035Y0141898D01*
X0197035Y0143096D02*
X0181828Y0143096D01*
X0181118Y0144295D02*
X0197035Y0144295D01*
X0197035Y0145493D02*
X0181118Y0145493D01*
X0181118Y0146692D02*
X0197035Y0146692D01*
X0197035Y0147890D02*
X0181118Y0147890D01*
X0181118Y0149089D02*
X0197035Y0149089D01*
X0197035Y0150287D02*
X0181118Y0150287D01*
X0181118Y0151486D02*
X0197035Y0151486D01*
X0197035Y0152684D02*
X0181118Y0152684D01*
X0181118Y0153883D02*
X0197035Y0153883D01*
X0197035Y0155081D02*
X0181118Y0155081D01*
X0182887Y0156280D02*
X0197035Y0156280D01*
X0197035Y0157478D02*
X0183270Y0157478D01*
X0183270Y0158677D02*
X0197035Y0158677D01*
X0197035Y0159875D02*
X0183270Y0159875D01*
X0183270Y0161074D02*
X0197035Y0161074D01*
X0197035Y0162272D02*
X0183270Y0162272D01*
X0183073Y0163471D02*
X0197035Y0163471D01*
X0197035Y0164669D02*
X0183270Y0164669D01*
X0183270Y0165868D02*
X0197035Y0165868D01*
X0197035Y0167066D02*
X0184108Y0167066D01*
X0185307Y0168265D02*
X0197035Y0168265D01*
X0197035Y0169463D02*
X0188176Y0169463D01*
X0188915Y0170662D02*
X0197035Y0170662D01*
X0197035Y0171860D02*
X0189136Y0171860D01*
X0188954Y0173059D02*
X0197035Y0173059D01*
X0197035Y0174257D02*
X0188269Y0174257D01*
X0185555Y0171907D02*
X0180900Y0167252D01*
X0178518Y0167449D01*
X0178518Y0159968D02*
X0164617Y0160165D01*
X0164617Y0160203D01*
X0162630Y0160203D02*
X0162630Y0150952D01*
X0162563Y0150952D01*
X0167839Y0145480D01*
X0167839Y0141888D01*
X0164257Y0141898D02*
X0149422Y0141898D01*
X0150620Y0143096D02*
X0164463Y0143096D01*
X0165181Y0144295D02*
X0151819Y0144295D01*
X0153017Y0145493D02*
X0164492Y0145493D01*
X0164455Y0140699D02*
X0148223Y0140699D01*
X0147025Y0139501D02*
X0165161Y0139501D01*
X0155083Y0150952D02*
X0143744Y0139614D01*
X0143744Y0096897D01*
X0147268Y0093177D01*
X0147268Y0087880D01*
X0149138Y0087880D02*
X0149236Y0087880D01*
X0149236Y0084210D01*
X0149251Y0080145D01*
X0153173Y0081459D02*
X0154010Y0080623D01*
X0153173Y0081459D02*
X0153173Y0087880D01*
X0155722Y0093167D02*
X0157012Y0093167D01*
X0158980Y0091199D01*
X0158980Y0091179D01*
X0159079Y0091080D01*
X0159079Y0087880D01*
X0159079Y0081454D01*
X0158980Y0081356D01*
X0161047Y0087880D02*
X0161047Y0095949D01*
X0161110Y0097311D01*
X0156357Y0097553D02*
X0156218Y0097553D01*
X0156218Y0098751D02*
X0156357Y0098751D01*
X0156357Y0099950D02*
X0156218Y0099950D01*
X0156696Y0101148D02*
X0155681Y0101148D01*
X0156018Y0102347D02*
X0156357Y0102347D01*
X0156357Y0103545D02*
X0156018Y0103545D01*
X0156357Y0104744D02*
X0152066Y0104744D01*
X0152066Y0105942D02*
X0150866Y0105942D01*
X0150866Y0105307D02*
X0150866Y0108866D01*
X0148302Y0108866D01*
X0147895Y0108757D01*
X0147530Y0108547D01*
X0147232Y0108249D01*
X0147022Y0107884D01*
X0146913Y0107477D01*
X0146913Y0105307D01*
X0150866Y0105307D01*
X0150866Y0104744D02*
X0146144Y0104744D01*
X0146144Y0105942D02*
X0146913Y0105942D01*
X0146913Y0107141D02*
X0146144Y0107141D01*
X0146144Y0108339D02*
X0147323Y0108339D01*
X0146144Y0109538D02*
X0157127Y0109538D01*
X0157127Y0110736D02*
X0146144Y0110736D01*
X0146144Y0111935D02*
X0157127Y0111935D01*
X0157127Y0113133D02*
X0146144Y0113133D01*
X0146144Y0114332D02*
X0157696Y0114332D01*
X0157327Y0115530D02*
X0146144Y0115530D01*
X0146144Y0116729D02*
X0157327Y0116729D01*
X0157327Y0117927D02*
X0146144Y0117927D01*
X0146144Y0119126D02*
X0157327Y0119126D01*
X0157443Y0120324D02*
X0146144Y0120324D01*
X0146144Y0121523D02*
X0197035Y0121523D01*
X0197035Y0122721D02*
X0146144Y0122721D01*
X0146144Y0123920D02*
X0197035Y0123920D01*
X0197035Y0125118D02*
X0146144Y0125118D01*
X0146144Y0126317D02*
X0197035Y0126317D01*
X0197035Y0127515D02*
X0146144Y0127515D01*
X0146144Y0128714D02*
X0197035Y0128714D01*
X0197035Y0129912D02*
X0146144Y0129912D01*
X0146144Y0131111D02*
X0197035Y0131111D01*
X0197035Y0132309D02*
X0146144Y0132309D01*
X0146144Y0133508D02*
X0197035Y0133508D01*
X0197035Y0134707D02*
X0146144Y0134707D01*
X0146144Y0135905D02*
X0197035Y0135905D01*
X0197035Y0137104D02*
X0146144Y0137104D01*
X0146144Y0138302D02*
X0197035Y0138302D01*
X0182404Y0120727D02*
X0182039Y0120938D01*
X0181632Y0121047D01*
X0179739Y0121047D01*
X0179739Y0116189D01*
X0183021Y0116189D01*
X0183021Y0119657D01*
X0182912Y0120064D01*
X0182702Y0120429D01*
X0182404Y0120727D01*
X0182762Y0120324D02*
X0197035Y0120324D01*
X0197035Y0119126D02*
X0183021Y0119126D01*
X0183021Y0117927D02*
X0197035Y0117927D01*
X0197035Y0116729D02*
X0183021Y0116729D01*
X0183021Y0115224D02*
X0179739Y0115224D01*
X0179739Y0116189D01*
X0178773Y0116189D01*
X0178773Y0115224D01*
X0175491Y0115224D01*
X0175491Y0111756D01*
X0175600Y0111349D01*
X0175810Y0110984D01*
X0176108Y0110686D01*
X0176473Y0110475D01*
X0176880Y0110366D01*
X0178773Y0110366D01*
X0178773Y0115224D01*
X0179739Y0115224D01*
X0179739Y0110366D01*
X0181632Y0110366D01*
X0182039Y0110475D01*
X0182404Y0110686D01*
X0182702Y0110984D01*
X0182912Y0111349D01*
X0183021Y0111756D01*
X0183021Y0115224D01*
X0183021Y0114332D02*
X0197035Y0114332D01*
X0197035Y0115530D02*
X0179739Y0115530D01*
X0178773Y0115530D02*
X0174166Y0115530D01*
X0174166Y0114332D02*
X0175491Y0114332D01*
X0175491Y0113133D02*
X0174166Y0113133D01*
X0174166Y0111935D02*
X0175491Y0111935D01*
X0176058Y0110736D02*
X0173682Y0110736D01*
X0170201Y0112405D02*
X0170201Y0115706D01*
X0170201Y0113882D01*
X0161110Y0104791D01*
X0160896Y0103529D01*
X0160896Y0110836D01*
X0164664Y0111935D02*
X0164860Y0111935D01*
X0164664Y0113133D02*
X0166058Y0113133D01*
X0166235Y0114332D02*
X0164095Y0114332D01*
X0164464Y0115530D02*
X0166235Y0115530D01*
X0166235Y0116729D02*
X0164464Y0116729D01*
X0164464Y0117927D02*
X0166235Y0117927D01*
X0166235Y0119126D02*
X0164464Y0119126D01*
X0164348Y0120324D02*
X0166368Y0120324D01*
X0161280Y0120324D02*
X0160511Y0120324D01*
X0160511Y0119126D02*
X0161280Y0119126D01*
X0161280Y0117927D02*
X0160511Y0117927D01*
X0156601Y0108339D02*
X0155608Y0108339D01*
X0156018Y0107141D02*
X0156357Y0107141D01*
X0156357Y0105942D02*
X0156018Y0105942D01*
X0152066Y0107141D02*
X0150866Y0107141D01*
X0150866Y0108339D02*
X0152066Y0108339D01*
X0146913Y0103545D02*
X0146144Y0103545D01*
X0146144Y0102347D02*
X0146913Y0102347D01*
X0141344Y0103545D02*
X0140536Y0103545D01*
X0141344Y0104744D02*
X0139337Y0104744D01*
X0138139Y0105942D02*
X0141344Y0105942D01*
X0141344Y0107141D02*
X0136940Y0107141D01*
X0135790Y0108339D02*
X0141344Y0108339D01*
X0141344Y0109538D02*
X0135790Y0109538D01*
X0135790Y0110736D02*
X0141344Y0110736D01*
X0141344Y0111935D02*
X0135790Y0111935D01*
X0135790Y0113133D02*
X0141344Y0113133D01*
X0141344Y0114332D02*
X0135790Y0114332D01*
X0135790Y0115530D02*
X0141344Y0115530D01*
X0141344Y0116729D02*
X0135790Y0116729D01*
X0135790Y0117927D02*
X0141344Y0117927D01*
X0141344Y0119126D02*
X0135790Y0119126D01*
X0135790Y0120324D02*
X0141344Y0120324D01*
X0141344Y0121523D02*
X0135790Y0121523D01*
X0135790Y0122721D02*
X0141344Y0122721D01*
X0141344Y0123920D02*
X0135790Y0123920D01*
X0135790Y0125118D02*
X0141344Y0125118D01*
X0141344Y0126317D02*
X0135790Y0126317D01*
X0135790Y0127515D02*
X0141344Y0127515D01*
X0141344Y0128714D02*
X0135790Y0128714D01*
X0135790Y0129912D02*
X0141344Y0129912D01*
X0141344Y0131111D02*
X0135790Y0131111D01*
X0135790Y0132309D02*
X0141344Y0132309D01*
X0141344Y0133508D02*
X0135790Y0133508D01*
X0135790Y0134707D02*
X0141344Y0134707D01*
X0141344Y0135905D02*
X0135790Y0135905D01*
X0135790Y0137104D02*
X0141344Y0137104D01*
X0141344Y0138302D02*
X0135790Y0138302D01*
X0135790Y0139501D02*
X0141344Y0139501D01*
X0141596Y0140699D02*
X0135790Y0140699D01*
X0135790Y0141898D02*
X0142634Y0141898D01*
X0143832Y0143096D02*
X0135790Y0143096D01*
X0135790Y0144295D02*
X0145031Y0144295D01*
X0146229Y0145493D02*
X0135790Y0145493D01*
X0135790Y0146692D02*
X0144239Y0146692D01*
X0143084Y0147890D02*
X0135790Y0147890D01*
X0135790Y0149089D02*
X0142604Y0149089D01*
X0142604Y0150287D02*
X0135770Y0150287D01*
X0135060Y0151486D02*
X0143023Y0151486D01*
X0139252Y0152684D02*
X0133861Y0152684D01*
X0132663Y0153883D02*
X0139252Y0153883D01*
X0139252Y0155081D02*
X0131464Y0155081D01*
X0130266Y0156280D02*
X0139252Y0156280D01*
X0139252Y0157478D02*
X0129067Y0157478D01*
X0128900Y0158677D02*
X0139252Y0158677D01*
X0139744Y0159875D02*
X0128900Y0159875D01*
X0128900Y0161074D02*
X0139452Y0161074D01*
X0139452Y0162272D02*
X0128900Y0162272D01*
X0128900Y0163471D02*
X0143405Y0163471D01*
X0144005Y0163369D02*
X0144284Y0163451D01*
X0151417Y0163451D01*
X0151417Y0163147D02*
X0151417Y0161351D01*
X0152264Y0161351D01*
X0152264Y0158425D01*
X0148758Y0158367D01*
X0148758Y0159193D01*
X0148181Y0159770D01*
X0148238Y0159827D01*
X0148449Y0160192D01*
X0148558Y0160599D01*
X0148558Y0161840D01*
X0148627Y0161770D01*
X0149106Y0161494D01*
X0149640Y0161351D01*
X0151416Y0161351D01*
X0151416Y0163147D01*
X0151417Y0163147D01*
X0151416Y0162272D02*
X0151417Y0162272D01*
X0152264Y0161074D02*
X0148558Y0161074D01*
X0148266Y0159875D02*
X0152264Y0159875D01*
X0152264Y0158677D02*
X0148758Y0158677D01*
X0144005Y0155888D02*
X0155954Y0156085D01*
X0156520Y0156651D01*
X0156520Y0160162D01*
X0156561Y0160203D01*
X0155083Y0150952D02*
X0147376Y0150952D01*
X0146185Y0149762D01*
X0133390Y0149762D02*
X0133390Y0107439D01*
X0132272Y0105304D02*
X0136864Y0100712D01*
X0136864Y0097497D01*
X0135664Y0097497D01*
X0135664Y0096297D01*
X0132669Y0096297D01*
X0131853Y0097114D01*
X0131853Y0105582D01*
X0132030Y0105404D01*
X0132272Y0105304D01*
X0131853Y0104744D02*
X0132832Y0104744D01*
X0131853Y0103545D02*
X0134031Y0103545D01*
X0132898Y0102517D02*
X0132898Y0100460D01*
X0136264Y0096897D01*
X0135664Y0096354D02*
X0132612Y0096354D01*
X0132105Y0097497D02*
X0135664Y0097497D01*
X0135664Y0101450D01*
X0133494Y0101450D01*
X0133087Y0101341D01*
X0132722Y0101130D01*
X0132424Y0100833D01*
X0132214Y0100468D01*
X0132105Y0100061D01*
X0132105Y0097497D01*
X0132105Y0097553D02*
X0131853Y0097553D01*
X0131853Y0098751D02*
X0132105Y0098751D01*
X0132105Y0099950D02*
X0131853Y0099950D01*
X0131853Y0101148D02*
X0132753Y0101148D01*
X0131853Y0102347D02*
X0135229Y0102347D01*
X0135664Y0101148D02*
X0136428Y0101148D01*
X0136864Y0099950D02*
X0135664Y0099950D01*
X0135664Y0098751D02*
X0136864Y0098751D01*
X0136864Y0097553D02*
X0135664Y0097553D01*
X0131224Y0091592D02*
X0131224Y0079978D01*
X0131252Y0080006D01*
X0133488Y0080006D01*
X0133488Y0078037D02*
X0137945Y0078037D01*
X0140280Y0080372D01*
X0142811Y0074100D02*
X0142888Y0074023D01*
X0142811Y0074100D02*
X0133488Y0074100D01*
X0133488Y0070163D02*
X0129819Y0070163D01*
X0127730Y0072252D01*
X0125909Y0070332D02*
X0123154Y0073088D01*
X0123154Y0083029D01*
X0122465Y0083521D01*
X0117712Y0084369D02*
X0117531Y0084369D01*
X0117712Y0085568D02*
X0115898Y0085568D01*
X0117712Y0086766D02*
X0113657Y0086766D01*
X0113322Y0087965D02*
X0117983Y0087965D01*
X0117912Y0089163D02*
X0114520Y0089163D01*
X0115552Y0090362D02*
X0117912Y0090362D01*
X0117912Y0092759D02*
X0115552Y0092759D01*
X0115552Y0093957D02*
X0117962Y0093957D01*
X0119282Y0095156D02*
X0114567Y0095156D01*
X0113369Y0096354D02*
X0118934Y0096354D01*
X0117736Y0097553D02*
X0089091Y0097553D01*
X0087893Y0098751D02*
X0116537Y0098751D01*
X0115339Y0099950D02*
X0086694Y0099950D01*
X0083862Y0099387D02*
X0101894Y0081356D01*
X0098968Y0079575D02*
X0077246Y0079575D01*
X0077244Y0079585D02*
X0077067Y0080012D01*
X0076834Y0080360D01*
X0076834Y0083249D01*
X0073634Y0083249D01*
X0073634Y0082393D01*
X0073734Y0081891D01*
X0073930Y0081418D01*
X0074043Y0081249D01*
X0071384Y0081249D01*
X0071384Y0078299D01*
X0077334Y0078299D01*
X0077334Y0079131D01*
X0077244Y0079585D01*
X0077334Y0078376D02*
X0099049Y0078376D01*
X0098538Y0077178D02*
X0077334Y0077178D01*
X0076862Y0075979D02*
X0098509Y0075979D01*
X0098916Y0074781D02*
X0045540Y0074781D01*
X0044342Y0073582D02*
X0088012Y0073582D01*
X0087023Y0072384D02*
X0043143Y0072384D01*
X0041945Y0071185D02*
X0060173Y0071185D01*
X0060226Y0071383D02*
X0060117Y0070976D01*
X0060117Y0068806D01*
X0064069Y0068806D01*
X0064069Y0072365D01*
X0061506Y0072365D01*
X0061099Y0072256D01*
X0060734Y0072046D01*
X0060436Y0071748D01*
X0060226Y0071383D01*
X0060117Y0069987D02*
X0048194Y0069987D01*
X0049419Y0068788D02*
X0064069Y0068788D01*
X0064069Y0069987D02*
X0065269Y0069987D01*
X0065269Y0071185D02*
X0064069Y0071185D01*
X0065269Y0068788D02*
X0077023Y0068788D01*
X0078222Y0069987D02*
X0069222Y0069987D01*
X0069166Y0071185D02*
X0079410Y0071185D01*
X0080782Y0065193D02*
X0080980Y0065193D01*
X0080980Y0063994D02*
X0079583Y0063994D01*
X0079461Y0062796D02*
X0080980Y0062796D01*
X0080980Y0061597D02*
X0079461Y0061597D01*
X0080220Y0058002D02*
X0080221Y0058002D01*
X0080220Y0056803D02*
X0080221Y0056803D01*
X0080220Y0055605D02*
X0080221Y0055605D01*
X0080220Y0054406D02*
X0080221Y0054406D01*
X0080220Y0053208D02*
X0080221Y0053208D01*
X0080220Y0052009D02*
X0080221Y0052009D01*
X0080220Y0050811D02*
X0080221Y0050811D01*
X0083961Y0054285D02*
X0090994Y0047252D01*
X0095545Y0047252D01*
X0095186Y0051808D02*
X0095677Y0052298D01*
X0095734Y0052241D01*
X0096099Y0052030D01*
X0096506Y0051921D01*
X0098676Y0051921D01*
X0098676Y0055874D01*
X0099876Y0055874D01*
X0099876Y0057074D01*
X0103435Y0057074D01*
X0103435Y0057610D01*
X0105372Y0057610D01*
X0105779Y0057719D01*
X0106144Y0057930D01*
X0106442Y0058228D01*
X0106652Y0058593D01*
X0106761Y0059000D01*
X0106761Y0061169D01*
X0102809Y0061169D01*
X0102809Y0062369D01*
X0106761Y0062369D01*
X0106761Y0064539D01*
X0106652Y0064946D01*
X0106442Y0065311D01*
X0106384Y0065368D01*
X0106961Y0065945D01*
X0106961Y0066492D01*
X0114065Y0066492D01*
X0115079Y0065478D01*
X0109018Y0065478D01*
X0107963Y0064424D01*
X0107963Y0057421D01*
X0109018Y0056366D01*
X0110119Y0056366D01*
X0110119Y0049852D01*
X0100101Y0049852D01*
X0100101Y0050753D01*
X0099047Y0051808D01*
X0095186Y0051808D01*
X0095388Y0052009D02*
X0096178Y0052009D01*
X0098676Y0052009D02*
X0099876Y0052009D01*
X0099876Y0051921D02*
X0102045Y0051921D01*
X0102452Y0052030D01*
X0102817Y0052241D01*
X0103115Y0052539D01*
X0103326Y0052904D01*
X0103435Y0053311D01*
X0103435Y0055874D01*
X0099876Y0055874D01*
X0099876Y0051921D01*
X0100044Y0050811D02*
X0110119Y0050811D01*
X0110119Y0052009D02*
X0102373Y0052009D01*
X0103407Y0053208D02*
X0110119Y0053208D01*
X0110119Y0054406D02*
X0103435Y0054406D01*
X0103435Y0055605D02*
X0110119Y0055605D01*
X0108581Y0056803D02*
X0099876Y0056803D01*
X0099276Y0056474D02*
X0105555Y0056474D01*
X0105831Y0056750D01*
X0105831Y0053797D01*
X0106815Y0054781D01*
X0106815Y0055765D01*
X0106106Y0056474D01*
X0099276Y0056474D01*
X0098676Y0055605D02*
X0099876Y0055605D01*
X0099876Y0054406D02*
X0098676Y0054406D01*
X0098676Y0053208D02*
X0099876Y0053208D01*
X0106216Y0058002D02*
X0107963Y0058002D01*
X0107963Y0059200D02*
X0106761Y0059200D01*
X0106761Y0060399D02*
X0107963Y0060399D01*
X0107963Y0061597D02*
X0102809Y0061597D01*
X0101609Y0061597D02*
X0096528Y0061597D01*
X0096528Y0061027D02*
X0096528Y0065113D01*
X0096093Y0065549D01*
X0096528Y0065984D01*
X0096528Y0066599D01*
X0097456Y0066581D01*
X0097456Y0065945D01*
X0098033Y0065368D01*
X0097976Y0065311D01*
X0097765Y0064946D01*
X0097656Y0064539D01*
X0097656Y0062369D01*
X0101609Y0062369D01*
X0101609Y0061169D01*
X0097656Y0061169D01*
X0097656Y0061027D01*
X0096528Y0061027D01*
X0096528Y0062796D02*
X0097656Y0062796D01*
X0097656Y0063994D02*
X0096528Y0063994D01*
X0096449Y0065193D02*
X0097907Y0065193D01*
X0097456Y0066391D02*
X0096528Y0066391D01*
X0096528Y0072384D02*
X0097456Y0072384D01*
X0098484Y0073582D02*
X0095540Y0073582D01*
X0101894Y0076435D02*
X0102446Y0075883D01*
X0112519Y0075883D01*
X0117002Y0078551D02*
X0117002Y0071366D01*
X0121185Y0067183D01*
X0121185Y0057143D01*
X0123913Y0054415D01*
X0133488Y0054415D01*
X0133461Y0056356D02*
X0133488Y0056384D01*
X0125882Y0056384D01*
X0123547Y0058718D01*
X0123547Y0068561D01*
X0120594Y0071513D01*
X0120594Y0077911D01*
X0115280Y0083226D01*
X0113803Y0083226D01*
X0110752Y0086277D01*
X0110752Y0092183D01*
X0106937Y0095156D02*
X0104725Y0095156D01*
X0105709Y0093957D02*
X0105952Y0093957D01*
X0105952Y0092759D02*
X0105709Y0092759D01*
X0105709Y0091560D02*
X0105952Y0091560D01*
X0100909Y0092183D02*
X0111736Y0081356D01*
X0114197Y0081356D01*
X0115552Y0091560D02*
X0121865Y0091560D01*
X0121579Y0097104D02*
X0099925Y0118758D01*
X0099925Y0127616D01*
X0100909Y0128600D01*
X0106874Y0128600D01*
X0107484Y0129210D01*
X0113084Y0128714D02*
X0124692Y0128714D01*
X0124692Y0129912D02*
X0113084Y0129912D01*
X0113084Y0131111D02*
X0124692Y0131111D01*
X0124692Y0132309D02*
X0113084Y0132309D01*
X0113084Y0133508D02*
X0124692Y0133508D01*
X0124692Y0134707D02*
X0113084Y0134707D01*
X0113084Y0135905D02*
X0124692Y0135905D01*
X0124692Y0137104D02*
X0113084Y0137104D01*
X0113084Y0138302D02*
X0124692Y0138302D01*
X0124692Y0139501D02*
X0113084Y0139501D01*
X0113084Y0140699D02*
X0124692Y0140699D01*
X0124692Y0141898D02*
X0113084Y0141898D01*
X0113084Y0143096D02*
X0124692Y0143096D01*
X0124692Y0144295D02*
X0113084Y0144295D01*
X0113084Y0145493D02*
X0123929Y0145493D01*
X0123235Y0146187D02*
X0124692Y0144730D01*
X0124692Y0111854D01*
X0124545Y0111893D01*
X0123154Y0111893D01*
X0123154Y0108718D01*
X0123154Y0105543D01*
X0124545Y0105543D01*
X0124692Y0105583D01*
X0124692Y0099060D01*
X0123017Y0099060D01*
X0120176Y0101901D01*
X0120548Y0102055D01*
X0121500Y0103007D01*
X0122015Y0104251D01*
X0122015Y0105543D01*
X0123153Y0105543D01*
X0123153Y0108718D01*
X0123154Y0108718D01*
X0123153Y0108718D01*
X0123153Y0111893D01*
X0122772Y0111893D01*
X0123576Y0112697D01*
X0123576Y0117338D01*
X0122521Y0118392D01*
X0120614Y0118392D01*
X0115635Y0123371D01*
X0114753Y0123736D01*
X0113084Y0123736D01*
X0113084Y0150432D01*
X0118990Y0150432D01*
X0123235Y0146187D01*
X0122731Y0146692D02*
X0113084Y0146692D01*
X0113084Y0147890D02*
X0121532Y0147890D01*
X0120334Y0149089D02*
X0113084Y0149089D01*
X0113084Y0150287D02*
X0119135Y0150287D01*
X0119984Y0152832D02*
X0125270Y0147547D01*
X0126894Y0145923D01*
X0129453Y0147301D02*
X0129453Y0096120D01*
X0137327Y0088246D01*
X0140996Y0088246D01*
X0141362Y0087880D01*
X0151466Y0097227D02*
X0155722Y0093167D01*
X0156218Y0096354D02*
X0156357Y0096354D01*
X0162917Y0091691D02*
X0162917Y0087978D01*
X0163016Y0087880D01*
X0162917Y0091691D02*
X0164394Y0093167D01*
X0174236Y0093167D01*
X0179256Y0098187D01*
X0179256Y0101139D01*
X0189222Y0101139D01*
X0189287Y0101204D01*
X0186044Y0104744D02*
X0183221Y0104744D01*
X0183221Y0103545D02*
X0185519Y0103545D01*
X0185719Y0105942D02*
X0182904Y0105942D01*
X0185719Y0107141D02*
X0166854Y0107141D01*
X0167418Y0106371D02*
X0167053Y0106160D01*
X0166755Y0105862D01*
X0166544Y0105497D01*
X0166435Y0105090D01*
X0166435Y0101622D01*
X0169718Y0101622D01*
X0169718Y0100657D01*
X0166435Y0100657D01*
X0166435Y0097189D01*
X0166544Y0096782D01*
X0166755Y0096417D01*
X0167053Y0096119D01*
X0167418Y0095908D01*
X0167825Y0095799D01*
X0169718Y0095799D01*
X0169718Y0100657D01*
X0170683Y0100657D01*
X0170683Y0095799D01*
X0172577Y0095799D01*
X0172984Y0095908D01*
X0173349Y0096119D01*
X0173646Y0096417D01*
X0173857Y0096782D01*
X0173966Y0097189D01*
X0173966Y0100657D01*
X0170684Y0100657D01*
X0170684Y0101622D01*
X0173966Y0101622D01*
X0173966Y0105090D01*
X0173857Y0105497D01*
X0173646Y0105862D01*
X0173349Y0106160D01*
X0172984Y0106371D01*
X0172577Y0106480D01*
X0170683Y0106480D01*
X0170683Y0101622D01*
X0169718Y0101622D01*
X0169718Y0106480D01*
X0167825Y0106480D01*
X0167418Y0106371D01*
X0166835Y0105942D02*
X0165863Y0105942D01*
X0165863Y0104744D02*
X0166435Y0104744D01*
X0166435Y0103545D02*
X0165863Y0103545D01*
X0165863Y0102347D02*
X0166435Y0102347D01*
X0165525Y0101148D02*
X0169718Y0101148D01*
X0170684Y0101148D02*
X0175291Y0101148D01*
X0175291Y0099950D02*
X0173966Y0099950D01*
X0173966Y0098751D02*
X0175291Y0098751D01*
X0175228Y0097553D02*
X0173966Y0097553D01*
X0174029Y0096354D02*
X0173584Y0096354D01*
X0170683Y0096354D02*
X0169718Y0096354D01*
X0169718Y0097553D02*
X0170683Y0097553D01*
X0170683Y0098751D02*
X0169718Y0098751D01*
X0169718Y0099950D02*
X0170683Y0099950D01*
X0170683Y0102347D02*
X0169718Y0102347D01*
X0169718Y0103545D02*
X0170683Y0103545D01*
X0170683Y0104744D02*
X0169718Y0104744D01*
X0169718Y0105942D02*
X0170683Y0105942D01*
X0168053Y0108339D02*
X0185719Y0108339D01*
X0185719Y0109538D02*
X0169251Y0109538D01*
X0173566Y0105942D02*
X0175608Y0105942D01*
X0175291Y0104744D02*
X0173966Y0104744D01*
X0173966Y0103545D02*
X0175291Y0103545D01*
X0175291Y0102347D02*
X0173966Y0102347D01*
X0179619Y0095156D02*
X0197035Y0095156D01*
X0197035Y0096354D02*
X0182922Y0096354D01*
X0183221Y0097553D02*
X0186260Y0097553D01*
X0182541Y0091560D02*
X0197035Y0091560D01*
X0197035Y0090362D02*
X0193179Y0090362D01*
X0193243Y0089163D02*
X0197035Y0089163D01*
X0197035Y0087965D02*
X0193243Y0087965D01*
X0193243Y0085568D02*
X0197035Y0085568D01*
X0197035Y0086766D02*
X0189290Y0086766D01*
X0189290Y0087965D02*
X0188090Y0087965D01*
X0188090Y0089163D02*
X0189290Y0089163D01*
X0189290Y0090362D02*
X0188090Y0090362D01*
X0188090Y0086766D02*
X0182934Y0086766D01*
X0182934Y0085568D02*
X0184137Y0085568D01*
X0184195Y0084369D02*
X0182934Y0084369D01*
X0182934Y0083171D02*
X0183937Y0083171D01*
X0184137Y0087965D02*
X0182934Y0087965D01*
X0182934Y0089163D02*
X0184137Y0089163D01*
X0184201Y0090362D02*
X0182934Y0090362D01*
X0178420Y0093957D02*
X0197035Y0093957D01*
X0197035Y0092759D02*
X0177222Y0092759D01*
X0166818Y0096354D02*
X0165863Y0096354D01*
X0165863Y0097553D02*
X0166435Y0097553D01*
X0166435Y0098751D02*
X0165863Y0098751D01*
X0165863Y0099950D02*
X0166435Y0099950D01*
X0178773Y0110736D02*
X0179739Y0110736D01*
X0179739Y0111935D02*
X0178773Y0111935D01*
X0178773Y0113133D02*
X0179739Y0113133D01*
X0179739Y0114332D02*
X0178773Y0114332D01*
X0178773Y0116189D02*
X0175491Y0116189D01*
X0175491Y0119657D01*
X0175600Y0120064D01*
X0175810Y0120429D01*
X0176108Y0120727D01*
X0176473Y0120938D01*
X0176880Y0121047D01*
X0178773Y0121047D01*
X0178773Y0116189D01*
X0178773Y0116729D02*
X0179739Y0116729D01*
X0179739Y0117927D02*
X0178773Y0117927D01*
X0178773Y0119126D02*
X0179739Y0119126D01*
X0179739Y0120324D02*
X0178773Y0120324D01*
X0175750Y0120324D02*
X0174034Y0120324D01*
X0174166Y0119126D02*
X0175491Y0119126D01*
X0175491Y0117927D02*
X0174166Y0117927D01*
X0174166Y0116729D02*
X0175491Y0116729D01*
X0183021Y0113133D02*
X0197035Y0113133D01*
X0197035Y0111935D02*
X0183021Y0111935D01*
X0182454Y0110736D02*
X0185860Y0110736D01*
X0188903Y0110736D02*
X0189672Y0110736D01*
X0189672Y0111663D02*
X0189672Y0108282D01*
X0192856Y0108282D01*
X0192856Y0110273D01*
X0192747Y0110680D01*
X0192536Y0111045D01*
X0192238Y0111343D01*
X0191873Y0111554D01*
X0191467Y0111663D01*
X0189672Y0111663D01*
X0189672Y0109538D02*
X0188903Y0109538D01*
X0188903Y0108339D02*
X0189672Y0108339D01*
X0192856Y0108339D02*
X0197035Y0108339D01*
X0197035Y0107141D02*
X0192856Y0107141D01*
X0192856Y0105942D02*
X0197035Y0105942D01*
X0197035Y0104744D02*
X0192530Y0104744D01*
X0193056Y0103545D02*
X0197035Y0103545D01*
X0197035Y0102347D02*
X0193056Y0102347D01*
X0193056Y0101148D02*
X0197035Y0101148D01*
X0197035Y0099950D02*
X0193056Y0099950D01*
X0193056Y0098751D02*
X0197035Y0098751D01*
X0197035Y0097553D02*
X0192315Y0097553D01*
X0192856Y0109538D02*
X0197035Y0109538D01*
X0197035Y0110736D02*
X0192715Y0110736D01*
X0193185Y0084369D02*
X0197035Y0084369D01*
X0197035Y0083171D02*
X0193443Y0083171D01*
X0193443Y0081972D02*
X0197035Y0081972D01*
X0197035Y0080774D02*
X0193443Y0080774D01*
X0193443Y0079575D02*
X0197035Y0079575D01*
X0197035Y0078376D02*
X0193443Y0078376D01*
X0193443Y0077178D02*
X0197035Y0077178D01*
X0197035Y0075979D02*
X0192852Y0075979D01*
X0191921Y0074781D02*
X0197035Y0074781D01*
X0197035Y0073582D02*
X0192384Y0073582D01*
X0192384Y0072384D02*
X0197035Y0072384D01*
X0197035Y0071185D02*
X0191916Y0071185D01*
X0190594Y0069987D02*
X0197035Y0069987D01*
X0197035Y0068788D02*
X0189072Y0068788D01*
X0193087Y0067590D02*
X0197035Y0067590D01*
X0197035Y0066391D02*
X0193453Y0066391D01*
X0193453Y0065193D02*
X0197035Y0065193D01*
X0197035Y0063994D02*
X0193453Y0063994D01*
X0193453Y0062796D02*
X0197035Y0062796D01*
X0197035Y0061597D02*
X0193453Y0061597D01*
X0193236Y0060399D02*
X0197035Y0060399D01*
X0197035Y0059200D02*
X0193253Y0059200D01*
X0193253Y0058002D02*
X0197035Y0058002D01*
X0197035Y0056803D02*
X0189300Y0056803D01*
X0189300Y0055840D02*
X0193253Y0055840D01*
X0193253Y0053670D01*
X0193144Y0053263D01*
X0192933Y0052898D01*
X0192635Y0052600D01*
X0192270Y0052390D01*
X0191863Y0052281D01*
X0189300Y0052281D01*
X0189300Y0055840D01*
X0189300Y0055605D02*
X0188100Y0055605D01*
X0188100Y0056803D02*
X0182934Y0056803D01*
X0182934Y0055605D02*
X0184147Y0055605D01*
X0184147Y0054406D02*
X0182934Y0054406D01*
X0182934Y0053208D02*
X0184288Y0053208D01*
X0182934Y0052009D02*
X0197035Y0052009D01*
X0197035Y0050811D02*
X0182934Y0050811D01*
X0182934Y0049612D02*
X0197035Y0049612D01*
X0197035Y0048414D02*
X0182934Y0048414D01*
X0182934Y0047215D02*
X0197035Y0047215D01*
X0197035Y0046017D02*
X0182934Y0046017D01*
X0182934Y0044818D02*
X0197035Y0044818D01*
X0197035Y0043620D02*
X0182934Y0043620D01*
X0182934Y0042421D02*
X0197035Y0042421D01*
X0197035Y0041223D02*
X0182934Y0041223D01*
X0181925Y0040024D02*
X0197035Y0040024D01*
X0197035Y0038826D02*
X0181164Y0038826D01*
X0181164Y0037627D02*
X0197035Y0037627D01*
X0197035Y0036429D02*
X0181164Y0036429D01*
X0181164Y0035230D02*
X0197035Y0035230D01*
X0197035Y0034032D02*
X0181164Y0034032D01*
X0181164Y0032833D02*
X0197035Y0032833D01*
X0197035Y0031635D02*
X0181164Y0031635D01*
X0181164Y0030436D02*
X0197035Y0030436D01*
X0197035Y0029238D02*
X0181164Y0029238D01*
X0181164Y0028039D02*
X0197035Y0028039D01*
X0197035Y0026841D02*
X0181164Y0026841D01*
X0181164Y0025642D02*
X0186165Y0025642D01*
X0186499Y0025976D02*
X0183805Y0023281D01*
X0183805Y0021776D01*
X0188004Y0021776D01*
X0188004Y0020976D01*
X0183805Y0020976D01*
X0183805Y0019470D01*
X0186499Y0016776D01*
X0188005Y0016776D01*
X0188005Y0020976D01*
X0188805Y0020976D01*
X0188805Y0021776D01*
X0193005Y0021776D01*
X0193005Y0023281D01*
X0190310Y0025976D01*
X0188805Y0025976D01*
X0188805Y0021776D01*
X0188005Y0021776D01*
X0188005Y0025976D01*
X0186499Y0025976D01*
X0188005Y0025642D02*
X0188805Y0025642D01*
X0188805Y0024443D02*
X0188005Y0024443D01*
X0188005Y0023245D02*
X0188805Y0023245D01*
X0188805Y0022046D02*
X0188005Y0022046D01*
X0188005Y0020848D02*
X0188805Y0020848D01*
X0188805Y0020976D02*
X0188805Y0016776D01*
X0190310Y0016776D01*
X0193005Y0019470D01*
X0193005Y0020976D01*
X0188805Y0020976D01*
X0188805Y0019649D02*
X0188005Y0019649D01*
X0188005Y0018451D02*
X0188805Y0018451D01*
X0188805Y0017252D02*
X0188005Y0017252D01*
X0186022Y0017252D02*
X0180390Y0017252D01*
X0181589Y0018451D02*
X0184824Y0018451D01*
X0183805Y0019649D02*
X0182703Y0019649D01*
X0182703Y0020848D02*
X0183805Y0020848D01*
X0183805Y0022046D02*
X0182703Y0022046D01*
X0182703Y0023245D02*
X0183805Y0023245D01*
X0184967Y0024443D02*
X0181800Y0024443D01*
X0178764Y0022414D02*
X0177903Y0021553D01*
X0178764Y0022414D02*
X0178764Y0050478D01*
X0182934Y0058002D02*
X0184147Y0058002D01*
X0184147Y0059200D02*
X0182934Y0059200D01*
X0182934Y0060399D02*
X0184164Y0060399D01*
X0183947Y0061597D02*
X0182934Y0061597D01*
X0182934Y0062796D02*
X0183947Y0062796D01*
X0183947Y0063994D02*
X0182934Y0063994D01*
X0182934Y0065193D02*
X0183947Y0065193D01*
X0183947Y0066391D02*
X0182934Y0066391D01*
X0182934Y0067590D02*
X0183765Y0067590D01*
X0189000Y0072990D02*
X0185921Y0076069D01*
X0178764Y0076069D01*
X0178764Y0078037D02*
X0173378Y0078037D01*
X0171776Y0076435D01*
X0174854Y0074100D02*
X0171776Y0071021D01*
X0168331Y0071021D01*
X0167346Y0072006D01*
X0174854Y0074100D02*
X0178764Y0074100D01*
X0178764Y0080006D02*
X0178764Y0080072D01*
X0188690Y0079875D01*
X0193253Y0055605D02*
X0197035Y0055605D01*
X0197035Y0054406D02*
X0193253Y0054406D01*
X0193112Y0053208D02*
X0197035Y0053208D01*
X0189300Y0053208D02*
X0188100Y0053208D01*
X0188100Y0054406D02*
X0189300Y0054406D01*
X0176364Y0038826D02*
X0173290Y0038826D01*
X0173857Y0037627D02*
X0176364Y0037627D01*
X0176364Y0036429D02*
X0174560Y0036429D01*
X0174560Y0035230D02*
X0176364Y0035230D01*
X0176364Y0034032D02*
X0174560Y0034032D01*
X0174560Y0032833D02*
X0176364Y0032833D01*
X0176364Y0031635D02*
X0174560Y0031635D01*
X0174560Y0030436D02*
X0176364Y0030436D01*
X0176364Y0029238D02*
X0174270Y0029238D01*
X0172494Y0028039D02*
X0176364Y0028039D01*
X0176364Y0026841D02*
X0172470Y0026841D01*
X0172445Y0025642D02*
X0175203Y0025642D01*
X0174005Y0024443D02*
X0172420Y0024443D01*
X0172404Y0023245D02*
X0173103Y0023245D01*
X0173103Y0022046D02*
X0172393Y0022046D01*
X0172393Y0020848D02*
X0173103Y0020848D01*
X0173103Y0019649D02*
X0172393Y0019649D01*
X0171564Y0018451D02*
X0174216Y0018451D01*
X0175415Y0017252D02*
X0170366Y0017252D01*
X0167593Y0021267D02*
X0170004Y0023679D01*
X0170201Y0033226D01*
X0170890Y0034506D01*
X0170890Y0039525D01*
X0170949Y0039584D01*
X0170949Y0042545D01*
X0170890Y0042604D01*
X0168921Y0042604D02*
X0168921Y0048777D01*
X0167839Y0049860D01*
X0163320Y0037627D02*
X0162120Y0037627D01*
X0162120Y0037779D02*
X0159951Y0037779D01*
X0159544Y0037670D01*
X0159179Y0037459D01*
X0158881Y0037161D01*
X0158670Y0036796D01*
X0158561Y0036389D01*
X0158561Y0033826D01*
X0162120Y0033826D01*
X0162120Y0037779D01*
X0162120Y0036429D02*
X0163320Y0036429D01*
X0163320Y0035230D02*
X0162120Y0035230D01*
X0162120Y0034032D02*
X0163320Y0034032D01*
X0162120Y0032833D02*
X0151391Y0032833D01*
X0151636Y0034032D02*
X0158561Y0034032D01*
X0158561Y0035230D02*
X0151636Y0035230D01*
X0151636Y0036429D02*
X0158572Y0036429D01*
X0159470Y0037627D02*
X0151636Y0037627D01*
X0149236Y0033915D02*
X0149236Y0042604D01*
X0141362Y0042604D02*
X0141362Y0037901D01*
X0139837Y0036376D01*
X0137500Y0038826D02*
X0133584Y0038826D01*
X0134009Y0038401D02*
X0132954Y0039455D01*
X0125558Y0039455D01*
X0125467Y0039364D01*
X0125277Y0039554D01*
X0120459Y0039554D01*
X0120435Y0039576D01*
X0120435Y0041469D01*
X0120979Y0041469D01*
X0120979Y0045421D01*
X0122179Y0045421D01*
X0122179Y0041469D01*
X0124348Y0041469D01*
X0124755Y0041578D01*
X0125120Y0041788D01*
X0125177Y0041846D01*
X0125754Y0041269D01*
X0129121Y0041269D01*
X0129121Y0041033D01*
X0130469Y0039686D01*
X0138962Y0039686D01*
X0138962Y0039677D01*
X0137920Y0039245D01*
X0136968Y0038293D01*
X0136452Y0037049D01*
X0136452Y0035703D01*
X0136968Y0034459D01*
X0137296Y0034130D01*
X0134111Y0034130D01*
X0134009Y0034028D01*
X0134009Y0038401D01*
X0134009Y0037627D02*
X0136692Y0037627D01*
X0136452Y0036429D02*
X0134009Y0036429D01*
X0134009Y0035230D02*
X0136648Y0035230D01*
X0134012Y0034032D02*
X0134009Y0034032D01*
X0129256Y0035096D02*
X0129157Y0034998D01*
X0121579Y0035195D01*
X0118035Y0038541D01*
X0118035Y0041592D01*
X0117150Y0042478D01*
X0117150Y0044545D01*
X0114443Y0047252D01*
X0112720Y0047252D01*
X0112519Y0047453D01*
X0112519Y0060922D01*
X0107963Y0062796D02*
X0106761Y0062796D01*
X0106761Y0063994D02*
X0107963Y0063994D01*
X0108733Y0065193D02*
X0106510Y0065193D01*
X0106961Y0066391D02*
X0114166Y0066391D01*
X0114919Y0056366D02*
X0116021Y0056366D01*
X0116026Y0056371D01*
X0116026Y0055811D01*
X0116422Y0054856D01*
X0117153Y0054124D01*
X0120703Y0050574D01*
X0118809Y0050574D01*
X0118402Y0050465D01*
X0118037Y0050254D01*
X0117739Y0049957D01*
X0117529Y0049592D01*
X0117420Y0049185D01*
X0117420Y0047669D01*
X0115802Y0049286D01*
X0114920Y0049652D01*
X0114919Y0049652D01*
X0114919Y0056366D01*
X0114919Y0055605D02*
X0116112Y0055605D01*
X0116871Y0054406D02*
X0114919Y0054406D01*
X0114919Y0053208D02*
X0118070Y0053208D01*
X0117153Y0054124D02*
X0117153Y0054124D01*
X0119268Y0052009D02*
X0114919Y0052009D01*
X0114919Y0050811D02*
X0120467Y0050811D01*
X0117642Y0049860D02*
X0121480Y0046021D01*
X0121579Y0046021D01*
X0120979Y0044818D02*
X0122179Y0044818D01*
X0122179Y0043620D02*
X0120979Y0043620D01*
X0120979Y0042421D02*
X0122179Y0042421D01*
X0120435Y0041223D02*
X0129121Y0041223D01*
X0130130Y0040024D02*
X0120435Y0040024D01*
X0114681Y0043620D02*
X0099971Y0043620D01*
X0100101Y0035230D02*
X0107465Y0035230D01*
X0108514Y0034032D02*
X0100101Y0034032D01*
X0100101Y0032833D02*
X0110554Y0032833D01*
X0113912Y0032833D02*
X0116826Y0032833D01*
X0116826Y0034032D02*
X0115952Y0034032D01*
X0117081Y0031635D02*
X0100101Y0031635D01*
X0100101Y0030436D02*
X0117026Y0030436D01*
X0117026Y0029238D02*
X0100101Y0029238D01*
X0099351Y0028039D02*
X0120979Y0028039D01*
X0120979Y0027114D02*
X0117026Y0027114D01*
X0117026Y0024945D01*
X0117135Y0024538D01*
X0117346Y0024173D01*
X0117644Y0023875D01*
X0118008Y0023664D01*
X0118415Y0023555D01*
X0120979Y0023555D01*
X0120979Y0027114D01*
X0120979Y0026841D02*
X0122179Y0026841D01*
X0122179Y0028039D02*
X0128656Y0028039D01*
X0128656Y0027016D02*
X0129856Y0027016D01*
X0129856Y0023457D01*
X0130479Y0023457D01*
X0130479Y0021307D01*
X0129710Y0021307D01*
X0129710Y0024491D01*
X0128656Y0024491D01*
X0128656Y0027016D01*
X0128656Y0026841D02*
X0129856Y0026841D01*
X0129856Y0025642D02*
X0128656Y0025642D01*
X0129710Y0024443D02*
X0129856Y0024443D01*
X0129710Y0023245D02*
X0130479Y0023245D01*
X0130479Y0022046D02*
X0129710Y0022046D01*
X0129710Y0020848D02*
X0117733Y0020848D01*
X0117733Y0019649D02*
X0126526Y0019649D01*
X0126819Y0018451D02*
X0117424Y0018451D01*
X0116928Y0017252D02*
X0134910Y0017252D01*
X0133488Y0018451D02*
X0133370Y0018451D01*
X0137000Y0020923D02*
X0137612Y0020767D01*
X0137415Y0029378D01*
X0139929Y0024443D02*
X0144281Y0024443D01*
X0143082Y0023245D02*
X0140574Y0023245D01*
X0140768Y0022046D02*
X0142601Y0022046D01*
X0142601Y0020848D02*
X0140768Y0020848D01*
X0140768Y0019649D02*
X0142601Y0019649D01*
X0142937Y0018451D02*
X0140512Y0018451D01*
X0139090Y0017252D02*
X0144135Y0017252D01*
X0145334Y0016054D02*
X0115774Y0016054D01*
X0113483Y0014855D02*
X0197035Y0014855D01*
X0197035Y0016054D02*
X0149467Y0016054D01*
X0150666Y0017252D02*
X0154588Y0017252D01*
X0153389Y0018451D02*
X0151864Y0018451D01*
X0152201Y0019649D02*
X0152542Y0019649D01*
X0152542Y0020848D02*
X0152201Y0020848D01*
X0152201Y0022046D02*
X0152542Y0022046D01*
X0152542Y0023245D02*
X0151719Y0023245D01*
X0150521Y0024443D02*
X0153710Y0024443D01*
X0154908Y0025642D02*
X0149217Y0025642D01*
X0149255Y0026841D02*
X0160710Y0026841D01*
X0161909Y0028039D02*
X0149255Y0028039D01*
X0149255Y0029238D02*
X0158934Y0029238D01*
X0158561Y0030436D02*
X0149255Y0030436D01*
X0150376Y0031635D02*
X0158561Y0031635D01*
X0162120Y0031635D02*
X0163320Y0031635D01*
X0163320Y0030436D02*
X0162120Y0030436D01*
X0162120Y0029238D02*
X0163107Y0029238D01*
X0162793Y0022046D02*
X0162421Y0022046D01*
X0162142Y0020848D02*
X0162793Y0020848D01*
X0162793Y0019649D02*
X0162142Y0019649D01*
X0161294Y0018451D02*
X0163621Y0018451D01*
X0164819Y0017252D02*
X0160095Y0017252D01*
X0144896Y0029378D02*
X0149236Y0033915D01*
X0133488Y0042380D02*
X0133488Y0046710D01*
X0132799Y0046021D01*
X0129059Y0046021D01*
X0133488Y0050478D02*
X0124476Y0050478D01*
X0117541Y0049612D02*
X0115016Y0049612D01*
X0116675Y0048414D02*
X0117420Y0048414D01*
X0113482Y0044818D02*
X0112563Y0044818D01*
X0112720Y0047252D02*
X0111644Y0047252D01*
X0108785Y0042421D02*
X0090081Y0042421D01*
X0091120Y0043620D02*
X0080315Y0043620D01*
X0081513Y0042421D02*
X0083185Y0042421D01*
X0087636Y0047215D02*
X0075707Y0047215D01*
X0075707Y0046017D02*
X0088835Y0046017D01*
X0090989Y0044818D02*
X0075707Y0044818D01*
X0075388Y0048414D02*
X0086438Y0048414D01*
X0085239Y0049612D02*
X0074469Y0049612D01*
X0073866Y0050811D02*
X0073271Y0050811D01*
X0068907Y0045558D02*
X0068907Y0044202D01*
X0068145Y0043440D01*
X0068145Y0039784D01*
X0068434Y0039495D01*
X0068345Y0039165D01*
X0068345Y0037872D01*
X0072307Y0037872D01*
X0072307Y0037872D01*
X0068345Y0037872D01*
X0068345Y0036578D01*
X0068434Y0036248D01*
X0068145Y0035960D01*
X0068145Y0032303D01*
X0069200Y0031249D01*
X0070066Y0031249D01*
X0070066Y0027191D01*
X0069445Y0026569D01*
X0066587Y0026569D01*
X0066587Y0031373D01*
X0065945Y0032016D01*
X0066233Y0032303D01*
X0066233Y0035960D01*
X0065178Y0037014D01*
X0058963Y0037014D01*
X0057908Y0035960D01*
X0057908Y0032303D01*
X0057960Y0032251D01*
X0057082Y0031373D01*
X0057082Y0026509D01*
X0056976Y0026404D01*
X0056976Y0032766D01*
X0056541Y0033201D01*
X0056976Y0033637D01*
X0056976Y0038435D01*
X0062490Y0038435D01*
X0063201Y0038729D01*
X0065178Y0038729D01*
X0066233Y0039784D01*
X0066233Y0043440D01*
X0065178Y0044495D01*
X0063221Y0044495D01*
X0063257Y0044630D01*
X0063257Y0046799D01*
X0059305Y0046799D01*
X0059305Y0047999D01*
X0063257Y0047999D01*
X0063257Y0050169D01*
X0063148Y0050576D01*
X0062938Y0050941D01*
X0062881Y0050998D01*
X0063075Y0051192D01*
X0063413Y0051052D01*
X0068907Y0045558D01*
X0068448Y0046017D02*
X0063257Y0046017D01*
X0063257Y0044818D02*
X0068907Y0044818D01*
X0068325Y0043620D02*
X0066053Y0043620D01*
X0066233Y0042421D02*
X0068145Y0042421D01*
X0068145Y0041223D02*
X0066233Y0041223D01*
X0066233Y0040024D02*
X0068145Y0040024D01*
X0068345Y0038826D02*
X0065275Y0038826D01*
X0065764Y0036429D02*
X0068385Y0036429D01*
X0068345Y0037627D02*
X0056976Y0037627D01*
X0056976Y0036429D02*
X0058377Y0036429D01*
X0057908Y0035230D02*
X0056976Y0035230D01*
X0056976Y0034032D02*
X0057908Y0034032D01*
X0057908Y0032833D02*
X0056909Y0032833D01*
X0056976Y0031635D02*
X0057343Y0031635D01*
X0057082Y0030436D02*
X0056976Y0030436D01*
X0056976Y0029238D02*
X0057082Y0029238D01*
X0057082Y0028039D02*
X0056976Y0028039D01*
X0056976Y0026841D02*
X0057082Y0026841D01*
X0052583Y0028541D02*
X0052652Y0023384D01*
X0049277Y0023245D02*
X0044245Y0023245D01*
X0044245Y0022046D02*
X0049277Y0022046D01*
X0049492Y0020848D02*
X0044245Y0020848D01*
X0044245Y0019649D02*
X0049277Y0019649D01*
X0049277Y0018451D02*
X0044245Y0018451D01*
X0044245Y0017252D02*
X0049277Y0017252D01*
X0049277Y0016054D02*
X0044245Y0016054D01*
X0044198Y0014855D02*
X0049579Y0014855D01*
X0055724Y0014855D02*
X0085383Y0014855D01*
X0087883Y0014855D02*
X0110983Y0014855D01*
X0108692Y0016054D02*
X0090174Y0016054D01*
X0091328Y0017252D02*
X0107538Y0017252D01*
X0108608Y0024443D02*
X0090258Y0024443D01*
X0089233Y0025642D02*
X0110780Y0025642D01*
X0113686Y0025642D02*
X0117026Y0025642D01*
X0117026Y0026841D02*
X0089233Y0026841D01*
X0089233Y0028039D02*
X0091740Y0028039D01*
X0090989Y0029238D02*
X0089233Y0029238D01*
X0089137Y0030436D02*
X0090611Y0030436D01*
X0089412Y0031635D02*
X0088363Y0031635D01*
X0083406Y0029238D02*
X0074666Y0029238D01*
X0074666Y0030436D02*
X0082208Y0030436D01*
X0081009Y0031635D02*
X0075801Y0031635D01*
X0076470Y0032833D02*
X0079811Y0032833D01*
X0078612Y0034032D02*
X0076470Y0034032D01*
X0076470Y0035230D02*
X0077778Y0035230D01*
X0077640Y0036429D02*
X0076230Y0036429D01*
X0076270Y0037627D02*
X0077640Y0037627D01*
X0077640Y0038826D02*
X0076270Y0038826D01*
X0076270Y0037872D02*
X0072308Y0037872D01*
X0072308Y0037872D01*
X0076270Y0037872D01*
X0072307Y0034132D02*
X0072268Y0034092D01*
X0068814Y0031635D02*
X0066326Y0031635D01*
X0066233Y0032833D02*
X0068145Y0032833D01*
X0068145Y0034032D02*
X0066233Y0034032D01*
X0066233Y0035230D02*
X0068145Y0035230D01*
X0066587Y0030436D02*
X0070066Y0030436D01*
X0070066Y0029238D02*
X0066587Y0029238D01*
X0066587Y0028039D02*
X0070066Y0028039D01*
X0069716Y0026841D02*
X0066587Y0026841D01*
X0071427Y0022046D02*
X0081407Y0022046D01*
X0081133Y0020848D02*
X0062435Y0020848D01*
X0062435Y0019988D02*
X0066387Y0019988D01*
X0066387Y0017819D01*
X0066278Y0017412D01*
X0066068Y0017047D01*
X0065770Y0016749D01*
X0065405Y0016538D01*
X0064998Y0016429D01*
X0062435Y0016429D01*
X0062435Y0019988D01*
X0062435Y0019649D02*
X0061235Y0019649D01*
X0061235Y0018451D02*
X0062435Y0018451D01*
X0062435Y0017252D02*
X0061235Y0017252D01*
X0057483Y0017252D02*
X0056026Y0017252D01*
X0056026Y0016054D02*
X0083092Y0016054D01*
X0081938Y0017252D02*
X0066186Y0017252D01*
X0066387Y0018451D02*
X0081442Y0018451D01*
X0081133Y0019649D02*
X0066387Y0019649D01*
X0072626Y0023245D02*
X0081904Y0023245D01*
X0083008Y0024443D02*
X0073824Y0024443D01*
X0074666Y0025642D02*
X0084033Y0025642D01*
X0084033Y0026841D02*
X0074666Y0026841D01*
X0074666Y0028039D02*
X0084033Y0028039D01*
X0091279Y0041223D02*
X0107587Y0041223D01*
X0120979Y0025642D02*
X0122179Y0025642D01*
X0122179Y0024443D02*
X0120979Y0024443D01*
X0117189Y0024443D02*
X0115858Y0024443D01*
X0116962Y0023245D02*
X0126732Y0023245D01*
X0126526Y0022046D02*
X0117459Y0022046D01*
X0129710Y0019649D02*
X0130479Y0019649D01*
X0130479Y0018451D02*
X0129710Y0018451D01*
X0133488Y0046710D02*
X0133488Y0050478D01*
X0133488Y0052447D02*
X0136961Y0052447D01*
X0140280Y0055765D01*
X0133488Y0058352D02*
X0128047Y0058352D01*
X0125909Y0060490D01*
X0125909Y0070332D01*
X0133488Y0068195D02*
X0139913Y0068195D01*
X0142789Y0068167D01*
X0124692Y0099950D02*
X0122127Y0099950D01*
X0120929Y0101148D02*
X0124692Y0101148D01*
X0124692Y0102347D02*
X0120840Y0102347D01*
X0121723Y0103545D02*
X0124692Y0103545D01*
X0124692Y0104744D02*
X0122015Y0104744D01*
X0123153Y0105942D02*
X0123154Y0105942D01*
X0123153Y0107141D02*
X0123154Y0107141D01*
X0123153Y0108339D02*
X0123154Y0108339D01*
X0123153Y0109538D02*
X0123154Y0109538D01*
X0123153Y0110736D02*
X0123154Y0110736D01*
X0122813Y0111935D02*
X0124692Y0111935D01*
X0124692Y0113133D02*
X0123576Y0113133D01*
X0123576Y0114332D02*
X0124692Y0114332D01*
X0124692Y0115530D02*
X0123576Y0115530D01*
X0123576Y0116729D02*
X0124692Y0116729D01*
X0124692Y0117927D02*
X0122986Y0117927D01*
X0124692Y0119126D02*
X0119880Y0119126D01*
X0118682Y0120324D02*
X0124692Y0120324D01*
X0124692Y0121523D02*
X0117483Y0121523D01*
X0116285Y0122721D02*
X0124692Y0122721D01*
X0124692Y0123920D02*
X0113084Y0123920D01*
X0113084Y0125118D02*
X0124692Y0125118D01*
X0124692Y0126317D02*
X0113084Y0126317D01*
X0113084Y0127515D02*
X0124692Y0127515D01*
X0114276Y0121336D02*
X0120594Y0115017D01*
X0118035Y0108718D02*
X0118631Y0108123D01*
X0118631Y0104924D01*
X0114140Y0101148D02*
X0094836Y0101148D01*
X0094836Y0102347D02*
X0112942Y0102347D01*
X0111743Y0103545D02*
X0094836Y0103545D01*
X0094836Y0104744D02*
X0110545Y0104744D01*
X0109346Y0105942D02*
X0094836Y0105942D01*
X0094836Y0107141D02*
X0108148Y0107141D01*
X0106949Y0108339D02*
X0094836Y0108339D01*
X0094836Y0109538D02*
X0105751Y0109538D01*
X0104552Y0110736D02*
X0094234Y0110736D01*
X0098560Y0116729D02*
X0067242Y0116729D01*
X0066562Y0115877D02*
X0068500Y0118307D01*
X0069191Y0121336D01*
X0068500Y0124366D01*
X0066562Y0126796D01*
X0063762Y0128144D01*
X0060655Y0128144D01*
X0057855Y0126796D01*
X0057855Y0126796D01*
X0057855Y0126796D01*
X0055917Y0124366D01*
X0055226Y0121336D01*
X0055917Y0118307D01*
X0057855Y0115877D01*
X0057855Y0115877D01*
X0060655Y0114529D01*
X0063762Y0114529D01*
X0066562Y0115877D01*
X0065842Y0115530D02*
X0099758Y0115530D01*
X0100957Y0114332D02*
X0003800Y0114332D01*
X0003800Y0115530D02*
X0058575Y0115530D01*
X0057176Y0116729D02*
X0003800Y0116729D01*
X0003800Y0117927D02*
X0056220Y0117927D01*
X0055917Y0118307D02*
X0055917Y0118307D01*
X0055730Y0119126D02*
X0018431Y0119126D01*
X0018596Y0119291D02*
X0018596Y0139130D01*
X0018358Y0139368D01*
X0018396Y0139511D01*
X0018396Y0140971D01*
X0013046Y0140971D01*
X0013046Y0141071D01*
X0018396Y0141071D01*
X0018396Y0142532D01*
X0018287Y0142939D01*
X0018258Y0142990D01*
X0018287Y0143041D01*
X0018396Y0143448D01*
X0018396Y0144908D01*
X0013046Y0144908D01*
X0013046Y0141071D01*
X0012946Y0141071D01*
X0012946Y0140971D01*
X0007596Y0140971D01*
X0007596Y0139511D01*
X0007634Y0139368D01*
X0007396Y0139130D01*
X0007396Y0119291D01*
X0008450Y0118236D01*
X0017542Y0118236D01*
X0018596Y0119291D01*
X0018596Y0120324D02*
X0055457Y0120324D01*
X0055226Y0121336D02*
X0055226Y0121336D01*
X0055269Y0121523D02*
X0018596Y0121523D01*
X0018596Y0122721D02*
X0055542Y0122721D01*
X0055816Y0123920D02*
X0018596Y0123920D01*
X0018596Y0125118D02*
X0056518Y0125118D01*
X0055917Y0124366D02*
X0055917Y0124366D01*
X0057473Y0126317D02*
X0018596Y0126317D01*
X0018596Y0127515D02*
X0059350Y0127515D01*
X0065067Y0127515D02*
X0097525Y0127515D01*
X0097525Y0126317D02*
X0066944Y0126317D01*
X0066562Y0126796D02*
X0066562Y0126796D01*
X0067900Y0125118D02*
X0097525Y0125118D01*
X0097525Y0123920D02*
X0068602Y0123920D01*
X0068500Y0124366D02*
X0068500Y0124366D01*
X0068875Y0122721D02*
X0097525Y0122721D01*
X0097525Y0121523D02*
X0069149Y0121523D01*
X0068960Y0120324D02*
X0097525Y0120324D01*
X0097525Y0119126D02*
X0068687Y0119126D01*
X0068500Y0118307D02*
X0068500Y0118307D01*
X0068197Y0117927D02*
X0097671Y0117927D01*
X0102155Y0113133D02*
X0003800Y0113133D01*
X0003800Y0111935D02*
X0103354Y0111935D01*
X0107484Y0121336D02*
X0114276Y0121336D01*
X0101884Y0131111D02*
X0018596Y0131111D01*
X0018596Y0132309D02*
X0101884Y0132309D01*
X0101884Y0133508D02*
X0018596Y0133508D01*
X0018596Y0134707D02*
X0101884Y0134707D01*
X0101884Y0135905D02*
X0018596Y0135905D01*
X0018596Y0137104D02*
X0101884Y0137104D01*
X0101884Y0138302D02*
X0018596Y0138302D01*
X0018393Y0139501D02*
X0101884Y0139501D01*
X0101884Y0140699D02*
X0018396Y0140699D01*
X0018396Y0141898D02*
X0101884Y0141898D01*
X0101884Y0143096D02*
X0018302Y0143096D01*
X0018396Y0144295D02*
X0101884Y0144295D01*
X0101884Y0145493D02*
X0018396Y0145493D01*
X0018396Y0145008D02*
X0018396Y0146469D01*
X0018358Y0146612D01*
X0018596Y0146850D01*
X0018596Y0166689D01*
X0018358Y0166927D01*
X0018396Y0167070D01*
X0018396Y0168530D01*
X0013046Y0168530D01*
X0013046Y0168630D01*
X0018396Y0168630D01*
X0018396Y0170091D01*
X0018358Y0170234D01*
X0018596Y0170472D01*
X0018596Y0186374D01*
X0017542Y0187428D01*
X0008450Y0187428D01*
X0007396Y0186374D01*
X0007396Y0170472D01*
X0007634Y0170234D01*
X0007596Y0170091D01*
X0007596Y0168630D01*
X0012946Y0168630D01*
X0012946Y0168530D01*
X0007596Y0168530D01*
X0007596Y0167070D01*
X0007634Y0166927D01*
X0007396Y0166689D01*
X0007396Y0146850D01*
X0007634Y0146612D01*
X0007596Y0146469D01*
X0007596Y0145008D01*
X0012946Y0145008D01*
X0012946Y0144908D01*
X0013046Y0144908D01*
X0013046Y0145008D01*
X0018396Y0145008D01*
X0018438Y0146692D02*
X0101884Y0146692D01*
X0101884Y0147890D02*
X0018596Y0147890D01*
X0018596Y0149089D02*
X0101884Y0149089D01*
X0101884Y0150287D02*
X0018596Y0150287D01*
X0018596Y0151486D02*
X0101884Y0151486D01*
X0101884Y0152684D02*
X0018596Y0152684D01*
X0018596Y0153883D02*
X0101884Y0153883D01*
X0101884Y0155081D02*
X0018596Y0155081D01*
X0018596Y0156280D02*
X0101884Y0156280D01*
X0101884Y0157478D02*
X0018596Y0157478D01*
X0018596Y0158677D02*
X0101884Y0158677D01*
X0101884Y0159875D02*
X0018596Y0159875D01*
X0018596Y0161074D02*
X0101884Y0161074D01*
X0101884Y0162272D02*
X0018596Y0162272D01*
X0018596Y0163471D02*
X0101884Y0163471D01*
X0101884Y0164669D02*
X0018596Y0164669D01*
X0018596Y0165868D02*
X0101884Y0165868D01*
X0101884Y0167066D02*
X0018395Y0167066D01*
X0018396Y0168265D02*
X0101884Y0168265D01*
X0101884Y0169463D02*
X0018396Y0169463D01*
X0018596Y0170662D02*
X0101884Y0170662D01*
X0101884Y0171860D02*
X0018596Y0171860D01*
X0018596Y0173059D02*
X0101884Y0173059D01*
X0101884Y0174257D02*
X0018596Y0174257D01*
X0018596Y0175456D02*
X0101884Y0175456D01*
X0101884Y0176654D02*
X0018596Y0176654D01*
X0018596Y0177853D02*
X0041376Y0177853D01*
X0038649Y0179051D02*
X0018596Y0179051D01*
X0018596Y0180250D02*
X0021602Y0180250D01*
X0020803Y0181448D02*
X0018596Y0181448D01*
X0018596Y0182647D02*
X0020803Y0182647D01*
X0020803Y0183845D02*
X0018596Y0183845D01*
X0018596Y0185044D02*
X0020803Y0185044D01*
X0020943Y0186243D02*
X0018596Y0186243D01*
X0021881Y0187441D02*
X0003800Y0187441D01*
X0003800Y0186243D02*
X0007396Y0186243D01*
X0007396Y0185044D02*
X0003800Y0185044D01*
X0003800Y0183845D02*
X0007396Y0183845D01*
X0007396Y0182647D02*
X0003800Y0182647D01*
X0003800Y0181448D02*
X0007396Y0181448D01*
X0007396Y0180250D02*
X0003800Y0180250D01*
X0003800Y0179051D02*
X0007396Y0179051D01*
X0007396Y0177853D02*
X0003800Y0177853D01*
X0003800Y0176654D02*
X0007396Y0176654D01*
X0007396Y0175456D02*
X0003800Y0175456D01*
X0003800Y0174257D02*
X0007396Y0174257D01*
X0007396Y0173059D02*
X0003800Y0173059D01*
X0003800Y0171860D02*
X0007396Y0171860D01*
X0007396Y0170662D02*
X0003800Y0170662D01*
X0003800Y0169463D02*
X0007596Y0169463D01*
X0007596Y0168265D02*
X0003800Y0168265D01*
X0003800Y0167066D02*
X0007597Y0167066D01*
X0007396Y0165868D02*
X0003800Y0165868D01*
X0003800Y0164669D02*
X0007396Y0164669D01*
X0007396Y0163471D02*
X0003800Y0163471D01*
X0003800Y0162272D02*
X0007396Y0162272D01*
X0007396Y0161074D02*
X0003800Y0161074D01*
X0003800Y0159875D02*
X0007396Y0159875D01*
X0007396Y0158677D02*
X0003800Y0158677D01*
X0003800Y0157478D02*
X0007396Y0157478D01*
X0007396Y0156280D02*
X0003800Y0156280D01*
X0003800Y0155081D02*
X0007396Y0155081D01*
X0007396Y0153883D02*
X0003800Y0153883D01*
X0003800Y0152684D02*
X0007396Y0152684D01*
X0007396Y0151486D02*
X0003800Y0151486D01*
X0003800Y0150287D02*
X0007396Y0150287D01*
X0007396Y0149089D02*
X0003800Y0149089D01*
X0003800Y0147890D02*
X0007396Y0147890D01*
X0007554Y0146692D02*
X0003800Y0146692D01*
X0003800Y0145493D02*
X0007596Y0145493D01*
X0007596Y0144908D02*
X0007596Y0143448D01*
X0007705Y0143041D01*
X0007735Y0142990D01*
X0007705Y0142939D01*
X0007596Y0142532D01*
X0007596Y0141071D01*
X0012946Y0141071D01*
X0012946Y0143921D01*
X0012946Y0144908D01*
X0007596Y0144908D01*
X0007596Y0144295D02*
X0003800Y0144295D01*
X0003800Y0143096D02*
X0007690Y0143096D01*
X0007596Y0141898D02*
X0003800Y0141898D01*
X0003800Y0140699D02*
X0007596Y0140699D01*
X0007599Y0139501D02*
X0003800Y0139501D01*
X0003800Y0138302D02*
X0007396Y0138302D01*
X0007396Y0137104D02*
X0003800Y0137104D01*
X0003800Y0135905D02*
X0007396Y0135905D01*
X0007396Y0134707D02*
X0003800Y0134707D01*
X0003800Y0133508D02*
X0007396Y0133508D01*
X0007396Y0132309D02*
X0003800Y0132309D01*
X0003800Y0131111D02*
X0007396Y0131111D01*
X0007396Y0129912D02*
X0003800Y0129912D01*
X0003800Y0128714D02*
X0007396Y0128714D01*
X0007396Y0127515D02*
X0003800Y0127515D01*
X0003800Y0126317D02*
X0007396Y0126317D01*
X0007396Y0125118D02*
X0003800Y0125118D01*
X0003800Y0123920D02*
X0007396Y0123920D01*
X0007396Y0122721D02*
X0003800Y0122721D01*
X0003800Y0121523D02*
X0007396Y0121523D01*
X0007396Y0120324D02*
X0003800Y0120324D01*
X0003800Y0119126D02*
X0007561Y0119126D01*
X0003800Y0110736D02*
X0026247Y0110736D01*
X0026698Y0111188D02*
X0025644Y0110134D01*
X0025644Y0101043D01*
X0026698Y0099988D01*
X0030790Y0099988D01*
X0031028Y0100226D01*
X0031170Y0100188D01*
X0032631Y0100188D01*
X0032631Y0105538D01*
X0032731Y0105538D01*
X0032731Y0100188D01*
X0034192Y0100188D01*
X0034599Y0100297D01*
X0034650Y0100327D01*
X0034701Y0100297D01*
X0035107Y0100188D01*
X0036568Y0100188D01*
X0036568Y0105538D01*
X0033718Y0105538D01*
X0032731Y0105538D01*
X0032731Y0105638D01*
X0036568Y0105638D01*
X0036568Y0110988D01*
X0035107Y0110988D01*
X0034701Y0110879D01*
X0034650Y0110850D01*
X0034599Y0110879D01*
X0034192Y0110988D01*
X0032731Y0110988D01*
X0032731Y0105638D01*
X0032631Y0105638D01*
X0032631Y0110988D01*
X0031170Y0110988D01*
X0031028Y0110950D01*
X0030790Y0111188D01*
X0026698Y0111188D01*
X0025644Y0109538D02*
X0003800Y0109538D01*
X0003800Y0108339D02*
X0025644Y0108339D01*
X0025644Y0107141D02*
X0003800Y0107141D01*
X0003800Y0105942D02*
X0025644Y0105942D01*
X0025644Y0104744D02*
X0003800Y0104744D01*
X0003800Y0103545D02*
X0025644Y0103545D01*
X0025644Y0102347D02*
X0003800Y0102347D01*
X0003800Y0101148D02*
X0025644Y0101148D01*
X0029597Y0096354D02*
X0003800Y0096354D01*
X0003800Y0095156D02*
X0029526Y0095156D01*
X0029526Y0093957D02*
X0003800Y0093957D01*
X0003800Y0092759D02*
X0007077Y0092759D01*
X0007031Y0092712D02*
X0006820Y0092348D01*
X0006711Y0091941D01*
X0006711Y0089830D01*
X0012711Y0089830D01*
X0012711Y0088630D01*
X0013911Y0088630D01*
X0013911Y0085130D01*
X0018522Y0085130D01*
X0018929Y0085239D01*
X0019293Y0085450D01*
X0019591Y0085748D01*
X0019802Y0086112D01*
X0019911Y0086519D01*
X0019911Y0088630D01*
X0013911Y0088630D01*
X0013911Y0089830D01*
X0012711Y0089830D01*
X0012711Y0093330D01*
X0008100Y0093330D01*
X0007693Y0093221D01*
X0007329Y0093010D01*
X0007031Y0092712D01*
X0006711Y0091560D02*
X0003800Y0091560D01*
X0003800Y0090362D02*
X0006711Y0090362D01*
X0006711Y0088630D02*
X0006711Y0086519D01*
X0006820Y0086112D01*
X0007031Y0085748D01*
X0007329Y0085450D01*
X0007693Y0085239D01*
X0008100Y0085130D01*
X0012711Y0085130D01*
X0012711Y0088630D01*
X0006711Y0088630D01*
X0006711Y0087965D02*
X0003800Y0087965D01*
X0003800Y0089163D02*
X0012711Y0089163D01*
X0012711Y0087965D02*
X0013911Y0087965D01*
X0013911Y0089163D02*
X0029746Y0089163D01*
X0029526Y0090362D02*
X0019911Y0090362D01*
X0019911Y0089830D02*
X0019911Y0091941D01*
X0019802Y0092348D01*
X0019591Y0092712D01*
X0019293Y0093010D01*
X0018929Y0093221D01*
X0018522Y0093330D01*
X0013911Y0093330D01*
X0013911Y0089830D01*
X0019911Y0089830D01*
X0019911Y0091560D02*
X0029526Y0091560D01*
X0029049Y0087965D02*
X0027849Y0087965D01*
X0027849Y0086766D02*
X0029049Y0086766D01*
X0029049Y0085568D02*
X0027849Y0085568D01*
X0027849Y0084369D02*
X0029049Y0084369D01*
X0029049Y0083171D02*
X0027849Y0083171D01*
X0027849Y0081972D02*
X0003800Y0081972D01*
X0003800Y0080774D02*
X0021829Y0080774D01*
X0021829Y0079575D02*
X0003800Y0079575D01*
X0003800Y0078376D02*
X0021829Y0078376D01*
X0021848Y0077178D02*
X0003800Y0077178D01*
X0003800Y0075979D02*
X0017890Y0075979D01*
X0016691Y0074781D02*
X0003800Y0074781D01*
X0003800Y0073582D02*
X0015493Y0073582D01*
X0014294Y0072384D02*
X0003800Y0072384D01*
X0003800Y0071185D02*
X0007859Y0071185D01*
X0007003Y0069987D02*
X0003800Y0069987D01*
X0003800Y0068788D02*
X0007003Y0068788D01*
X0007003Y0067590D02*
X0003800Y0067590D01*
X0003800Y0066391D02*
X0007003Y0066391D01*
X0007003Y0065193D02*
X0003800Y0065193D01*
X0003800Y0063994D02*
X0007003Y0063994D01*
X0008046Y0062796D02*
X0003800Y0062796D01*
X0003800Y0061597D02*
X0047031Y0061597D01*
X0045814Y0062796D02*
X0019560Y0062796D01*
X0018387Y0060361D02*
X0007054Y0060361D01*
X0005999Y0059306D01*
X0005999Y0049941D01*
X0007054Y0048887D01*
X0018387Y0048887D01*
X0019442Y0049941D01*
X0019442Y0059306D01*
X0018387Y0060361D01*
X0019442Y0059200D02*
X0027653Y0059200D01*
X0027653Y0059306D02*
X0027653Y0049941D01*
X0028707Y0048887D01*
X0043190Y0048887D01*
X0044245Y0049941D01*
X0044245Y0059306D01*
X0043190Y0060361D01*
X0028707Y0060361D01*
X0027653Y0059306D01*
X0027653Y0058002D02*
X0019442Y0058002D01*
X0019442Y0056803D02*
X0027653Y0056803D01*
X0027653Y0055605D02*
X0019442Y0055605D01*
X0019442Y0054406D02*
X0027653Y0054406D01*
X0027653Y0053208D02*
X0019442Y0053208D01*
X0019442Y0052009D02*
X0027653Y0052009D01*
X0027653Y0050811D02*
X0019442Y0050811D01*
X0019113Y0049612D02*
X0027982Y0049612D01*
X0026934Y0048414D02*
X0044602Y0048414D01*
X0044602Y0049612D02*
X0043916Y0049612D01*
X0044245Y0050811D02*
X0044602Y0050811D01*
X0044871Y0052009D02*
X0044245Y0052009D01*
X0044245Y0053208D02*
X0044802Y0053208D01*
X0044802Y0054406D02*
X0044245Y0054406D01*
X0044245Y0055605D02*
X0048754Y0055605D01*
X0048754Y0055637D02*
X0044802Y0055637D01*
X0044802Y0057807D01*
X0044911Y0058214D01*
X0045121Y0058579D01*
X0045419Y0058876D01*
X0045784Y0059087D01*
X0046191Y0059196D01*
X0048754Y0059196D01*
X0048754Y0055637D01*
X0048754Y0056803D02*
X0049954Y0056803D01*
X0049954Y0055637D02*
X0053088Y0055637D01*
X0053952Y0054787D01*
X0053952Y0051575D01*
X0054529Y0050998D01*
X0054472Y0050941D01*
X0054261Y0050576D01*
X0054152Y0050169D01*
X0054152Y0047999D01*
X0058105Y0047999D01*
X0058105Y0046799D01*
X0055133Y0046799D01*
X0055121Y0046825D01*
X0054670Y0047246D01*
X0054233Y0047683D01*
X0054177Y0047706D01*
X0054107Y0047772D01*
X0054107Y0050861D01*
X0053530Y0051438D01*
X0053587Y0051496D01*
X0053798Y0051860D01*
X0053907Y0052267D01*
X0053907Y0054437D01*
X0049954Y0054437D01*
X0049954Y0055637D01*
X0049954Y0055605D02*
X0053121Y0055605D01*
X0053907Y0054406D02*
X0053952Y0054406D01*
X0053907Y0053208D02*
X0053952Y0053208D01*
X0053952Y0052009D02*
X0053838Y0052009D01*
X0054107Y0050811D02*
X0054397Y0050811D01*
X0054152Y0049612D02*
X0054107Y0049612D01*
X0054107Y0048414D02*
X0054152Y0048414D01*
X0054703Y0047215D02*
X0058105Y0047215D01*
X0059305Y0047215D02*
X0067250Y0047215D01*
X0066051Y0048414D02*
X0063257Y0048414D01*
X0063257Y0049612D02*
X0064853Y0049612D01*
X0063654Y0050811D02*
X0063013Y0050811D01*
X0069422Y0058002D02*
X0074108Y0058002D01*
X0073499Y0061597D02*
X0069422Y0061597D01*
X0069422Y0060399D02*
X0084453Y0060399D01*
X0086333Y0058002D02*
X0087436Y0058002D01*
X0087436Y0056803D02*
X0086942Y0056803D01*
X0086942Y0055605D02*
X0087436Y0055605D01*
X0087436Y0054406D02*
X0087234Y0054406D01*
X0087023Y0059200D02*
X0069422Y0059200D01*
X0069422Y0062796D02*
X0073499Y0062796D01*
X0073499Y0063994D02*
X0069422Y0063994D01*
X0069157Y0065193D02*
X0073499Y0065193D01*
X0073499Y0066391D02*
X0069222Y0066391D01*
X0069222Y0067590D02*
X0073499Y0067590D01*
X0071084Y0075049D02*
X0067253Y0075049D01*
X0066799Y0075140D01*
X0066371Y0075317D01*
X0065986Y0075574D01*
X0065659Y0075901D01*
X0065402Y0076286D01*
X0065225Y0076714D01*
X0065134Y0077168D01*
X0065134Y0077999D01*
X0071084Y0077999D01*
X0071084Y0075049D01*
X0071084Y0075979D02*
X0071384Y0075979D01*
X0071384Y0077178D02*
X0071084Y0077178D01*
X0071084Y0078376D02*
X0071384Y0078376D01*
X0071384Y0079575D02*
X0071084Y0079575D01*
X0071084Y0080774D02*
X0071384Y0080774D01*
X0073718Y0081972D02*
X0068984Y0081972D01*
X0069034Y0083171D02*
X0073634Y0083171D01*
X0073634Y0084369D02*
X0069034Y0084369D01*
X0068885Y0085568D02*
X0073800Y0085568D01*
X0071384Y0086766D02*
X0071084Y0086766D01*
X0071084Y0087965D02*
X0071384Y0087965D01*
X0071384Y0089163D02*
X0090692Y0089163D01*
X0089494Y0090362D02*
X0077288Y0090362D01*
X0077244Y0090585D02*
X0077067Y0091012D01*
X0076810Y0091397D01*
X0076482Y0091725D01*
X0076097Y0091982D01*
X0075670Y0092159D01*
X0075216Y0092249D01*
X0071384Y0092249D01*
X0071384Y0089299D01*
X0077334Y0089299D01*
X0077334Y0090131D01*
X0077244Y0090585D01*
X0076647Y0091560D02*
X0088295Y0091560D01*
X0087097Y0092759D02*
X0062840Y0092759D01*
X0062840Y0093957D02*
X0085898Y0093957D01*
X0084700Y0095156D02*
X0062840Y0095156D01*
X0062840Y0096354D02*
X0083501Y0096354D01*
X0082303Y0097553D02*
X0062840Y0097553D01*
X0062840Y0098751D02*
X0081528Y0098751D01*
X0081462Y0099950D02*
X0062840Y0099950D01*
X0064127Y0101148D02*
X0064227Y0101148D01*
X0064227Y0102347D02*
X0064127Y0102347D01*
X0064127Y0103545D02*
X0064227Y0103545D01*
X0064227Y0104744D02*
X0064127Y0104744D01*
X0064127Y0105942D02*
X0064227Y0105942D01*
X0064227Y0107141D02*
X0064127Y0107141D01*
X0064127Y0108339D02*
X0064227Y0108339D01*
X0064227Y0109538D02*
X0064127Y0109538D01*
X0064127Y0110736D02*
X0064227Y0110736D01*
X0068064Y0110736D02*
X0068164Y0110736D01*
X0068164Y0109538D02*
X0068064Y0109538D01*
X0068064Y0108339D02*
X0068164Y0108339D01*
X0068164Y0107141D02*
X0068064Y0107141D01*
X0068064Y0105942D02*
X0068164Y0105942D01*
X0068164Y0104744D02*
X0068064Y0104744D01*
X0068064Y0103545D02*
X0068164Y0103545D01*
X0068164Y0102347D02*
X0068064Y0102347D01*
X0068064Y0101148D02*
X0068164Y0101148D01*
X0072001Y0101148D02*
X0072101Y0101148D01*
X0072101Y0102347D02*
X0072001Y0102347D01*
X0072001Y0103545D02*
X0072101Y0103545D01*
X0072101Y0104744D02*
X0072001Y0104744D01*
X0072001Y0105942D02*
X0072101Y0105942D01*
X0072101Y0107141D02*
X0072001Y0107141D01*
X0072001Y0108339D02*
X0072101Y0108339D01*
X0072101Y0109538D02*
X0072001Y0109538D01*
X0072001Y0110736D02*
X0072101Y0110736D01*
X0075938Y0110736D02*
X0076038Y0110736D01*
X0076038Y0109538D02*
X0075938Y0109538D01*
X0075938Y0108339D02*
X0076038Y0108339D01*
X0076038Y0107141D02*
X0075938Y0107141D01*
X0075938Y0105942D02*
X0076038Y0105942D01*
X0076038Y0104744D02*
X0075938Y0104744D01*
X0075938Y0103545D02*
X0076038Y0103545D01*
X0076038Y0102347D02*
X0075938Y0102347D01*
X0075938Y0101148D02*
X0076038Y0101148D01*
X0079875Y0101148D02*
X0079975Y0101148D01*
X0079975Y0102347D02*
X0079875Y0102347D01*
X0079875Y0103545D02*
X0079975Y0103545D01*
X0079975Y0104744D02*
X0079875Y0104744D01*
X0079875Y0105942D02*
X0079975Y0105942D01*
X0079975Y0107141D02*
X0079875Y0107141D01*
X0079875Y0108339D02*
X0079975Y0108339D01*
X0079975Y0109538D02*
X0079875Y0109538D01*
X0079875Y0110736D02*
X0079975Y0110736D01*
X0083862Y0105588D02*
X0083862Y0099387D01*
X0090290Y0096354D02*
X0098293Y0096354D01*
X0097094Y0095156D02*
X0091488Y0095156D01*
X0092687Y0093957D02*
X0096109Y0093957D01*
X0096109Y0092759D02*
X0093885Y0092759D01*
X0095084Y0091560D02*
X0096109Y0091560D01*
X0091891Y0087965D02*
X0077294Y0087965D01*
X0077634Y0087249D02*
X0077634Y0084049D01*
X0080834Y0084049D01*
X0080834Y0084905D01*
X0080734Y0085408D01*
X0080538Y0085881D01*
X0080254Y0086307D01*
X0079892Y0086669D01*
X0079466Y0086953D01*
X0078993Y0087149D01*
X0078490Y0087249D01*
X0077634Y0087249D01*
X0077634Y0086766D02*
X0076834Y0086766D01*
X0076834Y0085568D02*
X0077634Y0085568D01*
X0077634Y0084369D02*
X0076834Y0084369D01*
X0076834Y0083171D02*
X0077634Y0083171D01*
X0077634Y0081972D02*
X0076834Y0081972D01*
X0076834Y0080774D02*
X0077634Y0080774D01*
X0080035Y0080774D02*
X0098509Y0080774D01*
X0097884Y0081972D02*
X0080750Y0081972D01*
X0080834Y0083171D02*
X0096685Y0083171D01*
X0095487Y0084369D02*
X0080834Y0084369D01*
X0080668Y0085568D02*
X0094288Y0085568D01*
X0093090Y0086766D02*
X0079746Y0086766D01*
X0071084Y0089163D02*
X0063397Y0089163D01*
X0062840Y0090362D02*
X0065180Y0090362D01*
X0065225Y0090585D02*
X0065134Y0090131D01*
X0065134Y0089299D01*
X0071084Y0089299D01*
X0071084Y0092249D01*
X0067253Y0092249D01*
X0066799Y0092159D01*
X0066371Y0091982D01*
X0065986Y0091725D01*
X0065659Y0091397D01*
X0065402Y0091012D01*
X0065225Y0090585D01*
X0065822Y0091560D02*
X0062840Y0091560D01*
X0064596Y0087965D02*
X0065175Y0087965D01*
X0060838Y0084369D02*
X0055150Y0084369D01*
X0055150Y0083171D02*
X0061434Y0083171D01*
X0061484Y0081972D02*
X0055150Y0081972D01*
X0055150Y0080774D02*
X0062150Y0080774D01*
X0065223Y0079575D02*
X0055150Y0079575D01*
X0055150Y0078376D02*
X0065134Y0078376D01*
X0065134Y0077178D02*
X0055150Y0077178D01*
X0054417Y0075979D02*
X0065607Y0075979D01*
X0060117Y0067590D02*
X0050637Y0067590D01*
X0051855Y0066391D02*
X0060117Y0066391D01*
X0060182Y0065193D02*
X0053072Y0065193D01*
X0054290Y0063994D02*
X0059917Y0063994D01*
X0059917Y0062796D02*
X0055508Y0062796D01*
X0056726Y0061597D02*
X0059917Y0061597D01*
X0059917Y0060399D02*
X0057944Y0060399D01*
X0049954Y0058002D02*
X0048754Y0058002D01*
X0049467Y0059200D02*
X0044245Y0059200D01*
X0044245Y0058002D02*
X0044854Y0058002D01*
X0044802Y0056803D02*
X0044245Y0056803D01*
X0048249Y0060399D02*
X0003800Y0060399D01*
X0003800Y0059200D02*
X0005999Y0059200D01*
X0005999Y0058002D02*
X0003800Y0058002D01*
X0003800Y0056803D02*
X0005999Y0056803D01*
X0005999Y0055605D02*
X0003800Y0055605D01*
X0003800Y0054406D02*
X0005999Y0054406D01*
X0005999Y0053208D02*
X0003800Y0053208D01*
X0003800Y0052009D02*
X0005999Y0052009D01*
X0005999Y0050811D02*
X0003800Y0050811D01*
X0003800Y0049612D02*
X0006328Y0049612D01*
X0003800Y0048414D02*
X0022129Y0048414D01*
X0022508Y0048793D02*
X0021504Y0047789D01*
X0020960Y0046476D01*
X0020960Y0045055D01*
X0021504Y0043742D01*
X0022508Y0042738D01*
X0023821Y0042194D01*
X0025242Y0042194D01*
X0026555Y0042738D01*
X0027559Y0043742D01*
X0028103Y0045055D01*
X0028103Y0046476D01*
X0027559Y0047789D01*
X0026555Y0048793D01*
X0025242Y0049337D01*
X0023821Y0049337D01*
X0022508Y0048793D01*
X0021266Y0047215D02*
X0003800Y0047215D01*
X0003800Y0046017D02*
X0020960Y0046017D01*
X0021058Y0044818D02*
X0003800Y0044818D01*
X0003800Y0043620D02*
X0021626Y0043620D01*
X0023272Y0042421D02*
X0003800Y0042421D01*
X0003800Y0041223D02*
X0028440Y0041223D01*
X0028440Y0042421D02*
X0025791Y0042421D01*
X0027437Y0043620D02*
X0028440Y0043620D01*
X0028440Y0044818D02*
X0028005Y0044818D01*
X0028103Y0046017D02*
X0029324Y0046017D01*
X0027797Y0047215D02*
X0044602Y0047215D01*
X0044602Y0046017D02*
X0043361Y0046017D01*
X0044245Y0040024D02*
X0045060Y0040024D01*
X0044245Y0038826D02*
X0046259Y0038826D01*
X0047471Y0037627D02*
X0044245Y0037627D01*
X0044245Y0036429D02*
X0047471Y0036429D01*
X0047471Y0035230D02*
X0044245Y0035230D01*
X0044245Y0034032D02*
X0047471Y0034032D01*
X0047538Y0032833D02*
X0044245Y0032833D01*
X0044045Y0031635D02*
X0047471Y0031635D01*
X0047471Y0030436D02*
X0044045Y0030436D01*
X0044045Y0030805D02*
X0036343Y0030805D01*
X0036343Y0030805D01*
X0036343Y0028221D01*
X0042656Y0028221D01*
X0043062Y0028330D01*
X0043427Y0028540D01*
X0043725Y0028838D01*
X0043936Y0029203D01*
X0044045Y0029610D01*
X0044045Y0030805D01*
X0043945Y0029238D02*
X0047471Y0029238D01*
X0047471Y0028039D02*
X0028103Y0028039D01*
X0028103Y0027732D02*
X0027559Y0026419D01*
X0026555Y0025415D01*
X0025242Y0024871D01*
X0023821Y0024871D01*
X0022508Y0025415D01*
X0021504Y0026419D01*
X0020960Y0027732D01*
X0020960Y0029153D01*
X0021504Y0030466D01*
X0022508Y0031471D01*
X0023821Y0032014D01*
X0025242Y0032014D01*
X0026555Y0031471D01*
X0027559Y0030466D01*
X0028103Y0029153D01*
X0028103Y0027732D01*
X0027734Y0026841D02*
X0047471Y0026841D01*
X0047985Y0025642D02*
X0026782Y0025642D01*
X0027829Y0024443D02*
X0019265Y0024443D01*
X0019442Y0023245D02*
X0027653Y0023245D01*
X0027653Y0022046D02*
X0019442Y0022046D01*
X0019442Y0020848D02*
X0027653Y0020848D01*
X0027653Y0019649D02*
X0019442Y0019649D01*
X0019442Y0018451D02*
X0027653Y0018451D01*
X0027653Y0017252D02*
X0019442Y0017252D01*
X0019442Y0016054D02*
X0027653Y0016054D01*
X0027699Y0014855D02*
X0019395Y0014855D01*
X0022281Y0025642D02*
X0003800Y0025642D01*
X0003800Y0026841D02*
X0021329Y0026841D01*
X0020960Y0028039D02*
X0003800Y0028039D01*
X0003800Y0029238D02*
X0020995Y0029238D01*
X0021491Y0030436D02*
X0003800Y0030436D01*
X0003800Y0031635D02*
X0022904Y0031635D01*
X0026159Y0031635D02*
X0028640Y0031635D01*
X0028640Y0030436D02*
X0027572Y0030436D01*
X0028068Y0029238D02*
X0028740Y0029238D01*
X0028440Y0032833D02*
X0003800Y0032833D01*
X0003800Y0034032D02*
X0028440Y0034032D01*
X0028440Y0035230D02*
X0003800Y0035230D01*
X0003800Y0036429D02*
X0028440Y0036429D01*
X0028440Y0037627D02*
X0003800Y0037627D01*
X0003800Y0038826D02*
X0028440Y0038826D01*
X0028440Y0040024D02*
X0003800Y0040024D01*
X0003800Y0024443D02*
X0006176Y0024443D01*
X0005999Y0023245D02*
X0003800Y0023245D01*
X0003800Y0022046D02*
X0005999Y0022046D01*
X0005999Y0020848D02*
X0003800Y0020848D01*
X0003800Y0019649D02*
X0005999Y0019649D01*
X0005999Y0018451D02*
X0003800Y0018451D01*
X0003800Y0017252D02*
X0005999Y0017252D01*
X0005999Y0016054D02*
X0003800Y0016054D01*
X0003800Y0014855D02*
X0006046Y0014855D01*
X0036342Y0029238D02*
X0036343Y0029238D01*
X0036342Y0030436D02*
X0036343Y0030436D01*
X0044068Y0024443D02*
X0049277Y0024443D01*
X0052583Y0028541D02*
X0052223Y0029461D01*
X0057219Y0019649D02*
X0057282Y0019649D01*
X0057282Y0018451D02*
X0056026Y0018451D01*
X0061835Y0028069D02*
X0061795Y0034407D01*
X0062070Y0034132D01*
X0038025Y0076882D02*
X0034970Y0076882D01*
X0035068Y0077248D01*
X0035068Y0081780D01*
X0029049Y0081780D01*
X0029049Y0082980D01*
X0035068Y0082980D01*
X0035068Y0087512D01*
X0034959Y0087918D01*
X0034749Y0088283D01*
X0034659Y0088373D01*
X0036455Y0088373D01*
X0036862Y0088482D01*
X0037227Y0088693D01*
X0037284Y0088750D01*
X0037861Y0088173D01*
X0041638Y0088173D01*
X0041511Y0088046D01*
X0041511Y0080368D01*
X0038025Y0076882D01*
X0038321Y0077178D02*
X0035050Y0077178D01*
X0035068Y0078376D02*
X0039519Y0078376D01*
X0040718Y0079575D02*
X0035068Y0079575D01*
X0035068Y0080774D02*
X0041511Y0080774D01*
X0041511Y0081972D02*
X0029049Y0081972D01*
X0035068Y0083171D02*
X0041511Y0083171D01*
X0041511Y0084369D02*
X0035068Y0084369D01*
X0035068Y0085568D02*
X0041511Y0085568D01*
X0041511Y0086766D02*
X0035068Y0086766D01*
X0034933Y0087965D02*
X0041511Y0087965D01*
X0034285Y0093957D02*
X0033085Y0093957D01*
X0033085Y0092759D02*
X0019545Y0092759D01*
X0019911Y0087965D02*
X0021965Y0087965D01*
X0021829Y0086766D02*
X0019911Y0086766D01*
X0019411Y0085568D02*
X0021829Y0085568D01*
X0021829Y0084369D02*
X0003800Y0084369D01*
X0003800Y0083171D02*
X0021829Y0083171D01*
X0013911Y0085568D02*
X0012711Y0085568D01*
X0012711Y0086766D02*
X0013911Y0086766D01*
X0013911Y0090362D02*
X0012711Y0090362D01*
X0012711Y0091560D02*
X0013911Y0091560D01*
X0013911Y0092759D02*
X0012711Y0092759D01*
X0006711Y0086766D02*
X0003800Y0086766D01*
X0003800Y0085568D02*
X0007211Y0085568D01*
X0003800Y0097553D02*
X0037735Y0097553D01*
X0034285Y0096354D02*
X0033085Y0096354D01*
X0033085Y0095156D02*
X0034285Y0095156D01*
X0032731Y0101148D02*
X0032631Y0101148D01*
X0032631Y0102347D02*
X0032731Y0102347D01*
X0032731Y0103545D02*
X0032631Y0103545D01*
X0032631Y0104744D02*
X0032731Y0104744D01*
X0032731Y0105942D02*
X0032631Y0105942D01*
X0032631Y0107141D02*
X0032731Y0107141D01*
X0032731Y0108339D02*
X0032631Y0108339D01*
X0032631Y0109538D02*
X0032731Y0109538D01*
X0032731Y0110736D02*
X0032631Y0110736D01*
X0036568Y0110736D02*
X0036668Y0110736D01*
X0036668Y0109538D02*
X0036568Y0109538D01*
X0036568Y0108339D02*
X0036668Y0108339D01*
X0036668Y0107141D02*
X0036568Y0107141D01*
X0036568Y0105942D02*
X0036668Y0105942D01*
X0036668Y0104744D02*
X0036568Y0104744D01*
X0036568Y0103545D02*
X0036668Y0103545D01*
X0036668Y0102347D02*
X0036568Y0102347D01*
X0036568Y0101148D02*
X0036668Y0101148D01*
X0044709Y0098751D02*
X0003800Y0098751D01*
X0003800Y0099950D02*
X0045029Y0099950D01*
X0044628Y0097553D02*
X0044596Y0097553D01*
X0051829Y0099950D02*
X0057640Y0099950D01*
X0057640Y0098751D02*
X0052142Y0098751D01*
X0052228Y0097553D02*
X0057640Y0097553D01*
X0057640Y0096354D02*
X0052220Y0096354D01*
X0052212Y0095156D02*
X0057640Y0095156D01*
X0057640Y0093957D02*
X0052205Y0093957D01*
X0052197Y0092759D02*
X0057640Y0092759D01*
X0057640Y0091560D02*
X0052189Y0091560D01*
X0052182Y0090362D02*
X0057640Y0090362D01*
X0057640Y0089163D02*
X0052174Y0089163D01*
X0055150Y0087965D02*
X0057707Y0087965D01*
X0058441Y0086766D02*
X0055150Y0086766D01*
X0055150Y0085568D02*
X0059639Y0085568D01*
X0071084Y0090362D02*
X0071384Y0090362D01*
X0071384Y0091560D02*
X0071084Y0091560D01*
X0056353Y0101148D02*
X0056253Y0101148D01*
X0056253Y0102347D02*
X0056353Y0102347D01*
X0056353Y0103545D02*
X0056253Y0103545D01*
X0056253Y0104744D02*
X0056353Y0104744D01*
X0056353Y0105942D02*
X0056253Y0105942D01*
X0056253Y0107141D02*
X0056353Y0107141D01*
X0056353Y0108339D02*
X0056253Y0108339D01*
X0056253Y0109538D02*
X0056353Y0109538D01*
X0056353Y0110736D02*
X0056253Y0110736D01*
X0052416Y0110736D02*
X0052316Y0110736D01*
X0052316Y0109538D02*
X0052416Y0109538D01*
X0052416Y0108339D02*
X0052316Y0108339D01*
X0052316Y0107141D02*
X0052416Y0107141D01*
X0052416Y0105942D02*
X0052316Y0105942D01*
X0052316Y0104744D02*
X0052416Y0104744D01*
X0052416Y0103545D02*
X0052316Y0103545D01*
X0052316Y0102347D02*
X0052416Y0102347D01*
X0052416Y0101148D02*
X0052316Y0101148D01*
X0018596Y0128714D02*
X0097782Y0128714D01*
X0098828Y0129912D02*
X0018596Y0129912D01*
X0013046Y0141898D02*
X0012946Y0141898D01*
X0012946Y0143096D02*
X0013046Y0143096D01*
X0013046Y0144295D02*
X0012946Y0144295D01*
X0027166Y0180250D02*
X0037450Y0180250D01*
X0036252Y0181448D02*
X0027965Y0181448D01*
X0027965Y0182647D02*
X0035053Y0182647D01*
X0034381Y0183845D02*
X0027965Y0183845D01*
X0027965Y0185044D02*
X0029731Y0185044D01*
X0029174Y0186243D02*
X0027825Y0186243D01*
X0026680Y0187441D02*
X0029174Y0187441D01*
X0029174Y0188640D02*
X0026680Y0188640D01*
X0026680Y0189838D02*
X0029174Y0189838D01*
X0029556Y0191037D02*
X0026680Y0191037D01*
X0026680Y0192235D02*
X0030355Y0192235D01*
X0030355Y0193434D02*
X0026680Y0193434D01*
X0021881Y0193434D02*
X0003800Y0193434D01*
X0003800Y0194632D02*
X0021881Y0194632D01*
X0021881Y0195831D02*
X0003800Y0195831D01*
X0003800Y0197029D02*
X0021881Y0197029D01*
X0021881Y0198228D02*
X0003800Y0198228D01*
X0003800Y0199426D02*
X0021881Y0199426D01*
X0021881Y0200625D02*
X0003800Y0200625D01*
X0003800Y0201823D02*
X0021881Y0201823D01*
X0021881Y0203022D02*
X0003800Y0203022D01*
X0003800Y0204220D02*
X0021881Y0204220D01*
X0022374Y0205419D02*
X0003800Y0205419D01*
X0003800Y0206617D02*
X0023709Y0206617D01*
X0024281Y0203905D02*
X0024281Y0183679D01*
X0024384Y0183575D01*
X0021881Y0188640D02*
X0003800Y0188640D01*
X0003800Y0189838D02*
X0021881Y0189838D01*
X0021881Y0191037D02*
X0003800Y0191037D01*
X0003800Y0192235D02*
X0021881Y0192235D01*
X0024281Y0203905D02*
X0026530Y0205923D01*
X0044310Y0205923D01*
X0044310Y0200259D01*
X0044492Y0200076D01*
X0048379Y0200625D02*
X0048479Y0200625D01*
X0048479Y0201823D02*
X0048379Y0201823D01*
X0048379Y0203022D02*
X0048479Y0203022D01*
X0048479Y0204220D02*
X0048379Y0204220D01*
X0048379Y0205419D02*
X0048479Y0205419D01*
X0046620Y0206617D02*
X0197035Y0206617D01*
X0197035Y0205419D02*
X0093462Y0205419D01*
X0094601Y0204220D02*
X0197035Y0204220D01*
X0197035Y0203022D02*
X0094636Y0203022D01*
X0094636Y0201823D02*
X0197035Y0201823D01*
X0197035Y0200625D02*
X0094636Y0200625D01*
X0094636Y0199426D02*
X0197035Y0199426D01*
X0197035Y0198228D02*
X0094636Y0198228D01*
X0094636Y0197029D02*
X0197035Y0197029D01*
X0197035Y0195831D02*
X0094573Y0195831D01*
X0091786Y0195831D02*
X0091686Y0195831D01*
X0091686Y0197029D02*
X0091786Y0197029D01*
X0091786Y0198228D02*
X0091686Y0198228D01*
X0091686Y0199426D02*
X0091786Y0199426D01*
X0091786Y0200625D02*
X0091686Y0200625D01*
X0091686Y0201823D02*
X0091786Y0201823D01*
X0091786Y0203022D02*
X0091686Y0203022D01*
X0091686Y0204220D02*
X0091786Y0204220D01*
X0091786Y0205419D02*
X0091686Y0205419D01*
X0090000Y0194632D02*
X0197035Y0194632D01*
X0197035Y0193434D02*
X0042955Y0193434D01*
X0043559Y0192235D02*
X0145530Y0192235D01*
X0145092Y0191037D02*
X0044146Y0191037D01*
X0044146Y0189838D02*
X0145092Y0189838D01*
X0148651Y0189838D02*
X0149851Y0189838D01*
X0149851Y0191037D02*
X0148651Y0191037D01*
X0148651Y0192235D02*
X0149851Y0192235D01*
X0144780Y0185044D02*
X0129784Y0185044D01*
X0129872Y0183845D02*
X0143216Y0183845D01*
X0142681Y0182647D02*
X0129872Y0182647D01*
X0129718Y0181448D02*
X0142604Y0181448D01*
X0140058Y0180250D02*
X0129955Y0180250D01*
X0130072Y0179051D02*
X0139021Y0179051D01*
X0139021Y0177853D02*
X0130072Y0177853D01*
X0130072Y0176654D02*
X0139021Y0176654D01*
X0139021Y0175456D02*
X0129248Y0175456D01*
X0128900Y0174257D02*
X0139021Y0174257D01*
X0139021Y0173059D02*
X0128900Y0173059D01*
X0128900Y0171860D02*
X0139478Y0171860D01*
X0139221Y0170662D02*
X0128900Y0170662D01*
X0128900Y0169463D02*
X0139221Y0169463D01*
X0139221Y0167066D02*
X0128900Y0167066D01*
X0128900Y0165868D02*
X0139221Y0165868D01*
X0139452Y0164669D02*
X0128900Y0164669D01*
X0128900Y0168265D02*
X0143174Y0168265D01*
X0143405Y0167066D02*
X0144374Y0167066D01*
X0144374Y0165868D02*
X0143405Y0165868D01*
X0143405Y0164669D02*
X0144374Y0164669D01*
X0155818Y0180250D02*
X0155907Y0180250D01*
X0153010Y0183845D02*
X0152614Y0183845D01*
X0160644Y0182429D02*
X0160644Y0176751D01*
X0162630Y0176751D02*
X0162630Y0180478D01*
X0163409Y0181258D01*
X0166917Y0177853D02*
X0173555Y0177853D01*
X0173684Y0176654D02*
X0166917Y0176654D01*
X0170565Y0175456D02*
X0173655Y0175456D01*
X0182960Y0182647D02*
X0197035Y0182647D01*
X0197035Y0183845D02*
X0182960Y0183845D01*
X0182479Y0185044D02*
X0197035Y0185044D01*
X0165870Y0187655D02*
X0160644Y0182429D01*
X0133390Y0149762D02*
X0126500Y0156651D01*
X0126500Y0178206D01*
X0126697Y0178206D01*
X0126697Y0183845D02*
X0126697Y0183845D01*
X0126697Y0185044D02*
X0126697Y0185044D01*
X0123610Y0185044D02*
X0112884Y0185044D01*
X0112884Y0183845D02*
X0123522Y0183845D01*
X0102084Y0183845D02*
X0047599Y0183845D01*
X0048098Y0182647D02*
X0102094Y0182647D01*
X0101884Y0181448D02*
X0048098Y0181448D01*
X0048098Y0180250D02*
X0101884Y0180250D01*
X0101884Y0179051D02*
X0048098Y0179051D01*
X0047658Y0177853D02*
X0101884Y0177853D01*
X0102084Y0185044D02*
X0039444Y0185044D01*
X0040643Y0183845D02*
X0041435Y0183845D01*
X0040275Y0180820D02*
X0036781Y0184314D01*
X0036781Y0199914D01*
X0036618Y0200076D01*
X0032755Y0200003D02*
X0032681Y0200076D01*
X0032755Y0200003D02*
X0032755Y0188128D01*
X0040275Y0180820D02*
X0044517Y0180820D01*
X0043794Y0186243D02*
X0102192Y0186243D01*
X0107484Y0156769D02*
X0119984Y0156769D01*
X0129453Y0147301D01*
X0119984Y0152832D02*
X0107484Y0152832D01*
X0108135Y0096354D02*
X0103526Y0096354D01*
X0040565Y0189122D02*
X0040555Y0189132D01*
X0040555Y0200076D01*
X0048379Y0199426D02*
X0048479Y0199426D01*
X0048479Y0198228D02*
X0048379Y0198228D01*
X0048379Y0197029D02*
X0048479Y0197029D01*
X0048479Y0195831D02*
X0048379Y0195831D01*
X0046693Y0194632D02*
X0050165Y0194632D01*
X0190644Y0025642D02*
X0197035Y0025642D01*
X0197035Y0024443D02*
X0191842Y0024443D01*
X0193005Y0023245D02*
X0197035Y0023245D01*
X0197035Y0022046D02*
X0193005Y0022046D01*
X0193005Y0020848D02*
X0197035Y0020848D01*
X0197035Y0019649D02*
X0193005Y0019649D01*
X0191985Y0018451D02*
X0197035Y0018451D01*
X0197035Y0017252D02*
X0190787Y0017252D01*
D38*
X0167839Y0049860D03*
X0167346Y0072006D03*
X0171776Y0076435D03*
X0158980Y0081356D03*
X0154010Y0080623D03*
X0149251Y0080145D03*
X0142888Y0074023D03*
X0140280Y0080372D03*
X0142789Y0068167D03*
X0140280Y0055765D03*
X0139837Y0036376D03*
X0117642Y0049860D03*
X0105831Y0053797D03*
X0101894Y0076435D03*
X0101894Y0081356D03*
X0118631Y0104924D03*
X0122563Y0103010D03*
X0132898Y0102517D03*
X0178665Y0141888D03*
X0189000Y0072990D03*
X0075319Y0020332D03*
X0065476Y0045923D03*
X0044807Y0061671D03*
D39*
X0044517Y0180820D03*
X0040565Y0189122D03*
X0032755Y0188128D03*
X0024384Y0183575D03*
D40*
X0060240Y0105588D02*
X0060240Y0088643D01*
X0065234Y0083649D01*
X0081004Y0069092D02*
X0076480Y0064569D01*
X0081004Y0069092D02*
X0091776Y0069289D01*
X0102209Y0069092D01*
X0115142Y0069092D01*
X0118626Y0065608D01*
X0118626Y0056328D01*
X0124476Y0050478D01*
X0111644Y0047252D02*
X0095545Y0047252D01*
X0091795Y0056474D02*
X0091776Y0056691D01*
X0091776Y0061809D01*
X0086524Y0062006D01*
X0083961Y0064569D01*
X0089098Y0069368D02*
X0091776Y0069289D01*
X0091657Y0061887D02*
X0091776Y0061809D01*
X0102209Y0069092D02*
X0102209Y0069250D01*
X0078272Y0041986D02*
X0080240Y0040017D01*
X0080240Y0036080D01*
X0086633Y0029687D01*
X0086633Y0020291D01*
X0092433Y0032291D02*
X0086633Y0038091D01*
X0112233Y0038091D01*
X0095545Y0032291D02*
X0092433Y0032291D01*
X0078272Y0041986D02*
X0072681Y0041986D01*
X0072307Y0041612D01*
X0051697Y0041435D02*
X0051264Y0041002D01*
X0047760Y0041002D01*
X0045358Y0043403D01*
X0036343Y0043403D01*
X0178518Y0142035D02*
X0178665Y0141888D01*
X0178518Y0142035D02*
X0178518Y0159968D01*
D41*
X0112233Y0020291D02*
X0086633Y0020291D01*
X0062070Y0041612D02*
X0061893Y0041435D01*
X0052681Y0041435D01*
X0052307Y0041809D01*
X0052681Y0041435D02*
X0051697Y0041435D01*
X0052223Y0040908D01*
X0052223Y0036942D01*
X0048375Y0094894D02*
X0048429Y0097793D01*
X0048433Y0105584D02*
X0048429Y0105588D01*
X0044492Y0105588D01*
X0040555Y0105588D01*
D42*
X0048429Y0105588D02*
X0048429Y0097793D01*
X0048400Y0093182D02*
X0041697Y0093182D01*
X0041165Y0092926D01*
X0048331Y0084540D02*
X0048331Y0082380D01*
X0039433Y0073482D01*
X0020201Y0073482D01*
X0013803Y0067084D01*
X0046303Y0067084D01*
X0058705Y0054880D01*
X0058803Y0054781D01*
X0064492Y0054781D01*
X0064492Y0060923D01*
X0064669Y0060726D01*
X0064492Y0054781D02*
X0064492Y0054285D01*
X0076480Y0054285D01*
X0072307Y0046966D02*
X0064492Y0054781D01*
X0072307Y0046966D02*
X0072307Y0041612D01*
X0052307Y0041809D02*
X0052307Y0044801D01*
X0049354Y0047557D01*
D43*
X0048331Y0082380D02*
X0048400Y0093182D01*
X0048429Y0097793D01*
D44*
X0146185Y0149762D03*
X0167839Y0141888D03*
X0185555Y0171907D03*
X0165870Y0187655D03*
X0146185Y0181750D03*
M02*
