%
M48
M72
T01C0.01969
T02C0.02362
T03C0.03543
T04C0.04000
%
T01
X44807Y61671
X65476Y45923
X75319Y20332
X105831Y53797
X117642Y49860
X140280Y55765
X142789Y68167
X142888Y74023
X140280Y80372
X149251Y80145
X154010Y80623
X158980Y81356
X167346Y72006
X171776Y76435
X189000Y72990
X167839Y49860
X139837Y36376
X101894Y76435
X101894Y81356
X118631Y104924
X122563Y103010
X132898Y102517
X178665Y141888
T02
X44517Y180820
X40565Y189122
X32755Y188128
X24384Y183575
X146185Y181750
X165870Y187655
X185555Y171907
X167839Y141888
X146185Y149762
T03
X24531Y28443
X24531Y45765
T04
X86633Y38091
X86633Y20291
X112233Y20291
X112233Y38091
X147401Y20775
X157342Y21287
X167593Y21267
X177903Y21553
X188405Y21376
X110752Y92183
X100909Y92183
M30
