G75*
%MOIN*%
%OFA0B0*%
%FSLAX25Y25*%
%IPPOS*%
%LPD*%
%AMOC8*
5,1,8,0,0,1.08239X$1,22.5*
%
%ADD10C,0.01000*%
%ADD11R,0.05906X0.05118*%
%ADD12R,0.06299X0.07087*%
%ADD13R,0.07874X0.11024*%
%ADD14C,0.00000*%
%ADD15C,0.07400*%
%ADD16R,0.05118X0.05906*%
%ADD17OC8,0.06000*%
%ADD18C,0.03169*%
%ADD19C,0.01200*%
%ADD20R,0.03562X0.03562*%
%ADD21C,0.01600*%
%ADD22C,0.03562*%
D10*
X0001500Y0012458D02*
X0199335Y0012458D01*
X0199335Y0209309D01*
X0001500Y0209309D01*
X0001500Y0012458D01*
X0003500Y0014458D02*
X0003500Y0207309D01*
X0197335Y0207309D01*
X0197335Y0014458D01*
X0003500Y0014458D01*
X0003500Y0015454D02*
X0084722Y0015454D01*
X0085599Y0015091D02*
X0087667Y0015091D01*
X0089579Y0015882D01*
X0091041Y0017345D01*
X0091833Y0019256D01*
X0091833Y0021325D01*
X0091041Y0023236D01*
X0089579Y0024699D01*
X0087667Y0025491D01*
X0085599Y0025491D01*
X0083688Y0024699D01*
X0082225Y0023236D01*
X0081433Y0021325D01*
X0081433Y0019256D01*
X0082225Y0017345D01*
X0083688Y0015882D01*
X0085599Y0015091D01*
X0083117Y0016452D02*
X0003500Y0016452D01*
X0003500Y0017451D02*
X0082181Y0017451D01*
X0081767Y0018449D02*
X0003500Y0018449D01*
X0003500Y0019448D02*
X0081433Y0019448D01*
X0081433Y0020446D02*
X0003500Y0020446D01*
X0003500Y0021445D02*
X0081483Y0021445D01*
X0081896Y0022443D02*
X0003500Y0022443D01*
X0003500Y0023442D02*
X0082430Y0023442D01*
X0083429Y0024441D02*
X0003500Y0024441D01*
X0003500Y0025439D02*
X0023234Y0025439D01*
X0022678Y0025669D02*
X0023881Y0025171D01*
X0025182Y0025171D01*
X0026385Y0025669D01*
X0027305Y0026589D01*
X0027803Y0027792D01*
X0027803Y0029093D01*
X0027305Y0030296D01*
X0026385Y0031216D01*
X0025182Y0031714D01*
X0023881Y0031714D01*
X0022678Y0031216D01*
X0021758Y0030296D01*
X0021260Y0029093D01*
X0021260Y0027792D01*
X0021758Y0026589D01*
X0022678Y0025669D01*
X0021910Y0026438D02*
X0003500Y0026438D01*
X0003500Y0027436D02*
X0021407Y0027436D01*
X0021260Y0028435D02*
X0003500Y0028435D01*
X0003500Y0029433D02*
X0021401Y0029433D01*
X0021894Y0030432D02*
X0003500Y0030432D01*
X0003500Y0031430D02*
X0023195Y0031430D01*
X0025868Y0031430D02*
X0155086Y0031430D01*
X0156084Y0032429D02*
X0003500Y0032429D01*
X0003500Y0033427D02*
X0084304Y0033427D01*
X0083688Y0033682D02*
X0085599Y0032891D01*
X0087667Y0032891D01*
X0089579Y0033682D01*
X0091041Y0035145D01*
X0091833Y0037056D01*
X0091833Y0039125D01*
X0091041Y0041036D01*
X0089579Y0042499D01*
X0087667Y0043291D01*
X0085599Y0043291D01*
X0083688Y0042499D01*
X0082225Y0041036D01*
X0081433Y0039125D01*
X0081433Y0037056D01*
X0082225Y0035145D01*
X0083688Y0033682D01*
X0082944Y0034426D02*
X0003500Y0034426D01*
X0003500Y0035424D02*
X0082109Y0035424D01*
X0081696Y0036423D02*
X0003500Y0036423D01*
X0003500Y0037421D02*
X0081433Y0037421D01*
X0081433Y0038420D02*
X0003500Y0038420D01*
X0003500Y0039418D02*
X0081555Y0039418D01*
X0081968Y0040417D02*
X0003500Y0040417D01*
X0003500Y0041415D02*
X0082604Y0041415D01*
X0083602Y0042414D02*
X0003500Y0042414D01*
X0003500Y0043412D02*
X0022258Y0043412D01*
X0022678Y0042992D02*
X0023881Y0042494D01*
X0025182Y0042494D01*
X0026385Y0042992D01*
X0027305Y0043912D01*
X0027803Y0045115D01*
X0027803Y0046416D01*
X0027305Y0047619D01*
X0026385Y0048539D01*
X0025182Y0049037D01*
X0023881Y0049037D01*
X0022678Y0048539D01*
X0021758Y0047619D01*
X0021260Y0046416D01*
X0021260Y0045115D01*
X0021758Y0043912D01*
X0022678Y0042992D01*
X0021551Y0044411D02*
X0003500Y0044411D01*
X0003500Y0045409D02*
X0021260Y0045409D01*
X0021260Y0046408D02*
X0003500Y0046408D01*
X0003500Y0047406D02*
X0021670Y0047406D01*
X0022544Y0048405D02*
X0003500Y0048405D01*
X0003500Y0049403D02*
X0156880Y0049403D01*
X0156880Y0048405D02*
X0026519Y0048405D01*
X0027393Y0047406D02*
X0156880Y0047406D01*
X0156880Y0046408D02*
X0027803Y0046408D01*
X0027803Y0045409D02*
X0156880Y0045409D01*
X0156880Y0044411D02*
X0027512Y0044411D01*
X0026805Y0043412D02*
X0156880Y0043412D01*
X0156880Y0042414D02*
X0115264Y0042414D01*
X0115179Y0042499D02*
X0113267Y0043291D01*
X0111199Y0043291D01*
X0109287Y0042499D01*
X0107825Y0041036D01*
X0107033Y0039125D01*
X0107033Y0037056D01*
X0107825Y0035145D01*
X0109287Y0033682D01*
X0111199Y0032891D01*
X0113267Y0032891D01*
X0115179Y0033682D01*
X0116641Y0035145D01*
X0116909Y0035791D01*
X0136752Y0035791D01*
X0136752Y0035762D01*
X0137222Y0034629D01*
X0138090Y0033761D01*
X0139223Y0033291D01*
X0140450Y0033291D01*
X0141584Y0033761D01*
X0142451Y0034629D01*
X0142921Y0035762D01*
X0142921Y0036989D01*
X0142451Y0038123D01*
X0141584Y0038990D01*
X0140450Y0039460D01*
X0140005Y0039460D01*
X0139074Y0040391D01*
X0116909Y0040391D01*
X0116641Y0041036D01*
X0115179Y0042499D01*
X0116262Y0041415D02*
X0156880Y0041415D01*
X0156880Y0040417D02*
X0116898Y0040417D01*
X0116757Y0035424D02*
X0136892Y0035424D01*
X0137425Y0034426D02*
X0115922Y0034426D01*
X0114563Y0033427D02*
X0138896Y0033427D01*
X0140778Y0033427D02*
X0156880Y0033427D01*
X0156880Y0033225D02*
X0148931Y0025275D01*
X0145537Y0025275D01*
X0142901Y0022639D01*
X0142901Y0018911D01*
X0145537Y0016275D01*
X0149265Y0016275D01*
X0151901Y0018911D01*
X0151901Y0022305D01*
X0161080Y0031485D01*
X0161080Y0079094D01*
X0161595Y0079609D01*
X0162065Y0080742D01*
X0162065Y0081970D01*
X0161595Y0083103D01*
X0160727Y0083971D01*
X0159594Y0084440D01*
X0158367Y0084440D01*
X0157233Y0083971D01*
X0156366Y0083103D01*
X0156227Y0082768D01*
X0155757Y0083237D01*
X0154623Y0083707D01*
X0154087Y0083707D01*
X0151366Y0086429D01*
X0150136Y0087659D01*
X0136366Y0087659D01*
X0121047Y0102978D01*
X0121246Y0103177D01*
X0121715Y0104310D01*
X0121715Y0105537D01*
X0121246Y0106671D01*
X0120378Y0107539D01*
X0119244Y0108008D01*
X0118017Y0108008D01*
X0116884Y0107539D01*
X0116016Y0106671D01*
X0115547Y0105537D01*
X0115547Y0104310D01*
X0116016Y0103177D01*
X0116733Y0102460D01*
X0116733Y0101352D01*
X0117963Y0100122D01*
X0134626Y0083459D01*
X0148396Y0083459D01*
X0150926Y0080929D01*
X0150926Y0080009D01*
X0151395Y0078876D01*
X0152263Y0078008D01*
X0153396Y0077538D01*
X0154623Y0077538D01*
X0155757Y0078008D01*
X0156625Y0078876D01*
X0156763Y0079211D01*
X0156880Y0079094D01*
X0156880Y0033225D01*
X0156880Y0034426D02*
X0142248Y0034426D01*
X0142781Y0035424D02*
X0156880Y0035424D01*
X0156880Y0036423D02*
X0142921Y0036423D01*
X0142742Y0037421D02*
X0156880Y0037421D01*
X0156880Y0038420D02*
X0142154Y0038420D01*
X0140551Y0039418D02*
X0156880Y0039418D01*
X0161080Y0039418D02*
X0197335Y0039418D01*
X0197335Y0038420D02*
X0161080Y0038420D01*
X0161080Y0037421D02*
X0197335Y0037421D01*
X0197335Y0036423D02*
X0161080Y0036423D01*
X0161080Y0035424D02*
X0197335Y0035424D01*
X0197335Y0034426D02*
X0161080Y0034426D01*
X0161080Y0033427D02*
X0197335Y0033427D01*
X0197335Y0032429D02*
X0161080Y0032429D01*
X0161025Y0031430D02*
X0197335Y0031430D01*
X0197335Y0030432D02*
X0160027Y0030432D01*
X0159028Y0029433D02*
X0197335Y0029433D01*
X0197335Y0028435D02*
X0158030Y0028435D01*
X0157031Y0027436D02*
X0197335Y0027436D01*
X0197335Y0026438D02*
X0156033Y0026438D01*
X0155478Y0025787D02*
X0152842Y0023151D01*
X0152842Y0019423D01*
X0155478Y0016787D01*
X0159205Y0016787D01*
X0161842Y0019423D01*
X0161842Y0023151D01*
X0159205Y0025787D01*
X0155478Y0025787D01*
X0155129Y0025439D02*
X0155034Y0025439D01*
X0154131Y0024441D02*
X0154036Y0024441D01*
X0153132Y0023442D02*
X0153037Y0023442D01*
X0152842Y0022443D02*
X0152039Y0022443D01*
X0151901Y0021445D02*
X0152842Y0021445D01*
X0152842Y0020446D02*
X0151901Y0020446D01*
X0151901Y0019448D02*
X0152842Y0019448D01*
X0153815Y0018449D02*
X0151439Y0018449D01*
X0150440Y0017451D02*
X0154814Y0017451D01*
X0149442Y0016452D02*
X0197335Y0016452D01*
X0197335Y0015454D02*
X0114144Y0015454D01*
X0113267Y0015091D02*
X0115179Y0015882D01*
X0116641Y0017345D01*
X0117433Y0019256D01*
X0117433Y0021325D01*
X0116641Y0023236D01*
X0115179Y0024699D01*
X0113267Y0025491D01*
X0111199Y0025491D01*
X0109287Y0024699D01*
X0107825Y0023236D01*
X0107033Y0021325D01*
X0107033Y0019256D01*
X0107825Y0017345D01*
X0109287Y0015882D01*
X0111199Y0015091D01*
X0113267Y0015091D01*
X0115749Y0016452D02*
X0145360Y0016452D01*
X0144361Y0017451D02*
X0116685Y0017451D01*
X0117099Y0018449D02*
X0143362Y0018449D01*
X0142901Y0019448D02*
X0117433Y0019448D01*
X0117433Y0020446D02*
X0142901Y0020446D01*
X0142901Y0021445D02*
X0117383Y0021445D01*
X0116970Y0022443D02*
X0142901Y0022443D01*
X0143703Y0023442D02*
X0116436Y0023442D01*
X0115437Y0024441D02*
X0144702Y0024441D01*
X0149094Y0025439D02*
X0113392Y0025439D01*
X0111074Y0025439D02*
X0087792Y0025439D01*
X0089837Y0024441D02*
X0109029Y0024441D01*
X0108030Y0023442D02*
X0090836Y0023442D01*
X0091370Y0022443D02*
X0107496Y0022443D01*
X0107083Y0021445D02*
X0091783Y0021445D01*
X0091833Y0020446D02*
X0107033Y0020446D01*
X0107033Y0019448D02*
X0091833Y0019448D01*
X0091499Y0018449D02*
X0107367Y0018449D01*
X0107781Y0017451D02*
X0091085Y0017451D01*
X0090149Y0016452D02*
X0108717Y0016452D01*
X0110322Y0015454D02*
X0088544Y0015454D01*
X0085474Y0025439D02*
X0025829Y0025439D01*
X0027153Y0026438D02*
X0150093Y0026438D01*
X0151091Y0027436D02*
X0027656Y0027436D01*
X0027803Y0028435D02*
X0152090Y0028435D01*
X0153089Y0029433D02*
X0027662Y0029433D01*
X0027169Y0030432D02*
X0154087Y0030432D01*
X0159554Y0025439D02*
X0165400Y0025439D01*
X0165729Y0025767D02*
X0163093Y0023131D01*
X0163093Y0019403D01*
X0165729Y0016767D01*
X0169456Y0016767D01*
X0172093Y0019403D01*
X0172093Y0023131D01*
X0169456Y0025767D01*
X0165729Y0025767D01*
X0164402Y0024441D02*
X0160552Y0024441D01*
X0161551Y0023442D02*
X0163403Y0023442D01*
X0163093Y0022443D02*
X0161842Y0022443D01*
X0161842Y0021445D02*
X0163093Y0021445D01*
X0163093Y0020446D02*
X0161842Y0020446D01*
X0161842Y0019448D02*
X0163093Y0019448D01*
X0164047Y0018449D02*
X0160868Y0018449D01*
X0159869Y0017451D02*
X0165045Y0017451D01*
X0170140Y0017451D02*
X0175641Y0017451D01*
X0176039Y0017053D02*
X0179767Y0017053D01*
X0182403Y0019689D01*
X0182403Y0023417D01*
X0179767Y0026053D01*
X0176039Y0026053D01*
X0173403Y0023417D01*
X0173403Y0019689D01*
X0176039Y0017053D01*
X0174642Y0018449D02*
X0171138Y0018449D01*
X0172093Y0019448D02*
X0173644Y0019448D01*
X0173403Y0020446D02*
X0172093Y0020446D01*
X0172093Y0021445D02*
X0173403Y0021445D01*
X0173403Y0022443D02*
X0172093Y0022443D01*
X0171782Y0023442D02*
X0173428Y0023442D01*
X0174426Y0024441D02*
X0170783Y0024441D01*
X0169785Y0025439D02*
X0175425Y0025439D01*
X0180380Y0025439D02*
X0186104Y0025439D01*
X0186541Y0025876D02*
X0183905Y0023240D01*
X0183905Y0021876D01*
X0187904Y0021876D01*
X0187904Y0020876D01*
X0183905Y0020876D01*
X0183905Y0019512D01*
X0186541Y0016876D01*
X0187905Y0016876D01*
X0187905Y0020876D01*
X0188905Y0020876D01*
X0188905Y0021876D01*
X0192905Y0021876D01*
X0192905Y0023240D01*
X0190268Y0025876D01*
X0188905Y0025876D01*
X0188905Y0021876D01*
X0187905Y0021876D01*
X0187905Y0025876D01*
X0186541Y0025876D01*
X0187905Y0025439D02*
X0188905Y0025439D01*
X0188905Y0024441D02*
X0187905Y0024441D01*
X0187905Y0023442D02*
X0188905Y0023442D01*
X0188905Y0022443D02*
X0187905Y0022443D01*
X0187904Y0021445D02*
X0182403Y0021445D01*
X0182403Y0022443D02*
X0183905Y0022443D01*
X0184107Y0023442D02*
X0182377Y0023442D01*
X0181379Y0024441D02*
X0185105Y0024441D01*
X0183905Y0020446D02*
X0182403Y0020446D01*
X0182162Y0019448D02*
X0183968Y0019448D01*
X0184967Y0018449D02*
X0181163Y0018449D01*
X0180165Y0017451D02*
X0185965Y0017451D01*
X0187905Y0017451D02*
X0188905Y0017451D01*
X0188905Y0016876D02*
X0190268Y0016876D01*
X0192905Y0019512D01*
X0192905Y0020876D01*
X0188905Y0020876D01*
X0188905Y0016876D01*
X0188905Y0018449D02*
X0187905Y0018449D01*
X0187905Y0019448D02*
X0188905Y0019448D01*
X0188905Y0020446D02*
X0187905Y0020446D01*
X0188905Y0021445D02*
X0197335Y0021445D01*
X0197335Y0022443D02*
X0192905Y0022443D01*
X0192702Y0023442D02*
X0197335Y0023442D01*
X0197335Y0024441D02*
X0191704Y0024441D01*
X0190705Y0025439D02*
X0197335Y0025439D01*
X0197335Y0020446D02*
X0192905Y0020446D01*
X0192841Y0019448D02*
X0197335Y0019448D01*
X0197335Y0018449D02*
X0191842Y0018449D01*
X0190844Y0017451D02*
X0197335Y0017451D01*
X0197335Y0040417D02*
X0161080Y0040417D01*
X0161080Y0041415D02*
X0197335Y0041415D01*
X0197335Y0042414D02*
X0161080Y0042414D01*
X0161080Y0043412D02*
X0197335Y0043412D01*
X0197335Y0044411D02*
X0161080Y0044411D01*
X0161080Y0045409D02*
X0197335Y0045409D01*
X0197335Y0046408D02*
X0161080Y0046408D01*
X0161080Y0047406D02*
X0197335Y0047406D01*
X0197335Y0048405D02*
X0161080Y0048405D01*
X0161080Y0049403D02*
X0197335Y0049403D01*
X0197335Y0050402D02*
X0161080Y0050402D01*
X0161080Y0051400D02*
X0197335Y0051400D01*
X0197335Y0052399D02*
X0161080Y0052399D01*
X0161080Y0053397D02*
X0197335Y0053397D01*
X0197335Y0054396D02*
X0161080Y0054396D01*
X0161080Y0055394D02*
X0197335Y0055394D01*
X0197335Y0056393D02*
X0161080Y0056393D01*
X0161080Y0057391D02*
X0197335Y0057391D01*
X0197335Y0058390D02*
X0161080Y0058390D01*
X0161080Y0059388D02*
X0197335Y0059388D01*
X0197335Y0060387D02*
X0161080Y0060387D01*
X0161080Y0061385D02*
X0197335Y0061385D01*
X0197335Y0062384D02*
X0161080Y0062384D01*
X0161080Y0063382D02*
X0197335Y0063382D01*
X0197335Y0064381D02*
X0161080Y0064381D01*
X0161080Y0065379D02*
X0197335Y0065379D01*
X0197335Y0066378D02*
X0161080Y0066378D01*
X0161080Y0067376D02*
X0197335Y0067376D01*
X0197335Y0068375D02*
X0161080Y0068375D01*
X0161080Y0069374D02*
X0165641Y0069374D01*
X0165599Y0069391D02*
X0166733Y0068921D01*
X0167960Y0068921D01*
X0169094Y0069391D01*
X0169961Y0070259D01*
X0170431Y0071392D01*
X0170431Y0072619D01*
X0169961Y0073753D01*
X0169446Y0074267D01*
X0169446Y0139002D01*
X0169697Y0139106D01*
X0170620Y0140029D01*
X0171120Y0141235D01*
X0171120Y0142540D01*
X0170620Y0143746D01*
X0169697Y0144669D01*
X0168491Y0145169D01*
X0167186Y0145169D01*
X0165980Y0144669D01*
X0165057Y0143746D01*
X0164557Y0142540D01*
X0164557Y0141235D01*
X0165057Y0140029D01*
X0165246Y0139839D01*
X0165246Y0074267D01*
X0164732Y0073753D01*
X0164262Y0072619D01*
X0164262Y0071392D01*
X0164732Y0070259D01*
X0165599Y0069391D01*
X0164685Y0070372D02*
X0161080Y0070372D01*
X0161080Y0071371D02*
X0164271Y0071371D01*
X0164262Y0072369D02*
X0161080Y0072369D01*
X0161080Y0073368D02*
X0164572Y0073368D01*
X0165246Y0074366D02*
X0161080Y0074366D01*
X0161080Y0075365D02*
X0165246Y0075365D01*
X0165246Y0076363D02*
X0161080Y0076363D01*
X0161080Y0077362D02*
X0165246Y0077362D01*
X0165246Y0078360D02*
X0161080Y0078360D01*
X0161345Y0079359D02*
X0165246Y0079359D01*
X0165246Y0080357D02*
X0161905Y0080357D01*
X0162065Y0081356D02*
X0165246Y0081356D01*
X0165246Y0082354D02*
X0161905Y0082354D01*
X0161345Y0083353D02*
X0165246Y0083353D01*
X0165246Y0084351D02*
X0159809Y0084351D01*
X0158152Y0084351D02*
X0153443Y0084351D01*
X0152445Y0085350D02*
X0165246Y0085350D01*
X0165246Y0086348D02*
X0151446Y0086348D01*
X0150448Y0087347D02*
X0165246Y0087347D01*
X0165246Y0088345D02*
X0135679Y0088345D01*
X0134681Y0089344D02*
X0165246Y0089344D01*
X0165246Y0090342D02*
X0133682Y0090342D01*
X0132684Y0091341D02*
X0165246Y0091341D01*
X0165246Y0092339D02*
X0131685Y0092339D01*
X0130687Y0093338D02*
X0165246Y0093338D01*
X0165246Y0094336D02*
X0129688Y0094336D01*
X0128690Y0095335D02*
X0165246Y0095335D01*
X0165246Y0096333D02*
X0127691Y0096333D01*
X0126693Y0097332D02*
X0165246Y0097332D01*
X0165246Y0098330D02*
X0125694Y0098330D01*
X0124696Y0099329D02*
X0165246Y0099329D01*
X0165246Y0100327D02*
X0123697Y0100327D01*
X0122699Y0101326D02*
X0165246Y0101326D01*
X0165246Y0102324D02*
X0121700Y0102324D01*
X0122071Y0103010D02*
X0122563Y0103010D01*
X0121306Y0103323D02*
X0165246Y0103323D01*
X0165246Y0104321D02*
X0121715Y0104321D01*
X0121715Y0105320D02*
X0165246Y0105320D01*
X0165246Y0106318D02*
X0121392Y0106318D01*
X0120600Y0107317D02*
X0165246Y0107317D01*
X0165246Y0108315D02*
X0003500Y0108315D01*
X0003500Y0107317D02*
X0116662Y0107317D01*
X0115870Y0106318D02*
X0003500Y0106318D01*
X0003500Y0105320D02*
X0115547Y0105320D01*
X0115547Y0104321D02*
X0003500Y0104321D01*
X0003500Y0103323D02*
X0115956Y0103323D01*
X0116733Y0102324D02*
X0003500Y0102324D01*
X0003500Y0101326D02*
X0116759Y0101326D01*
X0117758Y0100327D02*
X0003500Y0100327D01*
X0003500Y0099329D02*
X0118756Y0099329D01*
X0119755Y0098330D02*
X0003500Y0098330D01*
X0003500Y0097332D02*
X0120753Y0097332D01*
X0121752Y0096333D02*
X0112965Y0096333D01*
X0112616Y0096683D02*
X0115252Y0094047D01*
X0115252Y0090319D01*
X0112616Y0087683D01*
X0108888Y0087683D01*
X0106252Y0090319D01*
X0106252Y0094047D01*
X0108888Y0096683D01*
X0112616Y0096683D01*
X0113964Y0095335D02*
X0122750Y0095335D01*
X0123749Y0094336D02*
X0114962Y0094336D01*
X0115252Y0093338D02*
X0124747Y0093338D01*
X0125746Y0092339D02*
X0115252Y0092339D01*
X0115252Y0091341D02*
X0126744Y0091341D01*
X0127743Y0090342D02*
X0115252Y0090342D01*
X0114277Y0089344D02*
X0128741Y0089344D01*
X0129740Y0088345D02*
X0113278Y0088345D01*
X0108226Y0088345D02*
X0103436Y0088345D01*
X0102773Y0087683D02*
X0105409Y0090319D01*
X0105409Y0094047D01*
X0102773Y0096683D01*
X0099045Y0096683D01*
X0096409Y0094047D01*
X0096409Y0090319D01*
X0099045Y0087683D01*
X0102773Y0087683D01*
X0104434Y0089344D02*
X0107227Y0089344D01*
X0106252Y0090342D02*
X0105409Y0090342D01*
X0105409Y0091341D02*
X0106252Y0091341D01*
X0106252Y0092339D02*
X0105409Y0092339D01*
X0105409Y0093338D02*
X0106252Y0093338D01*
X0106542Y0094336D02*
X0105120Y0094336D01*
X0104121Y0095335D02*
X0107540Y0095335D01*
X0108539Y0096333D02*
X0103123Y0096333D01*
X0098696Y0096333D02*
X0003500Y0096333D01*
X0003500Y0095335D02*
X0097698Y0095335D01*
X0096699Y0094336D02*
X0003500Y0094336D01*
X0003500Y0093338D02*
X0096409Y0093338D01*
X0096409Y0092339D02*
X0003500Y0092339D01*
X0003500Y0091341D02*
X0096409Y0091341D01*
X0096409Y0090342D02*
X0003500Y0090342D01*
X0003500Y0089344D02*
X0097385Y0089344D01*
X0098383Y0088345D02*
X0003500Y0088345D01*
X0003500Y0087347D02*
X0130738Y0087347D01*
X0131737Y0086348D02*
X0003500Y0086348D01*
X0003500Y0085350D02*
X0132735Y0085350D01*
X0133734Y0084351D02*
X0102722Y0084351D01*
X0102507Y0084440D02*
X0101280Y0084440D01*
X0100147Y0083971D01*
X0099279Y0083103D01*
X0098809Y0081970D01*
X0098809Y0080742D01*
X0099279Y0079609D01*
X0099993Y0078895D01*
X0099279Y0078182D01*
X0098809Y0077048D01*
X0098809Y0075821D01*
X0099279Y0074688D01*
X0100147Y0073820D01*
X0101280Y0073350D01*
X0102507Y0073350D01*
X0102850Y0073493D01*
X0107914Y0068429D01*
X0139705Y0068429D01*
X0139705Y0067554D01*
X0140175Y0066420D01*
X0141042Y0065552D01*
X0142176Y0065083D01*
X0143403Y0065083D01*
X0144536Y0065552D01*
X0145404Y0066420D01*
X0145874Y0067554D01*
X0145874Y0068781D01*
X0145404Y0069914D01*
X0144536Y0070782D01*
X0143829Y0071075D01*
X0144635Y0071409D01*
X0145502Y0072276D01*
X0145972Y0073410D01*
X0145972Y0074637D01*
X0145502Y0075770D01*
X0144635Y0076638D01*
X0143501Y0077108D01*
X0142274Y0077108D01*
X0141141Y0076638D01*
X0140618Y0076115D01*
X0130319Y0076077D01*
X0122941Y0083456D01*
X0104155Y0083456D01*
X0103641Y0083971D01*
X0102507Y0084440D01*
X0101065Y0084351D02*
X0003500Y0084351D01*
X0003500Y0083353D02*
X0099529Y0083353D01*
X0098969Y0082354D02*
X0003500Y0082354D01*
X0003500Y0081356D02*
X0098809Y0081356D01*
X0098969Y0080357D02*
X0003500Y0080357D01*
X0003500Y0079359D02*
X0099529Y0079359D01*
X0099457Y0078360D02*
X0003500Y0078360D01*
X0003500Y0077362D02*
X0098939Y0077362D01*
X0098809Y0076363D02*
X0003500Y0076363D01*
X0003500Y0075365D02*
X0098999Y0075365D01*
X0099601Y0074366D02*
X0003500Y0074366D01*
X0003500Y0073368D02*
X0101239Y0073368D01*
X0102548Y0073368D02*
X0102975Y0073368D01*
X0103974Y0072369D02*
X0003500Y0072369D01*
X0003500Y0071371D02*
X0104972Y0071371D01*
X0105971Y0070372D02*
X0003500Y0070372D01*
X0003500Y0069374D02*
X0106969Y0069374D01*
X0123044Y0083353D02*
X0148502Y0083353D01*
X0149500Y0082354D02*
X0124043Y0082354D01*
X0125041Y0081356D02*
X0150499Y0081356D01*
X0150926Y0080357D02*
X0126040Y0080357D01*
X0127038Y0079359D02*
X0151195Y0079359D01*
X0151911Y0078360D02*
X0128037Y0078360D01*
X0129035Y0077362D02*
X0156880Y0077362D01*
X0156880Y0078360D02*
X0156109Y0078360D01*
X0156880Y0076363D02*
X0144910Y0076363D01*
X0145671Y0075365D02*
X0156880Y0075365D01*
X0156880Y0074366D02*
X0145972Y0074366D01*
X0145955Y0073368D02*
X0156880Y0073368D01*
X0156880Y0072369D02*
X0145541Y0072369D01*
X0144543Y0071371D02*
X0156880Y0071371D01*
X0156880Y0070372D02*
X0144946Y0070372D01*
X0145628Y0069374D02*
X0156880Y0069374D01*
X0156880Y0068375D02*
X0145874Y0068375D01*
X0145800Y0067376D02*
X0156880Y0067376D01*
X0156880Y0066378D02*
X0145362Y0066378D01*
X0144119Y0065379D02*
X0156880Y0065379D01*
X0156880Y0064381D02*
X0003500Y0064381D01*
X0003500Y0065379D02*
X0141460Y0065379D01*
X0140217Y0066378D02*
X0003500Y0066378D01*
X0003500Y0067376D02*
X0139778Y0067376D01*
X0139705Y0068375D02*
X0003500Y0068375D01*
X0003500Y0063382D02*
X0156880Y0063382D01*
X0156880Y0062384D02*
X0003500Y0062384D01*
X0003500Y0061385D02*
X0156880Y0061385D01*
X0156880Y0060387D02*
X0003500Y0060387D01*
X0003500Y0059388D02*
X0156880Y0059388D01*
X0156880Y0058390D02*
X0003500Y0058390D01*
X0003500Y0057391D02*
X0156880Y0057391D01*
X0156880Y0056393D02*
X0003500Y0056393D01*
X0003500Y0055394D02*
X0156880Y0055394D01*
X0156880Y0054396D02*
X0003500Y0054396D01*
X0003500Y0053397D02*
X0156880Y0053397D01*
X0156880Y0052399D02*
X0003500Y0052399D01*
X0003500Y0051400D02*
X0156880Y0051400D01*
X0156880Y0050402D02*
X0003500Y0050402D01*
X0003500Y0109314D02*
X0165246Y0109314D01*
X0165246Y0110312D02*
X0003500Y0110312D01*
X0003500Y0111311D02*
X0165246Y0111311D01*
X0165246Y0112309D02*
X0003500Y0112309D01*
X0003500Y0113308D02*
X0165246Y0113308D01*
X0165246Y0114307D02*
X0003500Y0114307D01*
X0003500Y0115305D02*
X0165246Y0115305D01*
X0165246Y0116304D02*
X0003500Y0116304D01*
X0003500Y0117302D02*
X0165246Y0117302D01*
X0165246Y0118301D02*
X0003500Y0118301D01*
X0003500Y0119299D02*
X0165246Y0119299D01*
X0165246Y0120298D02*
X0003500Y0120298D01*
X0003500Y0121296D02*
X0165246Y0121296D01*
X0165246Y0122295D02*
X0003500Y0122295D01*
X0003500Y0123293D02*
X0165246Y0123293D01*
X0165246Y0124292D02*
X0003500Y0124292D01*
X0003500Y0125290D02*
X0165246Y0125290D01*
X0165246Y0126289D02*
X0003500Y0126289D01*
X0003500Y0127287D02*
X0165246Y0127287D01*
X0165246Y0128286D02*
X0003500Y0128286D01*
X0003500Y0129284D02*
X0165246Y0129284D01*
X0165246Y0130283D02*
X0026800Y0130283D01*
X0026668Y0130151D02*
X0026947Y0130430D01*
X0027145Y0130772D01*
X0027247Y0131154D01*
X0027247Y0133410D01*
X0023294Y0133410D01*
X0023294Y0129851D01*
X0025945Y0129851D01*
X0026326Y0129953D01*
X0026668Y0130151D01*
X0027247Y0131281D02*
X0165246Y0131281D01*
X0165246Y0132280D02*
X0027247Y0132280D01*
X0027247Y0133278D02*
X0165246Y0133278D01*
X0165246Y0134277D02*
X0023294Y0134277D01*
X0023294Y0134410D02*
X0027247Y0134410D01*
X0027247Y0134767D01*
X0033086Y0134767D01*
X0033646Y0135327D01*
X0034205Y0134767D01*
X0040416Y0134767D01*
X0040697Y0134487D01*
X0047845Y0134487D01*
X0048723Y0135366D01*
X0048723Y0139507D01*
X0050490Y0141274D01*
X0051720Y0142504D01*
X0051720Y0176586D01*
X0050490Y0177816D01*
X0047798Y0180508D01*
X0047798Y0183222D01*
X0046919Y0184101D01*
X0042114Y0184101D01*
X0041236Y0183222D01*
X0041236Y0178417D01*
X0042114Y0177538D01*
X0044828Y0177538D01*
X0047520Y0174846D01*
X0047520Y0165887D01*
X0041494Y0165887D01*
X0041494Y0173786D01*
X0035081Y0180198D01*
X0034820Y0180459D01*
X0034820Y0184847D01*
X0035157Y0184847D01*
X0036036Y0185725D01*
X0036036Y0190530D01*
X0035157Y0191409D01*
X0030352Y0191409D01*
X0029474Y0190530D01*
X0029474Y0185725D01*
X0030352Y0184847D01*
X0030620Y0184847D01*
X0030620Y0178685D01*
X0031851Y0177455D01*
X0032077Y0177228D01*
X0032111Y0177228D01*
X0037294Y0172046D01*
X0037294Y0165887D01*
X0030534Y0165887D01*
X0029656Y0165009D01*
X0029656Y0164651D01*
X0029250Y0164654D01*
X0028955Y0164364D01*
X0028955Y0165009D01*
X0028076Y0165887D01*
X0026484Y0165887D01*
X0026484Y0180294D01*
X0026786Y0180294D01*
X0027665Y0181173D01*
X0027665Y0185978D01*
X0026786Y0186857D01*
X0021981Y0186857D01*
X0021103Y0185978D01*
X0021103Y0181173D01*
X0021981Y0180294D01*
X0022284Y0180294D01*
X0022284Y0165887D01*
X0020534Y0165887D01*
X0019656Y0165009D01*
X0019656Y0156680D01*
X0020534Y0155801D01*
X0022205Y0155801D01*
X0022205Y0151896D01*
X0021892Y0151583D01*
X0021887Y0151583D01*
X0021277Y0150968D01*
X0020665Y0150356D01*
X0020665Y0150351D01*
X0020662Y0150348D01*
X0020665Y0149481D01*
X0020665Y0148616D01*
X0020668Y0148613D01*
X0020679Y0145449D01*
X0019220Y0145449D01*
X0018342Y0144571D01*
X0018342Y0138210D01*
X0018901Y0137650D01*
X0018641Y0137390D01*
X0018444Y0137048D01*
X0018342Y0136667D01*
X0018342Y0134410D01*
X0022294Y0134410D01*
X0022294Y0133410D01*
X0018342Y0133410D01*
X0018342Y0131154D01*
X0018444Y0130772D01*
X0018641Y0130430D01*
X0018921Y0130151D01*
X0019263Y0129953D01*
X0019644Y0129851D01*
X0022294Y0129851D01*
X0022294Y0133410D01*
X0023294Y0133410D01*
X0023294Y0134410D01*
X0022294Y0134277D02*
X0003500Y0134277D01*
X0003500Y0135275D02*
X0018342Y0135275D01*
X0018342Y0136274D02*
X0003500Y0136274D01*
X0003500Y0137272D02*
X0018573Y0137272D01*
X0018342Y0138271D02*
X0003500Y0138271D01*
X0003500Y0139269D02*
X0018342Y0139269D01*
X0018342Y0140268D02*
X0003500Y0140268D01*
X0003500Y0141266D02*
X0018342Y0141266D01*
X0018342Y0142265D02*
X0003500Y0142265D01*
X0003500Y0143263D02*
X0018342Y0143263D01*
X0018342Y0144262D02*
X0003500Y0144262D01*
X0003500Y0145260D02*
X0019031Y0145260D01*
X0020677Y0146259D02*
X0003500Y0146259D01*
X0003500Y0147257D02*
X0020673Y0147257D01*
X0020669Y0148256D02*
X0003500Y0148256D01*
X0003500Y0149254D02*
X0020665Y0149254D01*
X0020662Y0150253D02*
X0003500Y0150253D01*
X0003500Y0151251D02*
X0021558Y0151251D01*
X0022205Y0152250D02*
X0003500Y0152250D01*
X0003500Y0153248D02*
X0022205Y0153248D01*
X0022205Y0154247D02*
X0003500Y0154247D01*
X0003500Y0155245D02*
X0022205Y0155245D01*
X0020091Y0156244D02*
X0003500Y0156244D01*
X0003500Y0157243D02*
X0019656Y0157243D01*
X0019656Y0158241D02*
X0003500Y0158241D01*
X0003500Y0159240D02*
X0019656Y0159240D01*
X0019656Y0160238D02*
X0003500Y0160238D01*
X0003500Y0161237D02*
X0005847Y0161237D01*
X0006164Y0160919D02*
X0005285Y0161798D01*
X0005285Y0174064D01*
X0006164Y0174943D01*
X0015281Y0174943D01*
X0016159Y0174064D01*
X0016159Y0161798D01*
X0015281Y0160919D01*
X0006164Y0160919D01*
X0005285Y0162235D02*
X0003500Y0162235D01*
X0003500Y0163234D02*
X0005285Y0163234D01*
X0005285Y0164232D02*
X0003500Y0164232D01*
X0003500Y0165231D02*
X0005285Y0165231D01*
X0005285Y0166229D02*
X0003500Y0166229D01*
X0003500Y0167228D02*
X0005285Y0167228D01*
X0005285Y0168226D02*
X0003500Y0168226D01*
X0003500Y0169225D02*
X0005285Y0169225D01*
X0005285Y0170223D02*
X0003500Y0170223D01*
X0003500Y0171222D02*
X0005285Y0171222D01*
X0005285Y0172220D02*
X0003500Y0172220D01*
X0003500Y0173219D02*
X0005285Y0173219D01*
X0005439Y0174217D02*
X0003500Y0174217D01*
X0003500Y0175216D02*
X0022284Y0175216D01*
X0022284Y0176214D02*
X0003500Y0176214D01*
X0003500Y0177213D02*
X0005618Y0177213D01*
X0005285Y0177546D02*
X0006164Y0176667D01*
X0015281Y0176667D01*
X0016159Y0177546D01*
X0016159Y0189812D01*
X0015281Y0190691D01*
X0006164Y0190691D01*
X0005285Y0189812D01*
X0005285Y0177546D01*
X0005285Y0178211D02*
X0003500Y0178211D01*
X0003500Y0179210D02*
X0005285Y0179210D01*
X0005285Y0180208D02*
X0003500Y0180208D01*
X0003500Y0181207D02*
X0005285Y0181207D01*
X0005285Y0182205D02*
X0003500Y0182205D01*
X0003500Y0183204D02*
X0005285Y0183204D01*
X0005285Y0184202D02*
X0003500Y0184202D01*
X0003500Y0185201D02*
X0005285Y0185201D01*
X0005285Y0186199D02*
X0003500Y0186199D01*
X0003500Y0187198D02*
X0005285Y0187198D01*
X0005285Y0188196D02*
X0003500Y0188196D01*
X0003500Y0189195D02*
X0005285Y0189195D01*
X0005667Y0190193D02*
X0003500Y0190193D01*
X0003500Y0191192D02*
X0030136Y0191192D01*
X0029474Y0190193D02*
X0015778Y0190193D01*
X0016159Y0189195D02*
X0029474Y0189195D01*
X0029474Y0188196D02*
X0016159Y0188196D01*
X0016159Y0187198D02*
X0029474Y0187198D01*
X0029474Y0186199D02*
X0027444Y0186199D01*
X0027665Y0185201D02*
X0029998Y0185201D01*
X0030620Y0184202D02*
X0027665Y0184202D01*
X0027665Y0183204D02*
X0030620Y0183204D01*
X0030620Y0182205D02*
X0027665Y0182205D01*
X0027665Y0181207D02*
X0030620Y0181207D01*
X0030620Y0180208D02*
X0026484Y0180208D01*
X0026484Y0179210D02*
X0030620Y0179210D01*
X0031094Y0178211D02*
X0026484Y0178211D01*
X0026484Y0177213D02*
X0032127Y0177213D01*
X0033126Y0176214D02*
X0026484Y0176214D01*
X0026484Y0175216D02*
X0034124Y0175216D01*
X0035123Y0174217D02*
X0026484Y0174217D01*
X0026484Y0173219D02*
X0036121Y0173219D01*
X0037120Y0172220D02*
X0026484Y0172220D01*
X0026484Y0171222D02*
X0037294Y0171222D01*
X0037294Y0170223D02*
X0026484Y0170223D01*
X0026484Y0169225D02*
X0037294Y0169225D01*
X0037294Y0168226D02*
X0026484Y0168226D01*
X0026484Y0167228D02*
X0037294Y0167228D01*
X0037294Y0166229D02*
X0026484Y0166229D01*
X0028733Y0165231D02*
X0029877Y0165231D01*
X0022284Y0166229D02*
X0016159Y0166229D01*
X0016159Y0165231D02*
X0019877Y0165231D01*
X0019656Y0164232D02*
X0016159Y0164232D01*
X0016159Y0163234D02*
X0019656Y0163234D01*
X0019656Y0162235D02*
X0016159Y0162235D01*
X0015598Y0161237D02*
X0019656Y0161237D01*
X0022284Y0167228D02*
X0016159Y0167228D01*
X0016159Y0168226D02*
X0022284Y0168226D01*
X0022284Y0169225D02*
X0016159Y0169225D01*
X0016159Y0170223D02*
X0022284Y0170223D01*
X0022284Y0171222D02*
X0016159Y0171222D01*
X0016159Y0172220D02*
X0022284Y0172220D01*
X0022284Y0173219D02*
X0016159Y0173219D01*
X0016006Y0174217D02*
X0022284Y0174217D01*
X0022284Y0177213D02*
X0015826Y0177213D01*
X0016159Y0178211D02*
X0022284Y0178211D01*
X0022284Y0179210D02*
X0016159Y0179210D01*
X0016159Y0180208D02*
X0022284Y0180208D01*
X0021103Y0181207D02*
X0016159Y0181207D01*
X0016159Y0182205D02*
X0021103Y0182205D01*
X0021103Y0183204D02*
X0016159Y0183204D01*
X0016159Y0184202D02*
X0021103Y0184202D01*
X0021103Y0185201D02*
X0016159Y0185201D01*
X0016159Y0186199D02*
X0021324Y0186199D01*
X0020958Y0195171D02*
X0023805Y0195171D01*
X0023805Y0199714D01*
X0024805Y0199714D01*
X0024805Y0195171D01*
X0027652Y0195171D01*
X0028034Y0195273D01*
X0028376Y0195471D01*
X0028655Y0195750D01*
X0028852Y0196092D01*
X0028955Y0196473D01*
X0028955Y0199714D01*
X0024805Y0199714D01*
X0024805Y0200714D01*
X0028955Y0200714D01*
X0028955Y0203955D01*
X0028852Y0204337D01*
X0028655Y0204679D01*
X0028376Y0204958D01*
X0028034Y0205155D01*
X0027652Y0205258D01*
X0024805Y0205258D01*
X0024805Y0200714D01*
X0023805Y0200714D01*
X0023805Y0199714D01*
X0019656Y0199714D01*
X0019656Y0196473D01*
X0019758Y0196092D01*
X0019955Y0195750D01*
X0020234Y0195471D01*
X0020577Y0195273D01*
X0020958Y0195171D01*
X0020902Y0195186D02*
X0003500Y0195186D01*
X0003500Y0196184D02*
X0019733Y0196184D01*
X0019656Y0197183D02*
X0003500Y0197183D01*
X0003500Y0198181D02*
X0019656Y0198181D01*
X0019656Y0199180D02*
X0003500Y0199180D01*
X0003500Y0200178D02*
X0023805Y0200178D01*
X0023805Y0200714D02*
X0019656Y0200714D01*
X0019656Y0203955D01*
X0019758Y0204337D01*
X0019955Y0204679D01*
X0020234Y0204958D01*
X0020577Y0205155D01*
X0020958Y0205258D01*
X0023805Y0205258D01*
X0023805Y0200714D01*
X0023805Y0201177D02*
X0024805Y0201177D01*
X0024805Y0200178D02*
X0029656Y0200178D01*
X0029656Y0199180D02*
X0028955Y0199180D01*
X0028955Y0198181D02*
X0029656Y0198181D01*
X0029656Y0197183D02*
X0028955Y0197183D01*
X0028877Y0196184D02*
X0029656Y0196184D01*
X0029656Y0196050D02*
X0030534Y0195171D01*
X0038076Y0195171D01*
X0038955Y0196050D01*
X0038955Y0204379D01*
X0038076Y0205258D01*
X0030534Y0205258D01*
X0029656Y0204379D01*
X0029656Y0196050D01*
X0030519Y0195186D02*
X0027708Y0195186D01*
X0024805Y0195186D02*
X0023805Y0195186D01*
X0023805Y0196184D02*
X0024805Y0196184D01*
X0024805Y0197183D02*
X0023805Y0197183D01*
X0023805Y0198181D02*
X0024805Y0198181D01*
X0024805Y0199180D02*
X0023805Y0199180D01*
X0023805Y0202176D02*
X0024805Y0202176D01*
X0024805Y0203174D02*
X0023805Y0203174D01*
X0023805Y0204173D02*
X0024805Y0204173D01*
X0024805Y0205171D02*
X0023805Y0205171D01*
X0020635Y0205171D02*
X0003500Y0205171D01*
X0003500Y0204173D02*
X0019714Y0204173D01*
X0019656Y0203174D02*
X0003500Y0203174D01*
X0003500Y0202176D02*
X0019656Y0202176D01*
X0019656Y0201177D02*
X0003500Y0201177D01*
X0003500Y0206170D02*
X0075949Y0206170D01*
X0075645Y0205865D02*
X0075645Y0202514D01*
X0048955Y0202514D01*
X0048955Y0204379D01*
X0048076Y0205258D01*
X0040534Y0205258D01*
X0039656Y0204379D01*
X0039656Y0196050D01*
X0040534Y0195171D01*
X0048076Y0195171D01*
X0048955Y0196050D01*
X0048955Y0197914D01*
X0075645Y0197914D01*
X0075645Y0195930D01*
X0051797Y0195930D01*
X0050450Y0194582D01*
X0047791Y0191924D01*
X0043447Y0191924D01*
X0042967Y0192403D01*
X0038163Y0192403D01*
X0037284Y0191524D01*
X0037284Y0186719D01*
X0038163Y0185841D01*
X0042967Y0185841D01*
X0043846Y0186719D01*
X0043846Y0187324D01*
X0049697Y0187324D01*
X0051044Y0188671D01*
X0053703Y0191330D01*
X0076267Y0191330D01*
X0076053Y0191116D01*
X0076053Y0184755D01*
X0076613Y0184196D01*
X0076353Y0183935D01*
X0076155Y0183593D01*
X0076053Y0183212D01*
X0076053Y0180955D01*
X0080006Y0180955D01*
X0080006Y0179955D01*
X0081006Y0179955D01*
X0081006Y0176396D01*
X0083656Y0176396D01*
X0084038Y0176499D01*
X0084380Y0176696D01*
X0084659Y0176975D01*
X0084856Y0177317D01*
X0084959Y0177699D01*
X0084959Y0179955D01*
X0081006Y0179955D01*
X0081006Y0180955D01*
X0084959Y0180955D01*
X0084959Y0183212D01*
X0084856Y0183593D01*
X0084659Y0183935D01*
X0084399Y0184196D01*
X0084959Y0184755D01*
X0084959Y0191116D01*
X0084300Y0191774D01*
X0084550Y0192024D01*
X0084550Y0198385D01*
X0083990Y0198945D01*
X0084550Y0199504D01*
X0084550Y0205865D01*
X0083672Y0206744D01*
X0076523Y0206744D01*
X0075645Y0205865D01*
X0075645Y0205171D02*
X0048163Y0205171D01*
X0048955Y0204173D02*
X0075645Y0204173D01*
X0075645Y0203174D02*
X0048955Y0203174D01*
X0048955Y0197183D02*
X0075645Y0197183D01*
X0075645Y0196184D02*
X0048955Y0196184D01*
X0048091Y0195186D02*
X0051054Y0195186D01*
X0050055Y0194187D02*
X0003500Y0194187D01*
X0003500Y0193189D02*
X0049057Y0193189D01*
X0048058Y0192190D02*
X0043180Y0192190D01*
X0040519Y0195186D02*
X0038091Y0195186D01*
X0038955Y0196184D02*
X0039656Y0196184D01*
X0039656Y0197183D02*
X0038955Y0197183D01*
X0038955Y0198181D02*
X0039656Y0198181D01*
X0039656Y0199180D02*
X0038955Y0199180D01*
X0038955Y0200178D02*
X0039656Y0200178D01*
X0039656Y0201177D02*
X0038955Y0201177D01*
X0038955Y0202176D02*
X0039656Y0202176D01*
X0039656Y0203174D02*
X0038955Y0203174D01*
X0038955Y0204173D02*
X0039656Y0204173D01*
X0040448Y0205171D02*
X0038163Y0205171D01*
X0030448Y0205171D02*
X0027975Y0205171D01*
X0028896Y0204173D02*
X0029656Y0204173D01*
X0029656Y0203174D02*
X0028955Y0203174D01*
X0028955Y0202176D02*
X0029656Y0202176D01*
X0029656Y0201177D02*
X0028955Y0201177D01*
X0035374Y0191192D02*
X0037284Y0191192D01*
X0037284Y0190193D02*
X0036036Y0190193D01*
X0036036Y0189195D02*
X0037284Y0189195D01*
X0037284Y0188196D02*
X0036036Y0188196D01*
X0036036Y0187198D02*
X0037284Y0187198D01*
X0037804Y0186199D02*
X0036036Y0186199D01*
X0035512Y0185201D02*
X0063159Y0185201D01*
X0063159Y0186199D02*
X0043326Y0186199D01*
X0043846Y0187198D02*
X0063159Y0187198D01*
X0063159Y0188196D02*
X0050569Y0188196D01*
X0051568Y0189195D02*
X0063159Y0189195D01*
X0063159Y0189812D02*
X0063159Y0177546D01*
X0064038Y0176667D01*
X0073155Y0176667D01*
X0074033Y0177546D01*
X0074033Y0189812D01*
X0073155Y0190691D01*
X0064038Y0190691D01*
X0063159Y0189812D01*
X0063541Y0190193D02*
X0052566Y0190193D01*
X0053565Y0191192D02*
X0076129Y0191192D01*
X0076053Y0190193D02*
X0073652Y0190193D01*
X0074033Y0189195D02*
X0076053Y0189195D01*
X0076053Y0188196D02*
X0074033Y0188196D01*
X0074033Y0187198D02*
X0076053Y0187198D01*
X0076053Y0186199D02*
X0074033Y0186199D01*
X0074033Y0185201D02*
X0076053Y0185201D01*
X0076606Y0184202D02*
X0074033Y0184202D01*
X0074033Y0183204D02*
X0076053Y0183204D01*
X0076053Y0182205D02*
X0074033Y0182205D01*
X0074033Y0181207D02*
X0076053Y0181207D01*
X0076053Y0179955D02*
X0076053Y0177699D01*
X0076155Y0177317D01*
X0076353Y0176975D01*
X0076632Y0176696D01*
X0076974Y0176499D01*
X0077356Y0176396D01*
X0080006Y0176396D01*
X0080006Y0179955D01*
X0076053Y0179955D01*
X0076053Y0179210D02*
X0074033Y0179210D01*
X0074033Y0180208D02*
X0080006Y0180208D01*
X0080006Y0179210D02*
X0081006Y0179210D01*
X0081006Y0180208D02*
X0143272Y0180208D01*
X0143403Y0179891D02*
X0144085Y0179210D01*
X0084959Y0179210D01*
X0084959Y0178211D02*
X0144085Y0178211D01*
X0144085Y0177213D02*
X0084796Y0177213D01*
X0084959Y0181207D02*
X0142904Y0181207D01*
X0142904Y0181097D02*
X0143403Y0179891D01*
X0144085Y0179210D02*
X0144085Y0152302D01*
X0143403Y0151620D01*
X0142904Y0150414D01*
X0142904Y0149109D01*
X0143403Y0147903D01*
X0144326Y0146980D01*
X0145532Y0146480D01*
X0146838Y0146480D01*
X0148044Y0146980D01*
X0148967Y0147903D01*
X0149466Y0149109D01*
X0149466Y0150414D01*
X0148967Y0151620D01*
X0148285Y0152302D01*
X0148285Y0179210D01*
X0175283Y0179210D01*
X0176281Y0178211D02*
X0148285Y0178211D01*
X0148285Y0177213D02*
X0177280Y0177213D01*
X0178278Y0176214D02*
X0148285Y0176214D01*
X0148285Y0175216D02*
X0179277Y0175216D01*
X0180275Y0174217D02*
X0148285Y0174217D01*
X0148285Y0173219D02*
X0181274Y0173219D01*
X0182272Y0172220D02*
X0148285Y0172220D01*
X0148285Y0171222D02*
X0182288Y0171222D01*
X0182274Y0171255D02*
X0182774Y0170049D01*
X0183697Y0169126D01*
X0184902Y0168626D01*
X0186208Y0168626D01*
X0187414Y0169126D01*
X0188337Y0170049D01*
X0188836Y0171255D01*
X0188836Y0172560D01*
X0188337Y0173766D01*
X0187414Y0174689D01*
X0186208Y0175188D01*
X0185244Y0175188D01*
X0171907Y0188525D01*
X0170677Y0189755D01*
X0168410Y0189755D01*
X0167729Y0190437D01*
X0166523Y0190936D01*
X0165217Y0190936D01*
X0164011Y0190437D01*
X0163330Y0189755D01*
X0151221Y0189755D01*
X0146496Y0185031D01*
X0145532Y0185031D01*
X0144326Y0184531D01*
X0143403Y0183608D01*
X0142904Y0182402D01*
X0142904Y0181097D01*
X0142904Y0182205D02*
X0084959Y0182205D01*
X0084959Y0183204D02*
X0143236Y0183204D01*
X0143997Y0184202D02*
X0084406Y0184202D01*
X0084959Y0185201D02*
X0146666Y0185201D01*
X0147665Y0186199D02*
X0084959Y0186199D01*
X0084959Y0187198D02*
X0148663Y0187198D01*
X0149662Y0188196D02*
X0084959Y0188196D01*
X0084959Y0189195D02*
X0150660Y0189195D01*
X0152960Y0185555D02*
X0163330Y0185555D01*
X0164011Y0184874D01*
X0165217Y0184374D01*
X0166523Y0184374D01*
X0167729Y0184874D01*
X0168410Y0185555D01*
X0168937Y0185555D01*
X0182274Y0172218D01*
X0182274Y0171255D01*
X0182701Y0170223D02*
X0148285Y0170223D01*
X0148285Y0169225D02*
X0183597Y0169225D01*
X0187513Y0169225D02*
X0197335Y0169225D01*
X0197335Y0170223D02*
X0188409Y0170223D01*
X0188823Y0171222D02*
X0197335Y0171222D01*
X0197335Y0172220D02*
X0188836Y0172220D01*
X0188563Y0173219D02*
X0197335Y0173219D01*
X0197335Y0174217D02*
X0187885Y0174217D01*
X0185216Y0175216D02*
X0197335Y0175216D01*
X0197335Y0176214D02*
X0184218Y0176214D01*
X0183219Y0177213D02*
X0197335Y0177213D01*
X0197335Y0178211D02*
X0182221Y0178211D01*
X0181222Y0179210D02*
X0197335Y0179210D01*
X0197335Y0180208D02*
X0180224Y0180208D01*
X0179225Y0181207D02*
X0197335Y0181207D01*
X0197335Y0182205D02*
X0178227Y0182205D01*
X0177228Y0183204D02*
X0197335Y0183204D01*
X0197335Y0184202D02*
X0176230Y0184202D01*
X0175231Y0185201D02*
X0197335Y0185201D01*
X0197335Y0186199D02*
X0174233Y0186199D01*
X0173234Y0187198D02*
X0197335Y0187198D01*
X0197335Y0188196D02*
X0172236Y0188196D01*
X0171237Y0189195D02*
X0197335Y0189195D01*
X0197335Y0190193D02*
X0167972Y0190193D01*
X0163768Y0190193D02*
X0084959Y0190193D01*
X0084883Y0191192D02*
X0197335Y0191192D01*
X0197335Y0192190D02*
X0084550Y0192190D01*
X0084550Y0193189D02*
X0197335Y0193189D01*
X0197335Y0194187D02*
X0084550Y0194187D01*
X0084550Y0195186D02*
X0197335Y0195186D01*
X0197335Y0196184D02*
X0084550Y0196184D01*
X0084550Y0197183D02*
X0197335Y0197183D01*
X0197335Y0198181D02*
X0084550Y0198181D01*
X0084226Y0199180D02*
X0197335Y0199180D01*
X0197335Y0200178D02*
X0084550Y0200178D01*
X0084550Y0201177D02*
X0197335Y0201177D01*
X0197335Y0202176D02*
X0084550Y0202176D01*
X0084550Y0203174D02*
X0197335Y0203174D01*
X0197335Y0204173D02*
X0084550Y0204173D01*
X0084550Y0205171D02*
X0197335Y0205171D01*
X0197335Y0206170D02*
X0084246Y0206170D01*
X0063159Y0184202D02*
X0034820Y0184202D01*
X0034820Y0183204D02*
X0041236Y0183204D01*
X0041236Y0182205D02*
X0034820Y0182205D01*
X0034820Y0181207D02*
X0041236Y0181207D01*
X0041236Y0180208D02*
X0035071Y0180208D01*
X0036070Y0179210D02*
X0041236Y0179210D01*
X0041442Y0178211D02*
X0037068Y0178211D01*
X0038067Y0177213D02*
X0045154Y0177213D01*
X0046152Y0176214D02*
X0039065Y0176214D01*
X0040064Y0175216D02*
X0047151Y0175216D01*
X0047520Y0174217D02*
X0041062Y0174217D01*
X0041494Y0173219D02*
X0047520Y0173219D01*
X0047520Y0172220D02*
X0041494Y0172220D01*
X0041494Y0171222D02*
X0047520Y0171222D01*
X0047520Y0170223D02*
X0041494Y0170223D01*
X0041494Y0169225D02*
X0047520Y0169225D01*
X0047520Y0168226D02*
X0041494Y0168226D01*
X0041494Y0167228D02*
X0047520Y0167228D01*
X0047520Y0166229D02*
X0041494Y0166229D01*
X0051720Y0166229D02*
X0063159Y0166229D01*
X0063159Y0165231D02*
X0051720Y0165231D01*
X0051720Y0164232D02*
X0063159Y0164232D01*
X0063159Y0163234D02*
X0051720Y0163234D01*
X0051720Y0162235D02*
X0063159Y0162235D01*
X0063159Y0161798D02*
X0064038Y0160919D01*
X0073155Y0160919D01*
X0074033Y0161798D01*
X0074033Y0174064D01*
X0073155Y0174943D01*
X0064038Y0174943D01*
X0063159Y0174064D01*
X0063159Y0161798D01*
X0063721Y0161237D02*
X0051720Y0161237D01*
X0051720Y0160238D02*
X0144085Y0160238D01*
X0144085Y0159240D02*
X0051720Y0159240D01*
X0051720Y0158241D02*
X0144085Y0158241D01*
X0144085Y0157243D02*
X0051720Y0157243D01*
X0051720Y0156244D02*
X0144085Y0156244D01*
X0144085Y0155245D02*
X0051720Y0155245D01*
X0051720Y0154247D02*
X0144085Y0154247D01*
X0144085Y0153248D02*
X0051720Y0153248D01*
X0051720Y0152250D02*
X0144033Y0152250D01*
X0143251Y0151251D02*
X0051720Y0151251D01*
X0051720Y0150253D02*
X0142904Y0150253D01*
X0142904Y0149254D02*
X0051720Y0149254D01*
X0051720Y0148256D02*
X0143257Y0148256D01*
X0144049Y0147257D02*
X0051720Y0147257D01*
X0051720Y0146259D02*
X0197335Y0146259D01*
X0197335Y0147257D02*
X0148321Y0147257D01*
X0149113Y0148256D02*
X0197335Y0148256D01*
X0197335Y0149254D02*
X0149466Y0149254D01*
X0149466Y0150253D02*
X0197335Y0150253D01*
X0197335Y0151251D02*
X0149119Y0151251D01*
X0148337Y0152250D02*
X0197335Y0152250D01*
X0197335Y0153248D02*
X0148285Y0153248D01*
X0148285Y0154247D02*
X0197335Y0154247D01*
X0197335Y0155245D02*
X0148285Y0155245D01*
X0148285Y0156244D02*
X0197335Y0156244D01*
X0197335Y0157243D02*
X0148285Y0157243D01*
X0148285Y0158241D02*
X0197335Y0158241D01*
X0197335Y0159240D02*
X0148285Y0159240D01*
X0148285Y0160238D02*
X0197335Y0160238D01*
X0197335Y0161237D02*
X0148285Y0161237D01*
X0148285Y0162235D02*
X0197335Y0162235D01*
X0197335Y0163234D02*
X0148285Y0163234D01*
X0148285Y0164232D02*
X0197335Y0164232D01*
X0197335Y0165231D02*
X0148285Y0165231D01*
X0148285Y0166229D02*
X0197335Y0166229D01*
X0197335Y0167228D02*
X0148285Y0167228D01*
X0148285Y0168226D02*
X0197335Y0168226D01*
X0197335Y0145260D02*
X0051720Y0145260D01*
X0051720Y0144262D02*
X0165573Y0144262D01*
X0164857Y0143263D02*
X0051720Y0143263D01*
X0051481Y0142265D02*
X0164557Y0142265D01*
X0164557Y0141266D02*
X0050483Y0141266D01*
X0049484Y0140268D02*
X0164958Y0140268D01*
X0165246Y0139269D02*
X0048723Y0139269D01*
X0048723Y0138271D02*
X0165246Y0138271D01*
X0165246Y0137272D02*
X0048723Y0137272D01*
X0048723Y0136274D02*
X0165246Y0136274D01*
X0165246Y0135275D02*
X0048633Y0135275D01*
X0033698Y0135275D02*
X0033594Y0135275D01*
X0023294Y0133278D02*
X0022294Y0133278D01*
X0022294Y0132280D02*
X0023294Y0132280D01*
X0023294Y0131281D02*
X0022294Y0131281D01*
X0022294Y0130283D02*
X0023294Y0130283D01*
X0018789Y0130283D02*
X0003500Y0130283D01*
X0003500Y0131281D02*
X0018342Y0131281D01*
X0018342Y0132280D02*
X0003500Y0132280D01*
X0003500Y0133278D02*
X0018342Y0133278D01*
X0051720Y0167228D02*
X0063159Y0167228D01*
X0063159Y0168226D02*
X0051720Y0168226D01*
X0051720Y0169225D02*
X0063159Y0169225D01*
X0063159Y0170223D02*
X0051720Y0170223D01*
X0051720Y0171222D02*
X0063159Y0171222D01*
X0063159Y0172220D02*
X0051720Y0172220D01*
X0051720Y0173219D02*
X0063159Y0173219D01*
X0063313Y0174217D02*
X0051720Y0174217D01*
X0051720Y0175216D02*
X0144085Y0175216D01*
X0144085Y0176214D02*
X0051720Y0176214D01*
X0051093Y0177213D02*
X0063492Y0177213D01*
X0063159Y0178211D02*
X0050095Y0178211D01*
X0049096Y0179210D02*
X0063159Y0179210D01*
X0063159Y0180208D02*
X0048098Y0180208D01*
X0047798Y0181207D02*
X0063159Y0181207D01*
X0063159Y0182205D02*
X0047798Y0182205D01*
X0047798Y0183204D02*
X0063159Y0183204D01*
X0074033Y0178211D02*
X0076053Y0178211D01*
X0076216Y0177213D02*
X0073700Y0177213D01*
X0073880Y0174217D02*
X0144085Y0174217D01*
X0144085Y0173219D02*
X0074033Y0173219D01*
X0074033Y0172220D02*
X0144085Y0172220D01*
X0144085Y0171222D02*
X0074033Y0171222D01*
X0074033Y0170223D02*
X0144085Y0170223D01*
X0144085Y0169225D02*
X0074033Y0169225D01*
X0074033Y0168226D02*
X0144085Y0168226D01*
X0144085Y0167228D02*
X0074033Y0167228D01*
X0074033Y0166229D02*
X0144085Y0166229D01*
X0144085Y0165231D02*
X0074033Y0165231D01*
X0074033Y0164232D02*
X0144085Y0164232D01*
X0144085Y0163234D02*
X0074033Y0163234D01*
X0074033Y0162235D02*
X0144085Y0162235D01*
X0144085Y0161237D02*
X0073472Y0161237D01*
X0080006Y0177213D02*
X0081006Y0177213D01*
X0081006Y0178211D02*
X0080006Y0178211D01*
X0037950Y0192190D02*
X0003500Y0192190D01*
X0003500Y0207168D02*
X0197335Y0207168D01*
X0174284Y0180208D02*
X0149098Y0180208D01*
X0148967Y0179891D02*
X0149466Y0181097D01*
X0149466Y0182061D01*
X0152960Y0185555D01*
X0152606Y0185201D02*
X0163684Y0185201D01*
X0168056Y0185201D02*
X0169292Y0185201D01*
X0170290Y0184202D02*
X0151607Y0184202D01*
X0150609Y0183204D02*
X0171289Y0183204D01*
X0172287Y0182205D02*
X0149610Y0182205D01*
X0149466Y0181207D02*
X0173286Y0181207D01*
X0148967Y0179891D02*
X0148285Y0179210D01*
X0170104Y0144262D02*
X0176678Y0144262D01*
X0176918Y0144502D02*
X0176051Y0143635D01*
X0175581Y0142501D01*
X0175581Y0141274D01*
X0176051Y0140140D01*
X0176365Y0139826D01*
X0176365Y0082372D01*
X0185916Y0072821D01*
X0185916Y0072376D01*
X0186385Y0071243D01*
X0187253Y0070375D01*
X0188386Y0069906D01*
X0189613Y0069906D01*
X0190747Y0070375D01*
X0191615Y0071243D01*
X0192084Y0072376D01*
X0192084Y0073603D01*
X0191615Y0074737D01*
X0190747Y0075605D01*
X0189613Y0076074D01*
X0189168Y0076074D01*
X0180965Y0084277D01*
X0180965Y0139826D01*
X0181280Y0140140D01*
X0181750Y0141274D01*
X0181750Y0142501D01*
X0181280Y0143635D01*
X0180412Y0144502D01*
X0179279Y0144972D01*
X0178052Y0144972D01*
X0176918Y0144502D01*
X0175897Y0143263D02*
X0170820Y0143263D01*
X0171120Y0142265D02*
X0175581Y0142265D01*
X0175584Y0141266D02*
X0171120Y0141266D01*
X0170719Y0140268D02*
X0175998Y0140268D01*
X0176365Y0139269D02*
X0169861Y0139269D01*
X0169446Y0138271D02*
X0176365Y0138271D01*
X0176365Y0137272D02*
X0169446Y0137272D01*
X0169446Y0136274D02*
X0176365Y0136274D01*
X0176365Y0135275D02*
X0169446Y0135275D01*
X0169446Y0134277D02*
X0176365Y0134277D01*
X0176365Y0133278D02*
X0169446Y0133278D01*
X0169446Y0132280D02*
X0176365Y0132280D01*
X0176365Y0131281D02*
X0169446Y0131281D01*
X0169446Y0130283D02*
X0176365Y0130283D01*
X0176365Y0129284D02*
X0169446Y0129284D01*
X0169446Y0128286D02*
X0176365Y0128286D01*
X0176365Y0127287D02*
X0169446Y0127287D01*
X0169446Y0126289D02*
X0176365Y0126289D01*
X0176365Y0125290D02*
X0169446Y0125290D01*
X0169446Y0124292D02*
X0176365Y0124292D01*
X0176365Y0123293D02*
X0169446Y0123293D01*
X0169446Y0122295D02*
X0176365Y0122295D01*
X0176365Y0121296D02*
X0169446Y0121296D01*
X0169446Y0120298D02*
X0176365Y0120298D01*
X0176365Y0119299D02*
X0169446Y0119299D01*
X0169446Y0118301D02*
X0176365Y0118301D01*
X0176365Y0117302D02*
X0169446Y0117302D01*
X0169446Y0116304D02*
X0176365Y0116304D01*
X0176365Y0115305D02*
X0169446Y0115305D01*
X0169446Y0114307D02*
X0176365Y0114307D01*
X0176365Y0113308D02*
X0169446Y0113308D01*
X0169446Y0112309D02*
X0176365Y0112309D01*
X0176365Y0111311D02*
X0169446Y0111311D01*
X0169446Y0110312D02*
X0176365Y0110312D01*
X0176365Y0109314D02*
X0169446Y0109314D01*
X0169446Y0108315D02*
X0176365Y0108315D01*
X0176365Y0107317D02*
X0169446Y0107317D01*
X0169446Y0106318D02*
X0176365Y0106318D01*
X0176365Y0105320D02*
X0169446Y0105320D01*
X0169446Y0104321D02*
X0176365Y0104321D01*
X0176365Y0103323D02*
X0169446Y0103323D01*
X0169446Y0102324D02*
X0176365Y0102324D01*
X0176365Y0101326D02*
X0169446Y0101326D01*
X0169446Y0100327D02*
X0176365Y0100327D01*
X0176365Y0099329D02*
X0169446Y0099329D01*
X0169446Y0098330D02*
X0176365Y0098330D01*
X0176365Y0097332D02*
X0169446Y0097332D01*
X0169446Y0096333D02*
X0176365Y0096333D01*
X0176365Y0095335D02*
X0169446Y0095335D01*
X0169446Y0094336D02*
X0176365Y0094336D01*
X0176365Y0093338D02*
X0169446Y0093338D01*
X0169446Y0092339D02*
X0176365Y0092339D01*
X0176365Y0091341D02*
X0169446Y0091341D01*
X0169446Y0090342D02*
X0176365Y0090342D01*
X0176365Y0089344D02*
X0169446Y0089344D01*
X0169446Y0088345D02*
X0176365Y0088345D01*
X0176365Y0087347D02*
X0169446Y0087347D01*
X0169446Y0086348D02*
X0176365Y0086348D01*
X0176365Y0085350D02*
X0169446Y0085350D01*
X0169446Y0084351D02*
X0176365Y0084351D01*
X0176365Y0083353D02*
X0169446Y0083353D01*
X0169446Y0082354D02*
X0176383Y0082354D01*
X0177382Y0081356D02*
X0169446Y0081356D01*
X0169446Y0080357D02*
X0178380Y0080357D01*
X0179379Y0079359D02*
X0169446Y0079359D01*
X0169446Y0078360D02*
X0180377Y0078360D01*
X0181376Y0077362D02*
X0169446Y0077362D01*
X0169446Y0076363D02*
X0182374Y0076363D01*
X0183373Y0075365D02*
X0169446Y0075365D01*
X0169446Y0074366D02*
X0184371Y0074366D01*
X0185370Y0073368D02*
X0170121Y0073368D01*
X0170431Y0072369D02*
X0185919Y0072369D01*
X0186332Y0071371D02*
X0170422Y0071371D01*
X0170008Y0070372D02*
X0187260Y0070372D01*
X0190740Y0070372D02*
X0197335Y0070372D01*
X0197335Y0069374D02*
X0169052Y0069374D01*
X0156615Y0083353D02*
X0155479Y0083353D01*
X0140866Y0076363D02*
X0130034Y0076363D01*
X0109202Y0042414D02*
X0089664Y0042414D01*
X0090662Y0041415D02*
X0108204Y0041415D01*
X0107568Y0040417D02*
X0091298Y0040417D01*
X0091712Y0039418D02*
X0107155Y0039418D01*
X0107033Y0038420D02*
X0091833Y0038420D01*
X0091833Y0037421D02*
X0107033Y0037421D01*
X0107296Y0036423D02*
X0091571Y0036423D01*
X0091157Y0035424D02*
X0107709Y0035424D01*
X0108544Y0034426D02*
X0090322Y0034426D01*
X0088963Y0033427D02*
X0109904Y0033427D01*
X0180965Y0084351D02*
X0197335Y0084351D01*
X0197335Y0083353D02*
X0181890Y0083353D01*
X0182888Y0082354D02*
X0197335Y0082354D01*
X0197335Y0081356D02*
X0183887Y0081356D01*
X0184885Y0080357D02*
X0197335Y0080357D01*
X0197335Y0079359D02*
X0185884Y0079359D01*
X0186882Y0078360D02*
X0197335Y0078360D01*
X0197335Y0077362D02*
X0187881Y0077362D01*
X0188879Y0076363D02*
X0197335Y0076363D01*
X0197335Y0075365D02*
X0190987Y0075365D01*
X0191768Y0074366D02*
X0197335Y0074366D01*
X0197335Y0073368D02*
X0192084Y0073368D01*
X0192081Y0072369D02*
X0197335Y0072369D01*
X0197335Y0071371D02*
X0191668Y0071371D01*
X0197335Y0085350D02*
X0180965Y0085350D01*
X0180965Y0086348D02*
X0197335Y0086348D01*
X0197335Y0087347D02*
X0180965Y0087347D01*
X0180965Y0088345D02*
X0197335Y0088345D01*
X0197335Y0089344D02*
X0180965Y0089344D01*
X0180965Y0090342D02*
X0197335Y0090342D01*
X0197335Y0091341D02*
X0180965Y0091341D01*
X0180965Y0092339D02*
X0197335Y0092339D01*
X0197335Y0093338D02*
X0180965Y0093338D01*
X0180965Y0094336D02*
X0197335Y0094336D01*
X0197335Y0095335D02*
X0180965Y0095335D01*
X0180965Y0096333D02*
X0197335Y0096333D01*
X0197335Y0097332D02*
X0180965Y0097332D01*
X0180965Y0098330D02*
X0197335Y0098330D01*
X0197335Y0099329D02*
X0180965Y0099329D01*
X0180965Y0100327D02*
X0197335Y0100327D01*
X0197335Y0101326D02*
X0180965Y0101326D01*
X0180965Y0102324D02*
X0197335Y0102324D01*
X0197335Y0103323D02*
X0180965Y0103323D01*
X0180965Y0104321D02*
X0197335Y0104321D01*
X0197335Y0105320D02*
X0180965Y0105320D01*
X0180965Y0106318D02*
X0197335Y0106318D01*
X0197335Y0107317D02*
X0180965Y0107317D01*
X0180965Y0108315D02*
X0197335Y0108315D01*
X0197335Y0109314D02*
X0180965Y0109314D01*
X0180965Y0110312D02*
X0197335Y0110312D01*
X0197335Y0111311D02*
X0180965Y0111311D01*
X0180965Y0112309D02*
X0197335Y0112309D01*
X0197335Y0113308D02*
X0180965Y0113308D01*
X0180965Y0114307D02*
X0197335Y0114307D01*
X0197335Y0115305D02*
X0180965Y0115305D01*
X0180965Y0116304D02*
X0197335Y0116304D01*
X0197335Y0117302D02*
X0180965Y0117302D01*
X0180965Y0118301D02*
X0197335Y0118301D01*
X0197335Y0119299D02*
X0180965Y0119299D01*
X0180965Y0120298D02*
X0197335Y0120298D01*
X0197335Y0121296D02*
X0180965Y0121296D01*
X0180965Y0122295D02*
X0197335Y0122295D01*
X0197335Y0123293D02*
X0180965Y0123293D01*
X0180965Y0124292D02*
X0197335Y0124292D01*
X0197335Y0125290D02*
X0180965Y0125290D01*
X0180965Y0126289D02*
X0197335Y0126289D01*
X0197335Y0127287D02*
X0180965Y0127287D01*
X0180965Y0128286D02*
X0197335Y0128286D01*
X0197335Y0129284D02*
X0180965Y0129284D01*
X0180965Y0130283D02*
X0197335Y0130283D01*
X0197335Y0131281D02*
X0180965Y0131281D01*
X0180965Y0132280D02*
X0197335Y0132280D01*
X0197335Y0133278D02*
X0180965Y0133278D01*
X0180965Y0134277D02*
X0197335Y0134277D01*
X0197335Y0135275D02*
X0180965Y0135275D01*
X0180965Y0136274D02*
X0197335Y0136274D01*
X0197335Y0137272D02*
X0180965Y0137272D01*
X0180965Y0138271D02*
X0197335Y0138271D01*
X0197335Y0139269D02*
X0180965Y0139269D01*
X0181333Y0140268D02*
X0197335Y0140268D01*
X0197335Y0141266D02*
X0181746Y0141266D01*
X0181750Y0142265D02*
X0197335Y0142265D01*
X0197335Y0143263D02*
X0181434Y0143263D01*
X0180653Y0144262D02*
X0197335Y0144262D01*
D11*
X0080506Y0180455D03*
X0080506Y0187936D03*
X0080097Y0195204D03*
X0080097Y0202685D03*
X0044271Y0146026D03*
X0044271Y0138546D03*
X0022794Y0141390D03*
X0022794Y0133910D03*
D12*
X0024305Y0160844D03*
X0034305Y0160844D03*
X0044305Y0160844D03*
X0044305Y0200214D03*
X0034305Y0200214D03*
X0024305Y0200214D03*
D13*
X0010722Y0183679D03*
X0010722Y0167931D03*
X0068596Y0167931D03*
X0068596Y0183679D03*
D14*
X0022759Y0045765D02*
X0022761Y0045849D01*
X0022767Y0045932D01*
X0022777Y0046015D01*
X0022791Y0046098D01*
X0022808Y0046180D01*
X0022830Y0046261D01*
X0022855Y0046340D01*
X0022884Y0046419D01*
X0022917Y0046496D01*
X0022953Y0046571D01*
X0022993Y0046645D01*
X0023036Y0046717D01*
X0023083Y0046786D01*
X0023133Y0046853D01*
X0023186Y0046918D01*
X0023242Y0046980D01*
X0023300Y0047040D01*
X0023362Y0047097D01*
X0023426Y0047150D01*
X0023493Y0047201D01*
X0023562Y0047248D01*
X0023633Y0047293D01*
X0023706Y0047333D01*
X0023781Y0047370D01*
X0023858Y0047404D01*
X0023936Y0047434D01*
X0024015Y0047460D01*
X0024096Y0047483D01*
X0024178Y0047501D01*
X0024260Y0047516D01*
X0024343Y0047527D01*
X0024426Y0047534D01*
X0024510Y0047537D01*
X0024594Y0047536D01*
X0024677Y0047531D01*
X0024761Y0047522D01*
X0024843Y0047509D01*
X0024925Y0047493D01*
X0025006Y0047472D01*
X0025087Y0047448D01*
X0025165Y0047420D01*
X0025243Y0047388D01*
X0025319Y0047352D01*
X0025393Y0047313D01*
X0025465Y0047271D01*
X0025535Y0047225D01*
X0025603Y0047176D01*
X0025668Y0047124D01*
X0025731Y0047069D01*
X0025791Y0047011D01*
X0025849Y0046950D01*
X0025903Y0046886D01*
X0025955Y0046820D01*
X0026003Y0046752D01*
X0026048Y0046681D01*
X0026089Y0046608D01*
X0026128Y0046534D01*
X0026162Y0046458D01*
X0026193Y0046380D01*
X0026220Y0046301D01*
X0026244Y0046220D01*
X0026263Y0046139D01*
X0026279Y0046057D01*
X0026291Y0045974D01*
X0026299Y0045890D01*
X0026303Y0045807D01*
X0026303Y0045723D01*
X0026299Y0045640D01*
X0026291Y0045556D01*
X0026279Y0045473D01*
X0026263Y0045391D01*
X0026244Y0045310D01*
X0026220Y0045229D01*
X0026193Y0045150D01*
X0026162Y0045072D01*
X0026128Y0044996D01*
X0026089Y0044922D01*
X0026048Y0044849D01*
X0026003Y0044778D01*
X0025955Y0044710D01*
X0025903Y0044644D01*
X0025849Y0044580D01*
X0025791Y0044519D01*
X0025731Y0044461D01*
X0025668Y0044406D01*
X0025603Y0044354D01*
X0025535Y0044305D01*
X0025465Y0044259D01*
X0025393Y0044217D01*
X0025319Y0044178D01*
X0025243Y0044142D01*
X0025165Y0044110D01*
X0025087Y0044082D01*
X0025006Y0044058D01*
X0024925Y0044037D01*
X0024843Y0044021D01*
X0024761Y0044008D01*
X0024677Y0043999D01*
X0024594Y0043994D01*
X0024510Y0043993D01*
X0024426Y0043996D01*
X0024343Y0044003D01*
X0024260Y0044014D01*
X0024178Y0044029D01*
X0024096Y0044047D01*
X0024015Y0044070D01*
X0023936Y0044096D01*
X0023858Y0044126D01*
X0023781Y0044160D01*
X0023706Y0044197D01*
X0023633Y0044237D01*
X0023562Y0044282D01*
X0023493Y0044329D01*
X0023426Y0044380D01*
X0023362Y0044433D01*
X0023300Y0044490D01*
X0023242Y0044550D01*
X0023186Y0044612D01*
X0023133Y0044677D01*
X0023083Y0044744D01*
X0023036Y0044813D01*
X0022993Y0044885D01*
X0022953Y0044959D01*
X0022917Y0045034D01*
X0022884Y0045111D01*
X0022855Y0045190D01*
X0022830Y0045269D01*
X0022808Y0045350D01*
X0022791Y0045432D01*
X0022777Y0045515D01*
X0022767Y0045598D01*
X0022761Y0045681D01*
X0022759Y0045765D01*
X0022759Y0028443D02*
X0022761Y0028527D01*
X0022767Y0028610D01*
X0022777Y0028693D01*
X0022791Y0028776D01*
X0022808Y0028858D01*
X0022830Y0028939D01*
X0022855Y0029018D01*
X0022884Y0029097D01*
X0022917Y0029174D01*
X0022953Y0029249D01*
X0022993Y0029323D01*
X0023036Y0029395D01*
X0023083Y0029464D01*
X0023133Y0029531D01*
X0023186Y0029596D01*
X0023242Y0029658D01*
X0023300Y0029718D01*
X0023362Y0029775D01*
X0023426Y0029828D01*
X0023493Y0029879D01*
X0023562Y0029926D01*
X0023633Y0029971D01*
X0023706Y0030011D01*
X0023781Y0030048D01*
X0023858Y0030082D01*
X0023936Y0030112D01*
X0024015Y0030138D01*
X0024096Y0030161D01*
X0024178Y0030179D01*
X0024260Y0030194D01*
X0024343Y0030205D01*
X0024426Y0030212D01*
X0024510Y0030215D01*
X0024594Y0030214D01*
X0024677Y0030209D01*
X0024761Y0030200D01*
X0024843Y0030187D01*
X0024925Y0030171D01*
X0025006Y0030150D01*
X0025087Y0030126D01*
X0025165Y0030098D01*
X0025243Y0030066D01*
X0025319Y0030030D01*
X0025393Y0029991D01*
X0025465Y0029949D01*
X0025535Y0029903D01*
X0025603Y0029854D01*
X0025668Y0029802D01*
X0025731Y0029747D01*
X0025791Y0029689D01*
X0025849Y0029628D01*
X0025903Y0029564D01*
X0025955Y0029498D01*
X0026003Y0029430D01*
X0026048Y0029359D01*
X0026089Y0029286D01*
X0026128Y0029212D01*
X0026162Y0029136D01*
X0026193Y0029058D01*
X0026220Y0028979D01*
X0026244Y0028898D01*
X0026263Y0028817D01*
X0026279Y0028735D01*
X0026291Y0028652D01*
X0026299Y0028568D01*
X0026303Y0028485D01*
X0026303Y0028401D01*
X0026299Y0028318D01*
X0026291Y0028234D01*
X0026279Y0028151D01*
X0026263Y0028069D01*
X0026244Y0027988D01*
X0026220Y0027907D01*
X0026193Y0027828D01*
X0026162Y0027750D01*
X0026128Y0027674D01*
X0026089Y0027600D01*
X0026048Y0027527D01*
X0026003Y0027456D01*
X0025955Y0027388D01*
X0025903Y0027322D01*
X0025849Y0027258D01*
X0025791Y0027197D01*
X0025731Y0027139D01*
X0025668Y0027084D01*
X0025603Y0027032D01*
X0025535Y0026983D01*
X0025465Y0026937D01*
X0025393Y0026895D01*
X0025319Y0026856D01*
X0025243Y0026820D01*
X0025165Y0026788D01*
X0025087Y0026760D01*
X0025006Y0026736D01*
X0024925Y0026715D01*
X0024843Y0026699D01*
X0024761Y0026686D01*
X0024677Y0026677D01*
X0024594Y0026672D01*
X0024510Y0026671D01*
X0024426Y0026674D01*
X0024343Y0026681D01*
X0024260Y0026692D01*
X0024178Y0026707D01*
X0024096Y0026725D01*
X0024015Y0026748D01*
X0023936Y0026774D01*
X0023858Y0026804D01*
X0023781Y0026838D01*
X0023706Y0026875D01*
X0023633Y0026915D01*
X0023562Y0026960D01*
X0023493Y0027007D01*
X0023426Y0027058D01*
X0023362Y0027111D01*
X0023300Y0027168D01*
X0023242Y0027228D01*
X0023186Y0027290D01*
X0023133Y0027355D01*
X0023083Y0027422D01*
X0023036Y0027491D01*
X0022993Y0027563D01*
X0022953Y0027637D01*
X0022917Y0027712D01*
X0022884Y0027789D01*
X0022855Y0027868D01*
X0022830Y0027947D01*
X0022808Y0028028D01*
X0022791Y0028110D01*
X0022777Y0028193D01*
X0022767Y0028276D01*
X0022761Y0028359D01*
X0022759Y0028443D01*
D15*
X0086633Y0020291D03*
X0086633Y0038091D03*
X0112233Y0038091D03*
X0112233Y0020291D03*
D16*
X0037386Y0139220D03*
X0029906Y0139220D03*
D17*
X0100909Y0092183D03*
X0110752Y0092183D03*
X0147401Y0020775D03*
X0157342Y0021287D03*
X0167593Y0021267D03*
X0177903Y0021553D03*
X0188405Y0021376D03*
D18*
X0167839Y0049860D03*
X0167346Y0072006D03*
X0171776Y0076435D03*
X0158980Y0081356D03*
X0154010Y0080623D03*
X0149251Y0080145D03*
X0142888Y0074023D03*
X0140280Y0080372D03*
X0142789Y0068167D03*
X0140280Y0055765D03*
X0139837Y0036376D03*
X0117642Y0049860D03*
X0105831Y0053797D03*
X0101894Y0076435D03*
X0101894Y0081356D03*
X0118631Y0104924D03*
X0122563Y0103010D03*
X0132898Y0102517D03*
X0178665Y0141888D03*
X0189000Y0072990D03*
X0075319Y0020332D03*
X0065476Y0045923D03*
X0044807Y0061671D03*
D19*
X0101894Y0076435D02*
X0102878Y0076435D01*
X0108783Y0070529D01*
X0141264Y0070529D01*
X0142740Y0069053D01*
X0142789Y0068167D01*
X0142888Y0074023D02*
X0129453Y0073974D01*
X0122071Y0081356D01*
X0101894Y0081356D01*
X0118833Y0102222D02*
X0118833Y0104722D01*
X0118631Y0104924D01*
X0118833Y0102222D02*
X0135496Y0085559D01*
X0149266Y0085559D01*
X0154010Y0080815D01*
X0154010Y0080623D01*
X0158980Y0081356D02*
X0158980Y0032355D01*
X0147401Y0020775D01*
X0167346Y0072006D02*
X0167346Y0141395D01*
X0167839Y0141888D01*
X0146185Y0149762D02*
X0146185Y0181750D01*
X0152091Y0187655D01*
X0165870Y0187655D01*
X0169807Y0187655D01*
X0185555Y0171907D01*
X0132898Y0103010D02*
X0132898Y0102517D01*
X0049620Y0143374D02*
X0049620Y0175716D01*
X0044517Y0180820D01*
X0039394Y0172916D02*
X0032981Y0179328D01*
X0032947Y0179328D01*
X0032720Y0179555D01*
X0032720Y0188093D01*
X0032755Y0188128D01*
X0024384Y0183575D02*
X0024384Y0160923D01*
X0024305Y0160844D01*
X0024305Y0151026D01*
X0022765Y0149486D01*
X0022794Y0141390D01*
X0029906Y0139220D02*
X0030102Y0162547D01*
X0034305Y0160844D01*
X0044271Y0160810D02*
X0044305Y0160844D01*
X0044271Y0160810D02*
X0044271Y0146026D01*
X0039394Y0150938D02*
X0037189Y0148733D01*
X0037386Y0139220D01*
X0044989Y0138743D02*
X0049620Y0143374D01*
X0039394Y0150938D02*
X0039394Y0172916D01*
D20*
X0044517Y0180820D03*
X0040565Y0189122D03*
X0032755Y0188128D03*
X0024384Y0183575D03*
D21*
X0040565Y0189122D02*
X0041067Y0189624D01*
X0048744Y0189624D01*
X0052750Y0193630D01*
X0078326Y0193630D01*
X0080097Y0195204D01*
X0080506Y0194993D01*
X0080506Y0187936D01*
X0077824Y0200214D02*
X0080097Y0202685D01*
X0077824Y0200214D02*
X0044305Y0200214D01*
X0044989Y0138743D02*
X0044271Y0138546D01*
X0112233Y0038091D02*
X0138122Y0038091D01*
X0139837Y0036376D01*
X0178665Y0083325D02*
X0189000Y0072990D01*
X0178665Y0083325D02*
X0178665Y0141888D01*
D22*
X0167839Y0141888D03*
X0146185Y0149762D03*
X0146185Y0181750D03*
X0165870Y0187655D03*
X0185555Y0171907D03*
M02*
