G75*
%MOIN*%
%OFA0B0*%
%FSLAX25Y25*%
%IPPOS*%
%LPD*%
%AMOC8*
5,1,8,0,0,1.08239X$1,22.5*
%
%ADD10C,0.01000*%
%ADD11C,0.00400*%
%ADD12C,0.00100*%
%ADD13C,0.00800*%
%ADD14C,0.00500*%
%ADD15C,0.00600*%
%ADD16C,0.01200*%
%ADD17C,0.00300*%
%ADD18R,0.23622X0.23622*%
%ADD19R,0.03000X0.08000*%
%ADD20C,0.00000*%
%ADD21C,0.01181*%
D10*
X0001500Y0012458D02*
X0199335Y0012458D01*
X0199335Y0209309D01*
X0001500Y0209309D01*
X0001500Y0012458D01*
D11*
X0001213Y0021957D02*
X0001213Y0052251D01*
X0001231Y0052228D02*
X0007151Y0052228D01*
X0006545Y0047936D02*
X0017378Y0048754D01*
X0017378Y0047936D01*
X0007976Y0046915D01*
X0007976Y0044871D01*
X0017378Y0043849D01*
X0017378Y0043031D01*
X0006545Y0044053D01*
X0006479Y0044060D01*
X0006414Y0044071D01*
X0006349Y0044085D01*
X0006286Y0044103D01*
X0006223Y0044125D01*
X0006162Y0044150D01*
X0006102Y0044178D01*
X0006044Y0044210D01*
X0005988Y0044246D01*
X0005934Y0044284D01*
X0005883Y0044325D01*
X0005834Y0044369D01*
X0005787Y0044416D01*
X0005743Y0044466D01*
X0005702Y0044518D01*
X0005664Y0044572D01*
X0005629Y0044628D01*
X0005598Y0044686D01*
X0005570Y0044746D01*
X0005545Y0044808D01*
X0005524Y0044870D01*
X0005524Y0047119D02*
X0005545Y0047181D01*
X0005570Y0047243D01*
X0005598Y0047303D01*
X0005629Y0047361D01*
X0005664Y0047417D01*
X0005702Y0047471D01*
X0005743Y0047523D01*
X0005787Y0047573D01*
X0005834Y0047620D01*
X0005883Y0047664D01*
X0005934Y0047705D01*
X0005988Y0047743D01*
X0006044Y0047779D01*
X0006102Y0047811D01*
X0006162Y0047839D01*
X0006223Y0047864D01*
X0006286Y0047886D01*
X0006349Y0047904D01*
X0006414Y0047918D01*
X0006479Y0047929D01*
X0006545Y0047936D01*
X0005524Y0047119D02*
X0005490Y0047004D01*
X0005460Y0046887D01*
X0005434Y0046770D01*
X0005412Y0046652D01*
X0005393Y0046534D01*
X0005378Y0046414D01*
X0005367Y0046295D01*
X0005359Y0046175D01*
X0005355Y0046055D01*
X0005355Y0045935D01*
X0005359Y0045815D01*
X0005367Y0045695D01*
X0005378Y0045576D01*
X0005393Y0045456D01*
X0005412Y0045338D01*
X0005434Y0045220D01*
X0005460Y0045103D01*
X0005490Y0044986D01*
X0005524Y0044871D01*
X0006546Y0042009D02*
X0022487Y0041192D01*
X0022545Y0041187D01*
X0022601Y0041178D01*
X0022658Y0041165D01*
X0022713Y0041149D01*
X0022767Y0041129D01*
X0022819Y0041106D01*
X0022870Y0041079D01*
X0022919Y0041048D01*
X0022966Y0041015D01*
X0023010Y0040979D01*
X0023053Y0040939D01*
X0023092Y0040897D01*
X0023128Y0040853D01*
X0023162Y0040806D01*
X0023192Y0040757D01*
X0023219Y0040706D01*
X0023242Y0040653D01*
X0023262Y0040599D01*
X0023278Y0040544D01*
X0023291Y0040488D01*
X0023300Y0040431D01*
X0023305Y0040374D01*
X0023305Y0040375D02*
X0023305Y0033835D01*
X0023300Y0033778D01*
X0023291Y0033721D01*
X0023278Y0033665D01*
X0023262Y0033609D01*
X0023242Y0033555D01*
X0023219Y0033503D01*
X0023192Y0033452D01*
X0023162Y0033403D01*
X0023128Y0033356D01*
X0023092Y0033312D01*
X0023053Y0033270D01*
X0023011Y0033230D01*
X0022966Y0033194D01*
X0022919Y0033161D01*
X0022870Y0033130D01*
X0022819Y0033104D01*
X0022767Y0033080D01*
X0022713Y0033060D01*
X0022658Y0033044D01*
X0022602Y0033031D01*
X0022545Y0033022D01*
X0022488Y0033017D01*
X0022487Y0033017D02*
X0006546Y0032200D01*
X0006545Y0032200D02*
X0006489Y0032202D01*
X0006434Y0032208D01*
X0006379Y0032217D01*
X0006325Y0032230D01*
X0006271Y0032247D01*
X0006220Y0032268D01*
X0006169Y0032292D01*
X0006120Y0032319D01*
X0006074Y0032350D01*
X0006029Y0032383D01*
X0005987Y0032420D01*
X0005948Y0032459D01*
X0005911Y0032501D01*
X0005878Y0032546D01*
X0005847Y0032592D01*
X0005820Y0032641D01*
X0005796Y0032692D01*
X0005775Y0032743D01*
X0005758Y0032797D01*
X0005745Y0032851D01*
X0005736Y0032906D01*
X0005730Y0032961D01*
X0005728Y0033017D01*
X0005730Y0033073D01*
X0005736Y0033128D01*
X0005745Y0033183D01*
X0005758Y0033237D01*
X0005775Y0033291D01*
X0005796Y0033342D01*
X0005820Y0033393D01*
X0005847Y0033442D01*
X0005878Y0033488D01*
X0005911Y0033533D01*
X0005948Y0033575D01*
X0005987Y0033614D01*
X0006029Y0033651D01*
X0006074Y0033684D01*
X0006120Y0033715D01*
X0006169Y0033742D01*
X0006220Y0033766D01*
X0006271Y0033787D01*
X0006325Y0033804D01*
X0006379Y0033817D01*
X0006434Y0033826D01*
X0006489Y0033832D01*
X0006545Y0033834D01*
X0006545Y0033835D02*
X0020035Y0034652D01*
X0020035Y0039558D01*
X0020035Y0039557D02*
X0006545Y0040374D01*
X0006489Y0040376D01*
X0006434Y0040382D01*
X0006379Y0040391D01*
X0006325Y0040404D01*
X0006271Y0040421D01*
X0006220Y0040442D01*
X0006169Y0040466D01*
X0006120Y0040493D01*
X0006074Y0040524D01*
X0006029Y0040557D01*
X0005987Y0040594D01*
X0005948Y0040633D01*
X0005911Y0040675D01*
X0005878Y0040720D01*
X0005847Y0040766D01*
X0005820Y0040815D01*
X0005796Y0040866D01*
X0005775Y0040917D01*
X0005758Y0040971D01*
X0005745Y0041025D01*
X0005736Y0041080D01*
X0005730Y0041135D01*
X0005728Y0041191D01*
X0005728Y0041192D01*
X0005730Y0041248D01*
X0005736Y0041303D01*
X0005745Y0041358D01*
X0005758Y0041412D01*
X0005775Y0041466D01*
X0005796Y0041517D01*
X0005820Y0041568D01*
X0005847Y0041617D01*
X0005878Y0041663D01*
X0005911Y0041708D01*
X0005948Y0041750D01*
X0005987Y0041789D01*
X0006029Y0041826D01*
X0006074Y0041859D01*
X0006120Y0041890D01*
X0006169Y0041917D01*
X0006220Y0041941D01*
X0006271Y0041962D01*
X0006325Y0041979D01*
X0006379Y0041992D01*
X0006434Y0042001D01*
X0006489Y0042007D01*
X0006545Y0042009D01*
X0001231Y0052228D02*
X0001231Y0021980D01*
X0001231Y0021980D01*
X0007151Y0021980D01*
X0006545Y0026273D02*
X0017378Y0025455D01*
X0017378Y0026273D01*
X0007976Y0027294D01*
X0007976Y0029338D01*
X0017378Y0030360D01*
X0017378Y0031178D01*
X0006545Y0030156D01*
X0006479Y0030149D01*
X0006414Y0030138D01*
X0006349Y0030124D01*
X0006286Y0030106D01*
X0006223Y0030084D01*
X0006162Y0030059D01*
X0006102Y0030031D01*
X0006044Y0029999D01*
X0005988Y0029963D01*
X0005934Y0029925D01*
X0005883Y0029884D01*
X0005834Y0029840D01*
X0005787Y0029793D01*
X0005743Y0029743D01*
X0005702Y0029691D01*
X0005664Y0029637D01*
X0005629Y0029581D01*
X0005598Y0029523D01*
X0005570Y0029463D01*
X0005545Y0029401D01*
X0005524Y0029339D01*
X0005524Y0027090D02*
X0005545Y0027028D01*
X0005570Y0026966D01*
X0005598Y0026906D01*
X0005629Y0026848D01*
X0005664Y0026792D01*
X0005702Y0026738D01*
X0005743Y0026686D01*
X0005787Y0026636D01*
X0005834Y0026589D01*
X0005883Y0026545D01*
X0005934Y0026504D01*
X0005988Y0026466D01*
X0006044Y0026430D01*
X0006102Y0026398D01*
X0006162Y0026370D01*
X0006223Y0026345D01*
X0006286Y0026323D01*
X0006349Y0026305D01*
X0006414Y0026291D01*
X0006479Y0026280D01*
X0006545Y0026273D01*
X0005524Y0027090D02*
X0005490Y0027205D01*
X0005460Y0027322D01*
X0005434Y0027439D01*
X0005412Y0027557D01*
X0005393Y0027675D01*
X0005378Y0027795D01*
X0005367Y0027914D01*
X0005359Y0028034D01*
X0005355Y0028154D01*
X0005355Y0028274D01*
X0005359Y0028394D01*
X0005367Y0028514D01*
X0005378Y0028633D01*
X0005393Y0028753D01*
X0005412Y0028871D01*
X0005434Y0028989D01*
X0005460Y0029106D01*
X0005490Y0029223D01*
X0005524Y0029338D01*
X0018220Y0021958D02*
X0028800Y0021958D01*
X0031657Y0024017D02*
X0031657Y0026475D01*
X0036174Y0026475D01*
X0036174Y0023984D01*
X0042420Y0030901D02*
X0042420Y0033203D01*
X0043187Y0033971D01*
X0044721Y0033971D01*
X0045489Y0033203D01*
X0045489Y0030901D01*
X0047023Y0030901D02*
X0042420Y0030901D01*
X0045489Y0032436D02*
X0047023Y0033971D01*
X0047023Y0035505D02*
X0047023Y0038575D01*
X0047023Y0037040D02*
X0042420Y0037040D01*
X0043954Y0035505D01*
X0036108Y0047335D02*
X0036108Y0050192D01*
X0036108Y0047335D02*
X0031657Y0047335D01*
X0031657Y0050192D01*
X0028402Y0052251D02*
X0018420Y0052250D01*
X0020352Y0053928D02*
X0023421Y0058532D01*
X0024955Y0056997D02*
X0026490Y0058532D01*
X0026490Y0053928D01*
X0024955Y0053928D02*
X0028025Y0053928D01*
X0023421Y0053928D02*
X0020352Y0058532D01*
X0033703Y0060827D02*
X0034470Y0060060D01*
X0036005Y0060060D01*
X0036772Y0060827D01*
X0038307Y0060827D02*
X0039074Y0060060D01*
X0040609Y0060060D01*
X0041376Y0060827D01*
X0041376Y0063897D01*
X0040609Y0064664D01*
X0039074Y0064664D01*
X0038307Y0063897D01*
X0038307Y0063129D01*
X0039074Y0062362D01*
X0041376Y0062362D01*
X0036772Y0063897D02*
X0036005Y0064664D01*
X0034470Y0064664D01*
X0033703Y0063897D01*
X0033703Y0060827D01*
X0043196Y0070768D02*
X0043963Y0070001D01*
X0045498Y0070001D01*
X0046265Y0070768D01*
X0047800Y0070001D02*
X0050869Y0070001D01*
X0049335Y0070001D02*
X0049335Y0074605D01*
X0047800Y0073070D01*
X0046265Y0073837D02*
X0045498Y0074605D01*
X0043963Y0074605D01*
X0043196Y0073837D01*
X0043196Y0070768D01*
X0052404Y0072303D02*
X0055473Y0072303D01*
X0056253Y0072275D02*
X0057020Y0072275D01*
X0057787Y0071508D01*
X0058555Y0072275D01*
X0059322Y0072275D01*
X0060089Y0071508D01*
X0060089Y0069973D01*
X0059322Y0069206D01*
X0060089Y0067671D02*
X0060089Y0064602D01*
X0057020Y0067671D01*
X0056253Y0067671D01*
X0055485Y0066904D01*
X0055485Y0065369D01*
X0056253Y0064602D01*
X0056253Y0063067D02*
X0055485Y0062300D01*
X0055485Y0060765D01*
X0056253Y0059998D01*
X0059322Y0059998D01*
X0060089Y0060765D01*
X0060089Y0062300D01*
X0059322Y0063067D01*
X0056253Y0069206D02*
X0055485Y0069973D01*
X0055485Y0071508D01*
X0056253Y0072275D01*
X0057787Y0071508D02*
X0057787Y0070741D01*
X0054706Y0070001D02*
X0054706Y0074605D01*
X0052404Y0072303D01*
X0068122Y0073306D02*
X0068122Y0070237D01*
X0068889Y0069469D01*
X0070424Y0069469D01*
X0071191Y0070237D01*
X0072726Y0069469D02*
X0075795Y0069469D01*
X0074261Y0069469D02*
X0074261Y0074073D01*
X0072726Y0072539D01*
X0071191Y0073306D02*
X0070424Y0074073D01*
X0068889Y0074073D01*
X0068122Y0073306D01*
X0088383Y0074912D02*
X0088383Y0079516D01*
X0090685Y0079516D01*
X0091452Y0078749D01*
X0091452Y0077214D01*
X0090685Y0076447D01*
X0088383Y0076447D01*
X0089918Y0076447D02*
X0091452Y0074912D01*
X0092987Y0075680D02*
X0093754Y0074912D01*
X0095289Y0074912D01*
X0096056Y0075680D01*
X0096056Y0078749D01*
X0095289Y0079516D01*
X0093754Y0079516D01*
X0092987Y0078749D01*
X0092987Y0077982D01*
X0093754Y0077214D01*
X0096056Y0077214D01*
X0101213Y0062704D02*
X0101213Y0059634D01*
X0098911Y0061936D01*
X0103515Y0061936D01*
X0103515Y0058100D02*
X0101980Y0056565D01*
X0101980Y0057332D02*
X0101980Y0055030D01*
X0103515Y0055030D02*
X0098911Y0055030D01*
X0098911Y0057332D01*
X0099678Y0058100D01*
X0101213Y0058100D01*
X0101980Y0057332D01*
X0101897Y0049711D02*
X0102664Y0048944D01*
X0103432Y0049711D01*
X0104199Y0049711D01*
X0104966Y0048944D01*
X0104966Y0047409D01*
X0104199Y0046642D01*
X0104199Y0045107D02*
X0101130Y0045107D01*
X0100362Y0044340D01*
X0100362Y0042038D01*
X0104966Y0042038D01*
X0104966Y0044340D01*
X0104199Y0045107D01*
X0101130Y0046642D02*
X0100362Y0047409D01*
X0100362Y0048944D01*
X0101130Y0049711D01*
X0101897Y0049711D01*
X0102664Y0048944D02*
X0102664Y0048177D01*
X0112552Y0031675D02*
X0112552Y0028606D01*
X0114854Y0028606D01*
X0114087Y0030140D01*
X0114087Y0030908D01*
X0114854Y0031675D01*
X0116389Y0031675D01*
X0117156Y0030908D01*
X0117156Y0029373D01*
X0116389Y0028606D01*
X0116389Y0027071D02*
X0117156Y0026304D01*
X0117156Y0024769D01*
X0116389Y0024002D01*
X0113320Y0024002D01*
X0112552Y0024769D01*
X0112552Y0026304D01*
X0113320Y0027071D01*
X0122641Y0022531D02*
X0123408Y0020997D01*
X0124943Y0019462D01*
X0124943Y0021764D01*
X0125710Y0022531D01*
X0126478Y0022531D01*
X0127245Y0021764D01*
X0127245Y0020229D01*
X0126478Y0019462D01*
X0124943Y0019462D01*
X0124943Y0017927D02*
X0125710Y0017160D01*
X0125710Y0014858D01*
X0125710Y0016393D02*
X0127245Y0017927D01*
X0127245Y0014858D02*
X0122641Y0014858D01*
X0122641Y0017160D01*
X0123408Y0017927D01*
X0124943Y0017927D01*
X0124975Y0043790D02*
X0128044Y0043790D01*
X0126510Y0043790D02*
X0126510Y0048394D01*
X0124975Y0046860D01*
X0123441Y0047627D02*
X0122673Y0048394D01*
X0121139Y0048394D01*
X0120371Y0047627D01*
X0120371Y0044558D01*
X0121139Y0043790D01*
X0122673Y0043790D01*
X0123441Y0044558D01*
X0129579Y0044558D02*
X0130346Y0043790D01*
X0131881Y0043790D01*
X0132648Y0044558D01*
X0132648Y0047627D01*
X0129579Y0044558D01*
X0129579Y0047627D01*
X0130346Y0048394D01*
X0131881Y0048394D01*
X0132648Y0047627D01*
X0115120Y0072589D02*
X0115120Y0074891D01*
X0114352Y0075658D01*
X0111283Y0075658D01*
X0110516Y0074891D01*
X0110516Y0072589D01*
X0115120Y0072589D01*
X0115120Y0077193D02*
X0115120Y0080262D01*
X0115120Y0078727D02*
X0110516Y0078727D01*
X0112050Y0077193D01*
X0120377Y0079545D02*
X0120377Y0081847D01*
X0121145Y0082615D01*
X0122679Y0082615D01*
X0123446Y0081847D01*
X0123446Y0079545D01*
X0123446Y0081080D02*
X0124981Y0082615D01*
X0124981Y0084149D02*
X0124981Y0087219D01*
X0124981Y0085684D02*
X0120377Y0085684D01*
X0121912Y0084149D01*
X0121912Y0088753D02*
X0122679Y0089521D01*
X0122679Y0091823D01*
X0121145Y0091823D02*
X0120377Y0091055D01*
X0120377Y0089521D01*
X0121145Y0088753D01*
X0121912Y0088753D01*
X0124214Y0088753D02*
X0124981Y0089521D01*
X0124981Y0091055D01*
X0124214Y0091823D01*
X0121145Y0091823D01*
X0120377Y0079545D02*
X0124981Y0079545D01*
X0137306Y0108072D02*
X0140375Y0108072D01*
X0141143Y0108839D01*
X0141143Y0110374D01*
X0140375Y0111141D01*
X0141143Y0112676D02*
X0141143Y0115745D01*
X0141143Y0117280D02*
X0141143Y0120349D01*
X0141143Y0118814D02*
X0136539Y0118814D01*
X0138073Y0117280D01*
X0136539Y0114210D02*
X0141143Y0114210D01*
X0138073Y0112676D02*
X0136539Y0114210D01*
X0137306Y0111141D02*
X0136539Y0110374D01*
X0136539Y0108839D01*
X0137306Y0108072D01*
X0143897Y0109641D02*
X0144664Y0108874D01*
X0146199Y0108874D01*
X0146966Y0109641D01*
X0148501Y0108874D02*
X0151570Y0111943D01*
X0151570Y0112711D01*
X0150803Y0113478D01*
X0149268Y0113478D01*
X0148501Y0112711D01*
X0146966Y0112711D02*
X0146199Y0113478D01*
X0144664Y0113478D01*
X0143897Y0112711D01*
X0143897Y0109641D01*
X0148501Y0108874D02*
X0151570Y0108874D01*
X0153105Y0108874D02*
X0156174Y0108874D01*
X0154640Y0108874D02*
X0154640Y0113478D01*
X0153105Y0111943D01*
X0153566Y0114769D02*
X0150497Y0114769D01*
X0152031Y0114769D02*
X0152031Y0119373D01*
X0150497Y0117838D01*
X0148962Y0118605D02*
X0148962Y0117071D01*
X0148195Y0116303D01*
X0145893Y0116303D01*
X0145893Y0114769D02*
X0145893Y0119373D01*
X0148195Y0119373D01*
X0148962Y0118605D01*
X0147428Y0116303D02*
X0148962Y0114769D01*
X0155101Y0115536D02*
X0158170Y0118605D01*
X0158170Y0115536D01*
X0157403Y0114769D01*
X0155868Y0114769D01*
X0155101Y0115536D01*
X0155101Y0118605D01*
X0155868Y0119373D01*
X0157403Y0119373D01*
X0158170Y0118605D01*
X0158341Y0122093D02*
X0156806Y0122093D01*
X0156039Y0122861D01*
X0156039Y0125930D01*
X0156806Y0126697D01*
X0158341Y0126697D01*
X0159108Y0125930D01*
X0160643Y0125163D02*
X0162177Y0126697D01*
X0162177Y0122093D01*
X0160643Y0122093D02*
X0163712Y0122093D01*
X0165246Y0122861D02*
X0166014Y0122093D01*
X0167548Y0122093D01*
X0168316Y0122861D01*
X0168316Y0123628D01*
X0167548Y0124395D01*
X0165246Y0124395D01*
X0165246Y0122861D01*
X0165246Y0124395D02*
X0166781Y0125930D01*
X0168316Y0126697D01*
X0159108Y0122861D02*
X0158341Y0122093D01*
X0158326Y0140217D02*
X0157559Y0140985D01*
X0158326Y0140217D02*
X0159861Y0140217D01*
X0160628Y0140985D01*
X0160628Y0141752D01*
X0159861Y0142519D01*
X0159093Y0142519D01*
X0159861Y0142519D02*
X0160628Y0143287D01*
X0160628Y0144054D01*
X0159861Y0144821D01*
X0158326Y0144821D01*
X0157559Y0144054D01*
X0156024Y0144054D02*
X0156024Y0142519D01*
X0155257Y0141752D01*
X0152955Y0141752D01*
X0154489Y0141752D02*
X0156024Y0140217D01*
X0156024Y0144054D02*
X0155257Y0144821D01*
X0152955Y0144821D01*
X0152955Y0140217D01*
X0138038Y0154829D02*
X0138805Y0155596D01*
X0138805Y0157131D01*
X0138038Y0157898D01*
X0136503Y0159433D02*
X0136503Y0162502D01*
X0137452Y0163655D02*
X0134383Y0163655D01*
X0133615Y0164422D01*
X0133615Y0165957D01*
X0134383Y0166724D01*
X0134383Y0168259D02*
X0133615Y0169026D01*
X0133615Y0170561D01*
X0134383Y0171328D01*
X0135150Y0171328D01*
X0138219Y0168259D01*
X0138219Y0171328D01*
X0135917Y0172862D02*
X0135917Y0175932D01*
X0133615Y0175164D02*
X0135917Y0172862D01*
X0138219Y0175164D02*
X0133615Y0175164D01*
X0137452Y0166724D02*
X0138219Y0165957D01*
X0138219Y0164422D01*
X0137452Y0163655D01*
X0138805Y0161735D02*
X0134201Y0161735D01*
X0136503Y0159433D01*
X0134968Y0157898D02*
X0134201Y0157131D01*
X0134201Y0155596D01*
X0134968Y0154829D01*
X0138038Y0154829D01*
X0121836Y0149458D02*
X0120302Y0147924D01*
X0120302Y0148691D02*
X0120302Y0146389D01*
X0121836Y0146389D02*
X0117232Y0146389D01*
X0117232Y0148691D01*
X0118000Y0149458D01*
X0119534Y0149458D01*
X0120302Y0148691D01*
X0121836Y0144855D02*
X0117232Y0144855D01*
X0117232Y0141785D02*
X0121836Y0141785D01*
X0120302Y0143320D01*
X0121836Y0144855D01*
X0119534Y0140251D02*
X0120302Y0139483D01*
X0120302Y0137181D01*
X0121836Y0137181D02*
X0117232Y0137181D01*
X0117232Y0139483D01*
X0118000Y0140251D01*
X0119534Y0140251D01*
X0122604Y0135647D02*
X0122604Y0132577D01*
X0121836Y0131043D02*
X0117232Y0131043D01*
X0118767Y0129508D01*
X0117232Y0127973D01*
X0121836Y0127973D01*
X0121069Y0126439D02*
X0120302Y0126439D01*
X0119534Y0125672D01*
X0119534Y0124137D01*
X0118767Y0123370D01*
X0118000Y0123370D01*
X0117232Y0124137D01*
X0117232Y0125672D01*
X0118000Y0126439D01*
X0121069Y0126439D02*
X0121836Y0125672D01*
X0121836Y0124137D01*
X0121069Y0123370D01*
X0121069Y0121835D02*
X0119534Y0121835D01*
X0119534Y0120300D01*
X0118000Y0118766D02*
X0121069Y0118766D01*
X0121836Y0119533D01*
X0121836Y0121068D01*
X0121069Y0121835D01*
X0118000Y0121835D02*
X0117232Y0121068D01*
X0117232Y0119533D01*
X0118000Y0118766D01*
X0155781Y0056975D02*
X0157316Y0056975D01*
X0156548Y0056975D02*
X0156548Y0052371D01*
X0155781Y0052371D02*
X0157316Y0052371D01*
X0158850Y0053138D02*
X0158850Y0056208D01*
X0159618Y0056975D01*
X0161152Y0056975D01*
X0161920Y0056208D01*
X0163454Y0055440D02*
X0164989Y0056975D01*
X0164989Y0052371D01*
X0163454Y0052371D02*
X0166524Y0052371D01*
X0161920Y0053138D02*
X0161152Y0052371D01*
X0159618Y0052371D01*
X0158850Y0053138D01*
X0182037Y0052287D02*
X0182037Y0047683D01*
X0182037Y0049218D02*
X0184339Y0049218D01*
X0185106Y0049985D01*
X0185106Y0051520D01*
X0184339Y0052287D01*
X0182037Y0052287D01*
X0183571Y0049218D02*
X0185106Y0047683D01*
X0186641Y0047683D02*
X0189710Y0047683D01*
X0188175Y0047683D02*
X0188175Y0052287D01*
X0186641Y0050752D01*
X0191245Y0049985D02*
X0194314Y0049985D01*
X0193547Y0047683D02*
X0193547Y0052287D01*
X0191245Y0049985D01*
X0190998Y0091846D02*
X0190231Y0092614D01*
X0193300Y0095683D01*
X0193300Y0092614D01*
X0192533Y0091846D01*
X0190998Y0091846D01*
X0190231Y0092614D02*
X0190231Y0095683D01*
X0190998Y0096450D01*
X0192533Y0096450D01*
X0193300Y0095683D01*
X0188696Y0095683D02*
X0187929Y0096450D01*
X0186394Y0096450D01*
X0185627Y0095683D01*
X0184092Y0095683D02*
X0183325Y0096450D01*
X0181790Y0096450D01*
X0181023Y0095683D01*
X0181023Y0092614D01*
X0181790Y0091846D01*
X0183325Y0091846D01*
X0184092Y0092614D01*
X0185627Y0091846D02*
X0188696Y0094916D01*
X0188696Y0095683D01*
X0188696Y0091846D02*
X0185627Y0091846D01*
X0188076Y0109975D02*
X0191145Y0109975D01*
X0191912Y0110742D01*
X0191912Y0112276D01*
X0191145Y0113044D01*
X0191912Y0114578D02*
X0191912Y0117648D01*
X0191912Y0116113D02*
X0187308Y0116113D01*
X0188843Y0114578D01*
X0188076Y0113044D02*
X0187308Y0112276D01*
X0187308Y0110742D01*
X0188076Y0109975D01*
X0188076Y0119182D02*
X0187308Y0119950D01*
X0187308Y0121484D01*
X0188076Y0122252D01*
X0188843Y0122252D01*
X0189610Y0121484D01*
X0189610Y0119950D01*
X0188843Y0119182D01*
X0188076Y0119182D01*
X0189610Y0119950D02*
X0190378Y0119182D01*
X0191145Y0119182D01*
X0191912Y0119950D01*
X0191912Y0121484D01*
X0191145Y0122252D01*
X0190378Y0122252D01*
X0189610Y0121484D01*
X0188770Y0155109D02*
X0184167Y0155109D01*
X0184167Y0157411D01*
X0184934Y0158178D01*
X0186469Y0158178D01*
X0187236Y0157411D01*
X0187236Y0155109D01*
X0187236Y0156644D02*
X0188770Y0158178D01*
X0188770Y0159713D02*
X0188770Y0162782D01*
X0188770Y0161248D02*
X0184167Y0161248D01*
X0185701Y0159713D01*
X0186469Y0164317D02*
X0186469Y0166619D01*
X0187236Y0167386D01*
X0188003Y0167386D01*
X0188770Y0166619D01*
X0188770Y0165084D01*
X0188003Y0164317D01*
X0186469Y0164317D01*
X0184934Y0165852D01*
X0184167Y0167386D01*
X0184811Y0174467D02*
X0187880Y0174467D01*
X0188647Y0175234D01*
X0188647Y0176769D01*
X0187880Y0177536D01*
X0188647Y0179071D02*
X0185578Y0182140D01*
X0184811Y0182140D01*
X0184044Y0181373D01*
X0184044Y0179838D01*
X0184811Y0179071D01*
X0184811Y0177536D02*
X0184044Y0176769D01*
X0184044Y0175234D01*
X0184811Y0174467D01*
X0188647Y0179071D02*
X0188647Y0182140D01*
X0187880Y0183674D02*
X0188647Y0184442D01*
X0188647Y0185976D01*
X0187880Y0186744D01*
X0186345Y0186744D01*
X0185578Y0185976D01*
X0185578Y0185209D01*
X0186345Y0183674D01*
X0184044Y0183674D01*
X0184044Y0186744D01*
X0155721Y0194799D02*
X0154954Y0194031D01*
X0153419Y0194031D01*
X0152652Y0194799D01*
X0151118Y0194799D02*
X0150350Y0194031D01*
X0148816Y0194031D01*
X0148048Y0194799D01*
X0148048Y0197868D01*
X0148816Y0198635D01*
X0150350Y0198635D01*
X0151118Y0197868D01*
X0152652Y0197868D02*
X0153419Y0198635D01*
X0154954Y0198635D01*
X0155721Y0197868D01*
X0155721Y0197101D01*
X0154954Y0196333D01*
X0155721Y0195566D01*
X0155721Y0194799D01*
X0154954Y0196333D02*
X0154187Y0196333D01*
X0137675Y0193522D02*
X0134606Y0193522D01*
X0136140Y0193522D02*
X0136140Y0188918D01*
X0133071Y0189686D02*
X0132304Y0188918D01*
X0130769Y0188918D01*
X0130002Y0189686D01*
X0130769Y0191220D02*
X0132304Y0191220D01*
X0133071Y0190453D01*
X0133071Y0189686D01*
X0130769Y0191220D02*
X0130002Y0191987D01*
X0130002Y0192755D01*
X0130769Y0193522D01*
X0132304Y0193522D01*
X0133071Y0192755D01*
X0128467Y0192755D02*
X0128467Y0191220D01*
X0127700Y0190453D01*
X0125398Y0190453D01*
X0126933Y0190453D02*
X0128467Y0188918D01*
X0125398Y0188918D02*
X0125398Y0193522D01*
X0127700Y0193522D01*
X0128467Y0192755D01*
X0123863Y0188151D02*
X0120794Y0188151D01*
X0119259Y0188918D02*
X0119259Y0193522D01*
X0117725Y0191987D01*
X0116190Y0193522D01*
X0116190Y0188918D01*
X0114656Y0189686D02*
X0113888Y0188918D01*
X0112354Y0188918D01*
X0111586Y0189686D01*
X0110052Y0189686D02*
X0109284Y0188918D01*
X0107750Y0188918D01*
X0106982Y0189686D01*
X0106982Y0192755D01*
X0107750Y0193522D01*
X0109284Y0193522D01*
X0110052Y0192755D01*
X0111586Y0192755D02*
X0111586Y0191987D01*
X0112354Y0191220D01*
X0113888Y0191220D01*
X0114656Y0190453D01*
X0114656Y0189686D01*
X0114656Y0192755D02*
X0113888Y0193522D01*
X0112354Y0193522D01*
X0111586Y0192755D01*
X0110052Y0191220D02*
X0108517Y0191220D01*
X0110052Y0191220D02*
X0110052Y0189686D01*
X0021228Y0096181D02*
X0018159Y0096181D01*
X0016624Y0098483D02*
X0013555Y0098483D01*
X0015090Y0098483D02*
X0015090Y0093879D01*
X0012020Y0093879D02*
X0012020Y0096948D01*
X0010486Y0098483D01*
X0008951Y0096948D01*
X0008951Y0093879D01*
X0007417Y0094646D02*
X0006649Y0093879D01*
X0004347Y0093879D01*
X0004347Y0098483D01*
X0006649Y0098483D01*
X0007417Y0097715D01*
X0007417Y0096948D01*
X0006649Y0096181D01*
X0004347Y0096181D01*
X0006649Y0096181D02*
X0007417Y0095413D01*
X0007417Y0094646D01*
X0008951Y0096181D02*
X0012020Y0096181D01*
X0012169Y0081977D02*
X0013704Y0080442D01*
X0013704Y0077373D01*
X0013704Y0079675D02*
X0010635Y0079675D01*
X0010635Y0080442D02*
X0012169Y0081977D01*
X0010635Y0080442D02*
X0010635Y0077373D01*
X0009100Y0078140D02*
X0009100Y0078908D01*
X0008333Y0079675D01*
X0006031Y0079675D01*
X0006031Y0077373D02*
X0006031Y0081977D01*
X0008333Y0081977D01*
X0009100Y0081210D01*
X0009100Y0080442D01*
X0008333Y0079675D01*
X0009100Y0078140D02*
X0008333Y0077373D01*
X0006031Y0077373D01*
X0015239Y0081977D02*
X0018308Y0081977D01*
X0016773Y0081977D02*
X0016773Y0077373D01*
X0019842Y0079675D02*
X0022912Y0079675D01*
X0021377Y0081210D02*
X0021377Y0078140D01*
D12*
X0037529Y0088376D02*
X0037779Y0088126D01*
X0038279Y0088126D01*
X0038530Y0088376D01*
X0039002Y0088376D02*
X0039252Y0088126D01*
X0039753Y0088126D01*
X0040003Y0088376D01*
X0040003Y0088626D01*
X0039753Y0088877D01*
X0039002Y0088877D01*
X0039002Y0088376D01*
X0039002Y0088877D02*
X0039502Y0089377D01*
X0040003Y0089627D01*
X0038530Y0089377D02*
X0038279Y0089627D01*
X0037779Y0089627D01*
X0037529Y0089377D01*
X0037529Y0088376D01*
X0057388Y0036896D02*
X0057638Y0036896D01*
X0057888Y0036646D01*
X0058139Y0036896D01*
X0058389Y0036896D01*
X0058639Y0036646D01*
X0058639Y0036145D01*
X0058389Y0035895D01*
X0058389Y0035423D02*
X0057138Y0035423D01*
X0057388Y0035895D02*
X0057138Y0036145D01*
X0057138Y0036646D01*
X0057388Y0036896D01*
X0057888Y0036646D02*
X0057888Y0036395D01*
X0058389Y0035423D02*
X0058639Y0035172D01*
X0058639Y0034672D01*
X0058389Y0034422D01*
X0057138Y0034422D01*
X0065133Y0026906D02*
X0065133Y0025905D01*
X0065884Y0025905D01*
X0065634Y0026406D01*
X0065634Y0026656D01*
X0065884Y0026906D01*
X0066384Y0026906D01*
X0066635Y0026656D01*
X0066635Y0026155D01*
X0066384Y0025905D01*
X0066635Y0025433D02*
X0066635Y0024432D01*
X0066635Y0023960D02*
X0066134Y0023459D01*
X0066134Y0023709D02*
X0066134Y0022959D01*
X0066635Y0022959D02*
X0065133Y0022959D01*
X0065133Y0023709D01*
X0065384Y0023960D01*
X0065884Y0023960D01*
X0066134Y0023709D01*
X0065634Y0024432D02*
X0065133Y0024932D01*
X0066635Y0024932D01*
X0056952Y0023508D02*
X0056952Y0022508D01*
X0055951Y0023508D01*
X0055701Y0023508D01*
X0055450Y0023258D01*
X0055450Y0022758D01*
X0055701Y0022508D01*
X0055701Y0022035D02*
X0055450Y0021785D01*
X0055450Y0021034D01*
X0056952Y0021034D01*
X0056952Y0021785D01*
X0056701Y0022035D01*
X0055701Y0022035D01*
X0055450Y0020562D02*
X0055450Y0019561D01*
X0056952Y0019561D01*
X0056952Y0020562D01*
X0056201Y0020061D02*
X0056201Y0019561D01*
X0056952Y0019089D02*
X0056952Y0018088D01*
X0055450Y0018088D01*
X0105507Y0065863D02*
X0105758Y0065613D01*
X0106758Y0065613D01*
X0107009Y0065863D01*
X0107009Y0066364D01*
X0106758Y0066614D01*
X0107009Y0067086D02*
X0106008Y0068087D01*
X0105758Y0068087D01*
X0105507Y0067837D01*
X0105507Y0067336D01*
X0105758Y0067086D01*
X0105758Y0066614D02*
X0105507Y0066364D01*
X0105507Y0065863D01*
X0107009Y0067086D02*
X0107009Y0068087D01*
X0138206Y0034179D02*
X0138956Y0034179D01*
X0139206Y0033929D01*
X0139206Y0033428D01*
X0138956Y0033178D01*
X0138206Y0033178D01*
X0138706Y0033178D02*
X0139206Y0032678D01*
X0139679Y0032928D02*
X0139929Y0032678D01*
X0140429Y0032678D01*
X0140680Y0032928D01*
X0140680Y0033428D01*
X0140429Y0033679D01*
X0140179Y0033679D01*
X0139679Y0033428D01*
X0139679Y0034179D01*
X0140680Y0034179D01*
X0138206Y0034179D02*
X0138206Y0032678D01*
X0134992Y0016697D02*
X0134992Y0015196D01*
X0134492Y0015196D02*
X0135493Y0015196D01*
X0134492Y0016197D02*
X0134992Y0016697D01*
X0134020Y0016447D02*
X0133769Y0016697D01*
X0133019Y0016697D01*
X0133019Y0015196D01*
X0133769Y0015196D01*
X0134020Y0015446D01*
X0134020Y0016447D01*
X0132546Y0016697D02*
X0131546Y0016697D01*
X0131546Y0015196D01*
X0132546Y0015196D01*
X0132046Y0015946D02*
X0131546Y0015946D01*
X0131073Y0015196D02*
X0130072Y0015196D01*
X0130072Y0016697D01*
X0163511Y0036776D02*
X0163761Y0036526D01*
X0164261Y0036526D01*
X0164511Y0036776D01*
X0164984Y0036526D02*
X0165985Y0036526D01*
X0165484Y0036526D02*
X0165484Y0038027D01*
X0164984Y0037527D01*
X0164511Y0037777D02*
X0164261Y0038027D01*
X0163761Y0038027D01*
X0163511Y0037777D01*
X0163511Y0036776D01*
X0166457Y0036776D02*
X0166707Y0036526D01*
X0167208Y0036526D01*
X0167458Y0036776D01*
X0167458Y0037777D01*
X0167208Y0038027D01*
X0166707Y0038027D01*
X0166457Y0037777D01*
X0166457Y0037527D01*
X0166707Y0037277D01*
X0167458Y0037277D01*
X0182527Y0112580D02*
X0183528Y0112580D01*
X0183778Y0112830D01*
X0183778Y0113331D01*
X0183528Y0113581D01*
X0183278Y0114053D02*
X0183278Y0114804D01*
X0183028Y0115054D01*
X0182527Y0115054D01*
X0182277Y0114804D01*
X0182277Y0114053D01*
X0183778Y0114053D01*
X0183278Y0114554D02*
X0183778Y0115054D01*
X0183778Y0116027D02*
X0182277Y0116027D01*
X0182277Y0116527D02*
X0182277Y0115526D01*
X0182277Y0117000D02*
X0183778Y0117000D01*
X0183778Y0118001D01*
X0182527Y0113581D02*
X0182277Y0113331D01*
X0182277Y0112830D01*
X0182527Y0112580D01*
D13*
X0181028Y0110785D02*
X0181028Y0106061D01*
X0175909Y0098580D02*
X0173547Y0098580D01*
X0168429Y0106061D02*
X0168429Y0110785D01*
X0173547Y0118265D02*
X0175909Y0118265D01*
X0107933Y0041191D02*
X0090933Y0041191D01*
X0087433Y0033191D02*
X0087433Y0025262D01*
X0090933Y0017191D02*
X0107933Y0017191D01*
X0111433Y0025143D02*
X0111433Y0033191D01*
X0092433Y0029191D02*
X0092435Y0029363D01*
X0092441Y0029534D01*
X0092452Y0029706D01*
X0092467Y0029877D01*
X0092486Y0030048D01*
X0092509Y0030218D01*
X0092536Y0030388D01*
X0092568Y0030557D01*
X0092603Y0030725D01*
X0092643Y0030892D01*
X0092687Y0031058D01*
X0092734Y0031223D01*
X0092786Y0031387D01*
X0092842Y0031549D01*
X0092902Y0031710D01*
X0092966Y0031870D01*
X0093034Y0032028D01*
X0093105Y0032184D01*
X0093180Y0032338D01*
X0093260Y0032491D01*
X0093342Y0032641D01*
X0093429Y0032790D01*
X0093519Y0032936D01*
X0093613Y0033080D01*
X0093710Y0033222D01*
X0093811Y0033361D01*
X0093915Y0033498D01*
X0094022Y0033632D01*
X0094133Y0033763D01*
X0094246Y0033892D01*
X0094363Y0034018D01*
X0094483Y0034141D01*
X0094606Y0034261D01*
X0094732Y0034378D01*
X0094861Y0034491D01*
X0094992Y0034602D01*
X0095126Y0034709D01*
X0095263Y0034813D01*
X0095402Y0034914D01*
X0095544Y0035011D01*
X0095688Y0035105D01*
X0095834Y0035195D01*
X0095983Y0035282D01*
X0096133Y0035364D01*
X0096286Y0035444D01*
X0096440Y0035519D01*
X0096596Y0035590D01*
X0096754Y0035658D01*
X0096914Y0035722D01*
X0097075Y0035782D01*
X0097237Y0035838D01*
X0097401Y0035890D01*
X0097566Y0035937D01*
X0097732Y0035981D01*
X0097899Y0036021D01*
X0098067Y0036056D01*
X0098236Y0036088D01*
X0098406Y0036115D01*
X0098576Y0036138D01*
X0098747Y0036157D01*
X0098918Y0036172D01*
X0099090Y0036183D01*
X0099261Y0036189D01*
X0099433Y0036191D01*
X0099605Y0036189D01*
X0099776Y0036183D01*
X0099948Y0036172D01*
X0100119Y0036157D01*
X0100290Y0036138D01*
X0100460Y0036115D01*
X0100630Y0036088D01*
X0100799Y0036056D01*
X0100967Y0036021D01*
X0101134Y0035981D01*
X0101300Y0035937D01*
X0101465Y0035890D01*
X0101629Y0035838D01*
X0101791Y0035782D01*
X0101952Y0035722D01*
X0102112Y0035658D01*
X0102270Y0035590D01*
X0102426Y0035519D01*
X0102580Y0035444D01*
X0102733Y0035364D01*
X0102883Y0035282D01*
X0103032Y0035195D01*
X0103178Y0035105D01*
X0103322Y0035011D01*
X0103464Y0034914D01*
X0103603Y0034813D01*
X0103740Y0034709D01*
X0103874Y0034602D01*
X0104005Y0034491D01*
X0104134Y0034378D01*
X0104260Y0034261D01*
X0104383Y0034141D01*
X0104503Y0034018D01*
X0104620Y0033892D01*
X0104733Y0033763D01*
X0104844Y0033632D01*
X0104951Y0033498D01*
X0105055Y0033361D01*
X0105156Y0033222D01*
X0105253Y0033080D01*
X0105347Y0032936D01*
X0105437Y0032790D01*
X0105524Y0032641D01*
X0105606Y0032491D01*
X0105686Y0032338D01*
X0105761Y0032184D01*
X0105832Y0032028D01*
X0105900Y0031870D01*
X0105964Y0031710D01*
X0106024Y0031549D01*
X0106080Y0031387D01*
X0106132Y0031223D01*
X0106179Y0031058D01*
X0106223Y0030892D01*
X0106263Y0030725D01*
X0106298Y0030557D01*
X0106330Y0030388D01*
X0106357Y0030218D01*
X0106380Y0030048D01*
X0106399Y0029877D01*
X0106414Y0029706D01*
X0106425Y0029534D01*
X0106431Y0029363D01*
X0106433Y0029191D01*
X0106431Y0029019D01*
X0106425Y0028848D01*
X0106414Y0028676D01*
X0106399Y0028505D01*
X0106380Y0028334D01*
X0106357Y0028164D01*
X0106330Y0027994D01*
X0106298Y0027825D01*
X0106263Y0027657D01*
X0106223Y0027490D01*
X0106179Y0027324D01*
X0106132Y0027159D01*
X0106080Y0026995D01*
X0106024Y0026833D01*
X0105964Y0026672D01*
X0105900Y0026512D01*
X0105832Y0026354D01*
X0105761Y0026198D01*
X0105686Y0026044D01*
X0105606Y0025891D01*
X0105524Y0025741D01*
X0105437Y0025592D01*
X0105347Y0025446D01*
X0105253Y0025302D01*
X0105156Y0025160D01*
X0105055Y0025021D01*
X0104951Y0024884D01*
X0104844Y0024750D01*
X0104733Y0024619D01*
X0104620Y0024490D01*
X0104503Y0024364D01*
X0104383Y0024241D01*
X0104260Y0024121D01*
X0104134Y0024004D01*
X0104005Y0023891D01*
X0103874Y0023780D01*
X0103740Y0023673D01*
X0103603Y0023569D01*
X0103464Y0023468D01*
X0103322Y0023371D01*
X0103178Y0023277D01*
X0103032Y0023187D01*
X0102883Y0023100D01*
X0102733Y0023018D01*
X0102580Y0022938D01*
X0102426Y0022863D01*
X0102270Y0022792D01*
X0102112Y0022724D01*
X0101952Y0022660D01*
X0101791Y0022600D01*
X0101629Y0022544D01*
X0101465Y0022492D01*
X0101300Y0022445D01*
X0101134Y0022401D01*
X0100967Y0022361D01*
X0100799Y0022326D01*
X0100630Y0022294D01*
X0100460Y0022267D01*
X0100290Y0022244D01*
X0100119Y0022225D01*
X0099948Y0022210D01*
X0099776Y0022199D01*
X0099605Y0022193D01*
X0099433Y0022191D01*
X0099261Y0022193D01*
X0099090Y0022199D01*
X0098918Y0022210D01*
X0098747Y0022225D01*
X0098576Y0022244D01*
X0098406Y0022267D01*
X0098236Y0022294D01*
X0098067Y0022326D01*
X0097899Y0022361D01*
X0097732Y0022401D01*
X0097566Y0022445D01*
X0097401Y0022492D01*
X0097237Y0022544D01*
X0097075Y0022600D01*
X0096914Y0022660D01*
X0096754Y0022724D01*
X0096596Y0022792D01*
X0096440Y0022863D01*
X0096286Y0022938D01*
X0096133Y0023018D01*
X0095983Y0023100D01*
X0095834Y0023187D01*
X0095688Y0023277D01*
X0095544Y0023371D01*
X0095402Y0023468D01*
X0095263Y0023569D01*
X0095126Y0023673D01*
X0094992Y0023780D01*
X0094861Y0023891D01*
X0094732Y0024004D01*
X0094606Y0024121D01*
X0094483Y0024241D01*
X0094363Y0024364D01*
X0094246Y0024490D01*
X0094133Y0024619D01*
X0094022Y0024750D01*
X0093915Y0024884D01*
X0093811Y0025021D01*
X0093710Y0025160D01*
X0093613Y0025302D01*
X0093519Y0025446D01*
X0093429Y0025592D01*
X0093342Y0025741D01*
X0093260Y0025891D01*
X0093180Y0026044D01*
X0093105Y0026198D01*
X0093034Y0026354D01*
X0092966Y0026512D01*
X0092902Y0026672D01*
X0092842Y0026833D01*
X0092786Y0026995D01*
X0092734Y0027159D01*
X0092687Y0027324D01*
X0092643Y0027490D01*
X0092603Y0027657D01*
X0092568Y0027825D01*
X0092536Y0027994D01*
X0092509Y0028164D01*
X0092486Y0028334D01*
X0092467Y0028505D01*
X0092452Y0028676D01*
X0092441Y0028848D01*
X0092435Y0029019D01*
X0092433Y0029191D01*
X0068880Y0032272D02*
X0065498Y0032272D01*
X0063998Y0036815D02*
X0063998Y0038928D01*
X0065498Y0043472D02*
X0068880Y0043472D01*
X0053511Y0020982D02*
X0052752Y0019822D01*
X0052652Y0019762D02*
X0051731Y0020982D01*
X0050841Y0019762D02*
X0052652Y0019762D01*
X0054463Y0019762D01*
X0132878Y0019112D02*
X0132878Y0020923D01*
X0134098Y0021843D01*
X0132878Y0022734D02*
X0132878Y0020923D01*
X0132939Y0020823D02*
X0134098Y0020063D01*
D14*
X0145412Y0027044D02*
X0145412Y0029296D01*
X0146163Y0030047D01*
X0147664Y0030047D01*
X0148415Y0029296D01*
X0148415Y0027044D01*
X0149916Y0027044D02*
X0145412Y0027044D01*
X0148415Y0028545D02*
X0149916Y0030047D01*
X0149166Y0031648D02*
X0149916Y0032399D01*
X0149916Y0033900D01*
X0149166Y0034651D01*
X0148415Y0034651D01*
X0147664Y0033900D01*
X0147664Y0032399D01*
X0146914Y0031648D01*
X0146163Y0031648D01*
X0145412Y0032399D01*
X0145412Y0033900D01*
X0146163Y0034651D01*
X0145412Y0036252D02*
X0145412Y0039255D01*
X0145412Y0037753D02*
X0149916Y0037753D01*
X0153624Y0033751D02*
X0152873Y0033000D01*
X0152873Y0031499D01*
X0153624Y0030748D01*
X0156626Y0030748D01*
X0157377Y0031499D01*
X0157377Y0033000D01*
X0156626Y0033751D01*
X0153624Y0033751D01*
X0152873Y0029180D02*
X0152873Y0027679D01*
X0152873Y0028430D02*
X0157377Y0028430D01*
X0157377Y0029180D02*
X0157377Y0027679D01*
X0173237Y0027615D02*
X0176240Y0027615D01*
X0177741Y0029116D01*
X0176240Y0030618D01*
X0173237Y0030618D01*
X0173988Y0033720D02*
X0176990Y0033720D01*
X0175489Y0032219D02*
X0175489Y0035222D01*
X0182100Y0036665D02*
X0186604Y0036665D01*
X0185103Y0036665D02*
X0182100Y0039668D01*
X0184352Y0037416D02*
X0186604Y0039668D01*
X0190589Y0038898D02*
X0190589Y0036646D01*
X0195093Y0036646D01*
X0195093Y0038898D01*
X0194343Y0039648D01*
X0191340Y0039648D01*
X0190589Y0038898D01*
X0190589Y0035044D02*
X0195093Y0035044D01*
X0190589Y0032042D01*
X0195093Y0032042D01*
X0194343Y0030440D02*
X0192841Y0030440D01*
X0192841Y0028939D01*
X0191340Y0027438D02*
X0194343Y0027438D01*
X0195093Y0028189D01*
X0195093Y0029690D01*
X0194343Y0030440D01*
X0191340Y0030440D02*
X0190589Y0029690D01*
X0190589Y0028189D01*
X0191340Y0027438D01*
X0186604Y0028208D02*
X0186604Y0029709D01*
X0185853Y0030460D01*
X0186604Y0032062D02*
X0186604Y0035064D01*
X0186604Y0032062D02*
X0182100Y0032062D01*
X0182851Y0030460D02*
X0182100Y0029709D01*
X0182100Y0028208D01*
X0182851Y0027458D01*
X0185853Y0027458D01*
X0186604Y0028208D01*
X0175811Y0045557D02*
X0136441Y0045557D01*
X0136441Y0084927D01*
X0175811Y0084927D01*
X0175811Y0045557D01*
X0172323Y0082683D02*
X0172325Y0082752D01*
X0172331Y0082820D01*
X0172341Y0082888D01*
X0172354Y0082956D01*
X0172372Y0083022D01*
X0172393Y0083088D01*
X0172418Y0083152D01*
X0172447Y0083215D01*
X0172479Y0083276D01*
X0172514Y0083334D01*
X0172553Y0083391D01*
X0172595Y0083446D01*
X0172640Y0083498D01*
X0172688Y0083547D01*
X0172739Y0083594D01*
X0172792Y0083637D01*
X0172848Y0083678D01*
X0172906Y0083715D01*
X0172966Y0083749D01*
X0173027Y0083779D01*
X0173091Y0083806D01*
X0173156Y0083829D01*
X0173222Y0083848D01*
X0173289Y0083864D01*
X0173357Y0083876D01*
X0173425Y0083884D01*
X0173494Y0083888D01*
X0173562Y0083888D01*
X0173631Y0083884D01*
X0173699Y0083876D01*
X0173767Y0083864D01*
X0173834Y0083848D01*
X0173900Y0083829D01*
X0173965Y0083806D01*
X0174029Y0083779D01*
X0174090Y0083749D01*
X0174150Y0083715D01*
X0174208Y0083678D01*
X0174264Y0083637D01*
X0174317Y0083594D01*
X0174368Y0083547D01*
X0174416Y0083498D01*
X0174461Y0083446D01*
X0174503Y0083391D01*
X0174542Y0083334D01*
X0174577Y0083276D01*
X0174609Y0083215D01*
X0174638Y0083152D01*
X0174663Y0083088D01*
X0174684Y0083022D01*
X0174702Y0082956D01*
X0174715Y0082888D01*
X0174725Y0082820D01*
X0174731Y0082752D01*
X0174733Y0082683D01*
X0174731Y0082614D01*
X0174725Y0082546D01*
X0174715Y0082478D01*
X0174702Y0082410D01*
X0174684Y0082344D01*
X0174663Y0082278D01*
X0174638Y0082214D01*
X0174609Y0082151D01*
X0174577Y0082090D01*
X0174542Y0082032D01*
X0174503Y0081975D01*
X0174461Y0081920D01*
X0174416Y0081868D01*
X0174368Y0081819D01*
X0174317Y0081772D01*
X0174264Y0081729D01*
X0174208Y0081688D01*
X0174150Y0081651D01*
X0174090Y0081617D01*
X0174029Y0081587D01*
X0173965Y0081560D01*
X0173900Y0081537D01*
X0173834Y0081518D01*
X0173767Y0081502D01*
X0173699Y0081490D01*
X0173631Y0081482D01*
X0173562Y0081478D01*
X0173494Y0081478D01*
X0173425Y0081482D01*
X0173357Y0081490D01*
X0173289Y0081502D01*
X0173222Y0081518D01*
X0173156Y0081537D01*
X0173091Y0081560D01*
X0173027Y0081587D01*
X0172966Y0081617D01*
X0172906Y0081651D01*
X0172848Y0081688D01*
X0172792Y0081729D01*
X0172739Y0081772D01*
X0172688Y0081819D01*
X0172640Y0081868D01*
X0172595Y0081920D01*
X0172553Y0081975D01*
X0172514Y0082032D01*
X0172479Y0082090D01*
X0172447Y0082151D01*
X0172418Y0082214D01*
X0172393Y0082278D01*
X0172372Y0082344D01*
X0172354Y0082410D01*
X0172341Y0082478D01*
X0172331Y0082546D01*
X0172325Y0082614D01*
X0172323Y0082683D01*
X0124335Y0109506D02*
X0124335Y0114230D01*
X0116854Y0114230D02*
X0116854Y0109506D01*
X0107484Y0105588D02*
X0107484Y0119368D01*
X0107484Y0105588D02*
X0093705Y0105588D01*
X0088944Y0094087D02*
X0088193Y0094087D01*
X0087443Y0093337D01*
X0087443Y0092586D01*
X0087443Y0093337D02*
X0086692Y0094087D01*
X0085941Y0094087D01*
X0085191Y0093337D01*
X0085191Y0091835D01*
X0085941Y0091085D01*
X0085941Y0089483D02*
X0087443Y0089483D01*
X0088193Y0088733D01*
X0088193Y0086481D01*
X0089695Y0086481D02*
X0085191Y0086481D01*
X0085191Y0088733D01*
X0085941Y0089483D01*
X0082647Y0089318D02*
X0081897Y0090069D01*
X0078144Y0090069D01*
X0078144Y0090819D02*
X0078144Y0089318D01*
X0076734Y0091649D02*
X0076734Y0086649D01*
X0076734Y0091649D02*
X0065734Y0091649D01*
X0065734Y0086649D01*
X0065734Y0080649D02*
X0065734Y0075649D01*
X0076734Y0075649D01*
X0076734Y0080649D01*
X0081897Y0087817D02*
X0082647Y0088567D01*
X0082647Y0089318D01*
X0082647Y0092421D02*
X0078144Y0092421D01*
X0078144Y0094673D01*
X0078894Y0095423D01*
X0080396Y0095423D01*
X0081146Y0094673D01*
X0081146Y0092421D01*
X0082647Y0097025D02*
X0079645Y0100027D01*
X0078894Y0100027D01*
X0078144Y0099277D01*
X0078144Y0097775D01*
X0078894Y0097025D01*
X0082647Y0097025D02*
X0082647Y0100027D01*
X0088944Y0094087D02*
X0089695Y0093337D01*
X0089695Y0091835D01*
X0088944Y0091085D01*
X0088944Y0084129D02*
X0085191Y0084129D01*
X0085191Y0084879D02*
X0085191Y0083378D01*
X0088944Y0084129D02*
X0089695Y0083378D01*
X0089695Y0082628D01*
X0088944Y0081877D01*
X0073561Y0069799D02*
X0073561Y0066797D01*
X0070558Y0069799D01*
X0069808Y0069799D01*
X0069057Y0069049D01*
X0069057Y0067548D01*
X0069808Y0066797D01*
X0069808Y0065196D02*
X0069057Y0064445D01*
X0069057Y0062944D01*
X0069808Y0062193D01*
X0072810Y0062193D01*
X0073561Y0062944D01*
X0073561Y0064445D01*
X0072810Y0065196D01*
X0073561Y0060625D02*
X0073561Y0059124D01*
X0073561Y0059874D02*
X0069057Y0059874D01*
X0069057Y0059124D02*
X0069057Y0060625D01*
X0081388Y0029006D02*
X0081388Y0026003D01*
X0081388Y0027504D02*
X0076884Y0027504D01*
X0078385Y0026003D01*
X0077635Y0024402D02*
X0076884Y0023651D01*
X0076884Y0022150D01*
X0077635Y0021399D01*
X0078385Y0021399D01*
X0079136Y0022150D01*
X0079136Y0023651D01*
X0079887Y0024402D01*
X0080637Y0024402D01*
X0081388Y0023651D01*
X0081388Y0022150D01*
X0080637Y0021399D01*
X0026776Y0105588D02*
X0012996Y0105588D01*
X0012996Y0119368D01*
X0065752Y0140234D02*
X0075201Y0140234D01*
X0089374Y0140234D01*
X0089374Y0163856D01*
X0065752Y0163856D01*
X0065752Y0140234D01*
X0107484Y0186297D02*
X0107484Y0200076D01*
X0093705Y0200076D01*
X0121185Y0184506D02*
X0125909Y0184506D01*
X0125909Y0177025D02*
X0121185Y0177025D01*
X0151362Y0176666D02*
X0151362Y0175485D01*
X0151362Y0176666D02*
X0152543Y0176666D01*
X0151362Y0161312D02*
X0151362Y0160131D01*
X0152543Y0160131D01*
X0166389Y0161390D02*
X0166391Y0161421D01*
X0166397Y0161452D01*
X0166406Y0161482D01*
X0166420Y0161510D01*
X0166437Y0161536D01*
X0166456Y0161560D01*
X0166479Y0161582D01*
X0166505Y0161600D01*
X0166532Y0161615D01*
X0166561Y0161627D01*
X0166591Y0161635D01*
X0166622Y0161639D01*
X0166654Y0161639D01*
X0166685Y0161635D01*
X0166715Y0161627D01*
X0166744Y0161615D01*
X0166771Y0161600D01*
X0166797Y0161582D01*
X0166820Y0161560D01*
X0166839Y0161536D01*
X0166856Y0161510D01*
X0166870Y0161482D01*
X0166879Y0161452D01*
X0166885Y0161421D01*
X0166887Y0161390D01*
X0166885Y0161359D01*
X0166879Y0161328D01*
X0166870Y0161298D01*
X0166856Y0161270D01*
X0166839Y0161244D01*
X0166820Y0161220D01*
X0166797Y0161198D01*
X0166771Y0161180D01*
X0166744Y0161165D01*
X0166715Y0161153D01*
X0166685Y0161145D01*
X0166654Y0161141D01*
X0166622Y0161141D01*
X0166591Y0161145D01*
X0166561Y0161153D01*
X0166532Y0161165D01*
X0166505Y0161180D01*
X0166479Y0161198D01*
X0166456Y0161220D01*
X0166437Y0161244D01*
X0166420Y0161270D01*
X0166406Y0161298D01*
X0166397Y0161328D01*
X0166391Y0161359D01*
X0166389Y0161390D01*
X0166717Y0160131D02*
X0167898Y0161312D01*
X0167898Y0175485D02*
X0167898Y0176666D01*
X0166717Y0176666D01*
X0026776Y0200076D02*
X0012996Y0200076D01*
X0012996Y0186297D01*
D15*
X0098409Y0097183D02*
X0095909Y0094683D01*
X0095909Y0089683D01*
X0098409Y0087183D01*
X0103409Y0087183D01*
X0105909Y0089683D01*
X0105909Y0094683D01*
X0103409Y0097183D01*
X0098409Y0097183D01*
X0105752Y0094683D02*
X0105752Y0089683D01*
X0108252Y0087183D01*
X0113252Y0087183D01*
X0115752Y0089683D01*
X0115752Y0094683D01*
X0113252Y0097183D01*
X0108252Y0097183D01*
X0105752Y0094683D01*
X0086299Y0062234D02*
X0086299Y0056624D01*
X0074142Y0056624D02*
X0074142Y0062234D01*
X0142401Y0023275D02*
X0142401Y0018275D01*
X0144901Y0015775D01*
X0149901Y0015775D01*
X0152401Y0018275D01*
X0152401Y0023275D01*
X0149901Y0025775D01*
X0144901Y0025775D01*
X0142401Y0023275D01*
X0152342Y0023787D02*
X0152342Y0018787D01*
X0154842Y0016287D01*
X0159842Y0016287D01*
X0162342Y0018787D01*
X0162342Y0023787D01*
X0159842Y0026287D01*
X0154842Y0026287D01*
X0152342Y0023787D01*
X0162593Y0023767D02*
X0162593Y0018767D01*
X0165093Y0016267D01*
X0170093Y0016267D01*
X0172593Y0018767D01*
X0172593Y0023767D01*
X0170093Y0026267D01*
X0165093Y0026267D01*
X0162593Y0023767D01*
X0172903Y0024053D02*
X0172903Y0019053D01*
X0175403Y0016553D01*
X0180403Y0016553D01*
X0182903Y0019053D01*
X0182903Y0024053D01*
X0180403Y0026553D01*
X0175403Y0026553D01*
X0172903Y0024053D01*
X0183405Y0023876D02*
X0183405Y0018876D01*
X0185905Y0016376D01*
X0190905Y0016376D01*
X0193405Y0018876D01*
X0193405Y0023876D01*
X0190905Y0026376D01*
X0185905Y0026376D01*
X0183405Y0023876D01*
D16*
X0108085Y0103226D02*
X0108087Y0103310D01*
X0108093Y0103393D01*
X0108103Y0103477D01*
X0108117Y0103559D01*
X0108135Y0103641D01*
X0108156Y0103722D01*
X0108182Y0103802D01*
X0108211Y0103880D01*
X0108244Y0103958D01*
X0108281Y0104033D01*
X0108321Y0104106D01*
X0108365Y0104178D01*
X0108412Y0104247D01*
X0108462Y0104315D01*
X0108515Y0104379D01*
X0108572Y0104441D01*
X0108631Y0104500D01*
X0108693Y0104557D01*
X0108757Y0104610D01*
X0108825Y0104660D01*
X0108894Y0104707D01*
X0108965Y0104751D01*
X0109039Y0104791D01*
X0109114Y0104828D01*
X0109192Y0104861D01*
X0109270Y0104890D01*
X0109350Y0104916D01*
X0109431Y0104937D01*
X0109513Y0104955D01*
X0109595Y0104969D01*
X0109679Y0104979D01*
X0109762Y0104985D01*
X0109846Y0104987D01*
X0109930Y0104985D01*
X0110013Y0104979D01*
X0110097Y0104969D01*
X0110179Y0104955D01*
X0110261Y0104937D01*
X0110342Y0104916D01*
X0110422Y0104890D01*
X0110500Y0104861D01*
X0110578Y0104828D01*
X0110653Y0104791D01*
X0110726Y0104751D01*
X0110798Y0104707D01*
X0110867Y0104660D01*
X0110935Y0104610D01*
X0110999Y0104557D01*
X0111061Y0104500D01*
X0111120Y0104441D01*
X0111177Y0104379D01*
X0111230Y0104315D01*
X0111280Y0104247D01*
X0111327Y0104178D01*
X0111371Y0104107D01*
X0111411Y0104033D01*
X0111448Y0103958D01*
X0111481Y0103880D01*
X0111510Y0103802D01*
X0111536Y0103722D01*
X0111557Y0103641D01*
X0111575Y0103559D01*
X0111589Y0103477D01*
X0111599Y0103393D01*
X0111605Y0103310D01*
X0111607Y0103226D01*
X0111605Y0103142D01*
X0111599Y0103059D01*
X0111589Y0102975D01*
X0111575Y0102893D01*
X0111557Y0102811D01*
X0111536Y0102730D01*
X0111510Y0102650D01*
X0111481Y0102572D01*
X0111448Y0102494D01*
X0111411Y0102419D01*
X0111371Y0102346D01*
X0111327Y0102274D01*
X0111280Y0102205D01*
X0111230Y0102137D01*
X0111177Y0102073D01*
X0111120Y0102011D01*
X0111061Y0101952D01*
X0110999Y0101895D01*
X0110935Y0101842D01*
X0110867Y0101792D01*
X0110798Y0101745D01*
X0110727Y0101701D01*
X0110653Y0101661D01*
X0110578Y0101624D01*
X0110500Y0101591D01*
X0110422Y0101562D01*
X0110342Y0101536D01*
X0110261Y0101515D01*
X0110179Y0101497D01*
X0110097Y0101483D01*
X0110013Y0101473D01*
X0109930Y0101467D01*
X0109846Y0101465D01*
X0109762Y0101467D01*
X0109679Y0101473D01*
X0109595Y0101483D01*
X0109513Y0101497D01*
X0109431Y0101515D01*
X0109350Y0101536D01*
X0109270Y0101562D01*
X0109192Y0101591D01*
X0109114Y0101624D01*
X0109039Y0101661D01*
X0108966Y0101701D01*
X0108894Y0101745D01*
X0108825Y0101792D01*
X0108757Y0101842D01*
X0108693Y0101895D01*
X0108631Y0101952D01*
X0108572Y0102011D01*
X0108515Y0102073D01*
X0108462Y0102137D01*
X0108412Y0102205D01*
X0108365Y0102274D01*
X0108321Y0102345D01*
X0108281Y0102419D01*
X0108244Y0102494D01*
X0108211Y0102572D01*
X0108182Y0102650D01*
X0108156Y0102730D01*
X0108135Y0102811D01*
X0108117Y0102893D01*
X0108103Y0102975D01*
X0108093Y0103059D01*
X0108087Y0103142D01*
X0108085Y0103226D01*
D17*
X0106395Y0100185D02*
X0105427Y0100185D01*
X0104944Y0099701D01*
X0103932Y0100185D02*
X0103932Y0097766D01*
X0103448Y0097282D01*
X0102481Y0097282D01*
X0101997Y0097766D01*
X0101997Y0100185D01*
X0104944Y0097282D02*
X0106879Y0099217D01*
X0106879Y0099701D01*
X0106395Y0100185D01*
X0106879Y0097282D02*
X0104944Y0097282D01*
X0083084Y0087574D02*
X0083084Y0085639D01*
X0080182Y0085639D01*
X0081633Y0084627D02*
X0081633Y0082692D01*
X0080182Y0081681D02*
X0080182Y0079746D01*
X0083084Y0079746D01*
X0082601Y0078734D02*
X0083084Y0078251D01*
X0083084Y0077283D01*
X0082601Y0076799D01*
X0080182Y0076799D01*
X0080182Y0078734D02*
X0082601Y0078734D01*
X0081633Y0079746D02*
X0081633Y0080713D01*
D18*
X0077563Y0152045D03*
D19*
X0064234Y0083649D03*
D20*
X0022759Y0045765D02*
X0022761Y0045849D01*
X0022767Y0045932D01*
X0022777Y0046015D01*
X0022791Y0046098D01*
X0022808Y0046180D01*
X0022830Y0046261D01*
X0022855Y0046340D01*
X0022884Y0046419D01*
X0022917Y0046496D01*
X0022953Y0046571D01*
X0022993Y0046645D01*
X0023036Y0046717D01*
X0023083Y0046786D01*
X0023133Y0046853D01*
X0023186Y0046918D01*
X0023242Y0046980D01*
X0023300Y0047040D01*
X0023362Y0047097D01*
X0023426Y0047150D01*
X0023493Y0047201D01*
X0023562Y0047248D01*
X0023633Y0047293D01*
X0023706Y0047333D01*
X0023781Y0047370D01*
X0023858Y0047404D01*
X0023936Y0047434D01*
X0024015Y0047460D01*
X0024096Y0047483D01*
X0024178Y0047501D01*
X0024260Y0047516D01*
X0024343Y0047527D01*
X0024426Y0047534D01*
X0024510Y0047537D01*
X0024594Y0047536D01*
X0024677Y0047531D01*
X0024761Y0047522D01*
X0024843Y0047509D01*
X0024925Y0047493D01*
X0025006Y0047472D01*
X0025087Y0047448D01*
X0025165Y0047420D01*
X0025243Y0047388D01*
X0025319Y0047352D01*
X0025393Y0047313D01*
X0025465Y0047271D01*
X0025535Y0047225D01*
X0025603Y0047176D01*
X0025668Y0047124D01*
X0025731Y0047069D01*
X0025791Y0047011D01*
X0025849Y0046950D01*
X0025903Y0046886D01*
X0025955Y0046820D01*
X0026003Y0046752D01*
X0026048Y0046681D01*
X0026089Y0046608D01*
X0026128Y0046534D01*
X0026162Y0046458D01*
X0026193Y0046380D01*
X0026220Y0046301D01*
X0026244Y0046220D01*
X0026263Y0046139D01*
X0026279Y0046057D01*
X0026291Y0045974D01*
X0026299Y0045890D01*
X0026303Y0045807D01*
X0026303Y0045723D01*
X0026299Y0045640D01*
X0026291Y0045556D01*
X0026279Y0045473D01*
X0026263Y0045391D01*
X0026244Y0045310D01*
X0026220Y0045229D01*
X0026193Y0045150D01*
X0026162Y0045072D01*
X0026128Y0044996D01*
X0026089Y0044922D01*
X0026048Y0044849D01*
X0026003Y0044778D01*
X0025955Y0044710D01*
X0025903Y0044644D01*
X0025849Y0044580D01*
X0025791Y0044519D01*
X0025731Y0044461D01*
X0025668Y0044406D01*
X0025603Y0044354D01*
X0025535Y0044305D01*
X0025465Y0044259D01*
X0025393Y0044217D01*
X0025319Y0044178D01*
X0025243Y0044142D01*
X0025165Y0044110D01*
X0025087Y0044082D01*
X0025006Y0044058D01*
X0024925Y0044037D01*
X0024843Y0044021D01*
X0024761Y0044008D01*
X0024677Y0043999D01*
X0024594Y0043994D01*
X0024510Y0043993D01*
X0024426Y0043996D01*
X0024343Y0044003D01*
X0024260Y0044014D01*
X0024178Y0044029D01*
X0024096Y0044047D01*
X0024015Y0044070D01*
X0023936Y0044096D01*
X0023858Y0044126D01*
X0023781Y0044160D01*
X0023706Y0044197D01*
X0023633Y0044237D01*
X0023562Y0044282D01*
X0023493Y0044329D01*
X0023426Y0044380D01*
X0023362Y0044433D01*
X0023300Y0044490D01*
X0023242Y0044550D01*
X0023186Y0044612D01*
X0023133Y0044677D01*
X0023083Y0044744D01*
X0023036Y0044813D01*
X0022993Y0044885D01*
X0022953Y0044959D01*
X0022917Y0045034D01*
X0022884Y0045111D01*
X0022855Y0045190D01*
X0022830Y0045269D01*
X0022808Y0045350D01*
X0022791Y0045432D01*
X0022777Y0045515D01*
X0022767Y0045598D01*
X0022761Y0045681D01*
X0022759Y0045765D01*
X0022759Y0028443D02*
X0022761Y0028527D01*
X0022767Y0028610D01*
X0022777Y0028693D01*
X0022791Y0028776D01*
X0022808Y0028858D01*
X0022830Y0028939D01*
X0022855Y0029018D01*
X0022884Y0029097D01*
X0022917Y0029174D01*
X0022953Y0029249D01*
X0022993Y0029323D01*
X0023036Y0029395D01*
X0023083Y0029464D01*
X0023133Y0029531D01*
X0023186Y0029596D01*
X0023242Y0029658D01*
X0023300Y0029718D01*
X0023362Y0029775D01*
X0023426Y0029828D01*
X0023493Y0029879D01*
X0023562Y0029926D01*
X0023633Y0029971D01*
X0023706Y0030011D01*
X0023781Y0030048D01*
X0023858Y0030082D01*
X0023936Y0030112D01*
X0024015Y0030138D01*
X0024096Y0030161D01*
X0024178Y0030179D01*
X0024260Y0030194D01*
X0024343Y0030205D01*
X0024426Y0030212D01*
X0024510Y0030215D01*
X0024594Y0030214D01*
X0024677Y0030209D01*
X0024761Y0030200D01*
X0024843Y0030187D01*
X0024925Y0030171D01*
X0025006Y0030150D01*
X0025087Y0030126D01*
X0025165Y0030098D01*
X0025243Y0030066D01*
X0025319Y0030030D01*
X0025393Y0029991D01*
X0025465Y0029949D01*
X0025535Y0029903D01*
X0025603Y0029854D01*
X0025668Y0029802D01*
X0025731Y0029747D01*
X0025791Y0029689D01*
X0025849Y0029628D01*
X0025903Y0029564D01*
X0025955Y0029498D01*
X0026003Y0029430D01*
X0026048Y0029359D01*
X0026089Y0029286D01*
X0026128Y0029212D01*
X0026162Y0029136D01*
X0026193Y0029058D01*
X0026220Y0028979D01*
X0026244Y0028898D01*
X0026263Y0028817D01*
X0026279Y0028735D01*
X0026291Y0028652D01*
X0026299Y0028568D01*
X0026303Y0028485D01*
X0026303Y0028401D01*
X0026299Y0028318D01*
X0026291Y0028234D01*
X0026279Y0028151D01*
X0026263Y0028069D01*
X0026244Y0027988D01*
X0026220Y0027907D01*
X0026193Y0027828D01*
X0026162Y0027750D01*
X0026128Y0027674D01*
X0026089Y0027600D01*
X0026048Y0027527D01*
X0026003Y0027456D01*
X0025955Y0027388D01*
X0025903Y0027322D01*
X0025849Y0027258D01*
X0025791Y0027197D01*
X0025731Y0027139D01*
X0025668Y0027084D01*
X0025603Y0027032D01*
X0025535Y0026983D01*
X0025465Y0026937D01*
X0025393Y0026895D01*
X0025319Y0026856D01*
X0025243Y0026820D01*
X0025165Y0026788D01*
X0025087Y0026760D01*
X0025006Y0026736D01*
X0024925Y0026715D01*
X0024843Y0026699D01*
X0024761Y0026686D01*
X0024677Y0026677D01*
X0024594Y0026672D01*
X0024510Y0026671D01*
X0024426Y0026674D01*
X0024343Y0026681D01*
X0024260Y0026692D01*
X0024178Y0026707D01*
X0024096Y0026725D01*
X0024015Y0026748D01*
X0023936Y0026774D01*
X0023858Y0026804D01*
X0023781Y0026838D01*
X0023706Y0026875D01*
X0023633Y0026915D01*
X0023562Y0026960D01*
X0023493Y0027007D01*
X0023426Y0027058D01*
X0023362Y0027111D01*
X0023300Y0027168D01*
X0023242Y0027228D01*
X0023186Y0027290D01*
X0023133Y0027355D01*
X0023083Y0027422D01*
X0023036Y0027491D01*
X0022993Y0027563D01*
X0022953Y0027637D01*
X0022917Y0027712D01*
X0022884Y0027789D01*
X0022855Y0027868D01*
X0022830Y0027947D01*
X0022808Y0028028D01*
X0022791Y0028110D01*
X0022777Y0028193D01*
X0022767Y0028276D01*
X0022761Y0028359D01*
X0022759Y0028443D01*
D21*
X0118035Y0110884D03*
X0124531Y0178206D03*
M02*
